SplineFontDB: 3.2
FontName: CMUSerifMono-Italic
FullName: CMU Serif Mono Italic
FamilyName: CMU Serif Mono
Weight: Regular
Copyright: An edit of CMU Serif Italic and some AMS glyphs to be compatible with JuliaMono
Version: 0.044; ttfautohint (v1.8.4)
ItalicAngle: -9
UnderlinePosition: -250
UnderlineWidth: 100
Ascent: 1600
Descent: 400
InvalidEm: 0
sfntRevision: 0x00000b43
LayerCount: 2
Layer: 0 1 "Back" 1
Layer: 1 1 "Fore" 0
XUID: [1021 821 -1512940191 1964]
StyleMap: 0x0001
FSType: 0
OS2Version: 4
OS2_WeightWidthSlopeOnly: 0
OS2_UseTypoMetrics: 1
CreationTime: 1643970042
ModificationTime: 1658264840
PfmFamily: 17
TTFWeight: 400
TTFWidth: 5
LineGap: 0
VLineGap: 0
Panose: 2 11 6 9 6 3 0 2 0 4
OS2TypoAscent: 1900
OS2TypoAOffset: 0
OS2TypoDescent: -480
OS2TypoDOffset: 0
OS2TypoLinegap: 0
OS2WinAscent: 2400
OS2WinAOffset: 0
OS2WinDescent: 600
OS2WinDOffset: 0
HheadAscent: 1900
HheadAOffset: 0
HheadDescent: -480
HheadDOffset: 0
OS2SubXSize: 1300
OS2SubYSize: 1200
OS2SubXOff: 0
OS2SubYOff: 150
OS2SupXSize: 1300
OS2SupYSize: 1200
OS2SupXOff: 0
OS2SupYOff: 700
OS2StrikeYSize: 100
OS2StrikeYPos: 1100
OS2CapHeight: 1450
OS2XHeight: 1100
OS2Vendor: 'UKWN'
OS2CodePages: 602801bf.00000000
OS2UnicodeRanges: e501ffff.fac5ffff.0f04e877.05c0a06c
Lookup: 1 0 0 "'aalt' Access All Alternates lookup 0" { "'aalt' Access All Alternates lookup 0 subtable"  } ['aalt' ('DFLT' <'dflt' > 'cyrl' <'BGR ' 'SRB ' 'dflt' > 'hebr' <'IWR ' 'dflt' > 'latn' <'AZE ' 'CAT ' 'CRT ' 'KAZ ' 'MOL ' 'NLD ' 'ROM ' 'TAT ' 'TRK ' 'dflt' > ) ]
Lookup: 3 0 0 "'aalt' Access All Alternates lookup 1" { "'aalt' Access All Alternates lookup 1 subtable"  } ['aalt' ('DFLT' <'dflt' > 'cyrl' <'BGR ' 'SRB ' 'dflt' > 'hebr' <'IWR ' 'dflt' > 'latn' <'AZE ' 'CAT ' 'CRT ' 'KAZ ' 'MOL ' 'NLD ' 'ROM ' 'TAT ' 'TRK ' 'dflt' > ) ]

StartChar: A
Encoding: 65 65 0
Width: 1200
GlyphClass: 2
Flags: W
AnchorPoint: "Anchor-36" 605 1454 basechar 0
AnchorPoint: "Anchor-35" 761 1450 basechar 0
AnchorPoint: "Anchor-34" 929 0 basechar 0
AnchorPoint: "Anchor-33" 499 0 basechar 0
LayerCount: 2
Fore
SplineSet
657 1450 m 1,0,-1
 857 1450 l 1,1,-1
 1016 0 l 1,2,-1
 828 0 l 1,3,-1
 792 406 l 1,4,-1
 356 406 l 1,5,-1
 180 0 l 1,6,-1
 -8 0 l 1,7,-1
 657 1450 l 1,0,-1
781 550 m 1,8,-1
 731 1266 l 1,9,-1
 723 1266 l 1,10,-1
 423 550 l 1,11,-1
 781 550 l 1,8,-1
EndSplineSet
Substitution2: "Single Substitution lookup 63 subtable" ordfeminine
Substitution2: "'fwid' Full Widths lookup 32 subtable" uniFF21
Substitution2: "'c2sc' Capitals to Small Capitals lookup 26 subtable" a.sc
AlternateSubs2: "'aalt' Access All Alternates lookup 1 subtable" ordfeminine a.sc uniFF21
EndChar

StartChar: B
Encoding: 66 66 1
Width: 1200
GlyphClass: 2
Flags: W
AnchorPoint: "Anchor-35" 747 1450 basechar 0
AnchorPoint: "Anchor-33" 491 0 basechar 0
LayerCount: 2
Fore
SplineSet
325 1450 m 1,0,-1
 698 1450 l 2,1,2
 852 1450 852 1450 949 1381 c 128,-1,3
 1046 1312 1046 1312 1046 1162 c 0,4,5
 1046 1115 1046 1115 1038 1072 c 0,6,7
 1022 980 1022 980 993 921 c 128,-1,8
 964 862 964 862 920.5 824 c 128,-1,9
 877 786 877 786 808 754 c 1,10,11
 1060 707 1060 707 1060 478 c 0,12,13
 1060 433 1060 433 1052 390 c 0,14,15
 983 0 983 0 482 0 c 2,16,-1
 69 0 l 1,17,-1
 325 1450 l 1,0,-1
448 148 m 2,18,19
 559 148 559 148 644 166 c 128,-1,20
 729 184 729 184 795 244.5 c 128,-1,21
 861 305 861 305 881 422 c 0,22,23
 887 457 887 457 887 485 c 0,24,25
 887 593 887 593 811.5 635.5 c 128,-1,26
 736 678 736 678 604 678 c 2,27,-1
 357 678 l 1,28,-1
 263 148 l 1,29,-1
 448 148 l 2,18,19
523 820 m 2,30,31
 657 820 657 820 748.5 878 c 128,-1,32
 840 936 840 936 865 1080 c 0,33,34
 870 1105 870 1105 870 1136 c 0,35,36
 870 1227 870 1227 809 1262.5 c 128,-1,37
 748 1298 748 1298 641 1298 c 2,38,-1
 466 1298 l 1,39,-1
 382 820 l 1,40,-1
 523 820 l 2,30,31
EndSplineSet
Substitution2: "'fwid' Full Widths lookup 32 subtable" uniFF22
Substitution2: "'c2sc' Capitals to Small Capitals lookup 26 subtable" b.sc
AlternateSubs2: "'aalt' Access All Alternates lookup 1 subtable" b.sc uniFF22
EndChar

StartChar: C
Encoding: 67 67 2
Width: 1200
GlyphClass: 2
Flags: W
AnchorPoint: "Anchor-35" 759 1450 basechar 0
AnchorPoint: "Anchor-33" 503 0 basechar 0
LayerCount: 2
Fore
SplineSet
245 87.5 m 128,-1,1
 138 211 138 211 138 453 c 0,2,3
 138 573 138 573 163 716 c 0,4,5
 206 959 206 959 297 1127 c 128,-1,6
 388 1295 388 1295 522 1381.5 c 128,-1,7
 656 1468 656 1468 826 1468 c 0,8,9
 957 1468 957 1468 1059 1421 c 128,-1,10
 1161 1374 1161 1374 1202 1271 c 1,11,-1
 1084 1198 l 1,12,13
 1043 1252 1043 1252 1000 1279.5 c 128,-1,14
 957 1307 957 1307 914 1315.5 c 128,-1,15
 871 1324 871 1324 815 1324 c 0,16,17
 626 1324 626 1324 513.5 1161.5 c 128,-1,18
 401 999 401 999 349 702 c 0,19,20
 321 545 321 545 321 432 c 0,21,22
 321 277 321 277 380.5 196.5 c 128,-1,23
 440 116 440 116 575 116 c 0,24,25
 680 116 680 116 763.5 153 c 128,-1,26
 847 190 847 190 915 273 c 1,27,-1
 1011 165 l 1,28,29
 930 61 930 61 815 12.5 c 128,-1,30
 700 -36 700 -36 567 -36 c 0,31,0
 352 -36 352 -36 245 87.5 c 128,-1,1
EndSplineSet
Substitution2: "'fwid' Full Widths lookup 32 subtable" uniFF23
Substitution2: "'c2sc' Capitals to Small Capitals lookup 26 subtable" c.sc
AlternateSubs2: "'aalt' Access All Alternates lookup 1 subtable" c.sc uniFF23
EndChar

StartChar: D
Encoding: 68 68 3
Width: 1200
GlyphClass: 2
Flags: W
AnchorPoint: "Anchor-37" 626 700 basechar 0
AnchorPoint: "Anchor-35" 759 1450 basechar 0
AnchorPoint: "Anchor-33" 503 0 basechar 0
LayerCount: 2
Fore
SplineSet
331 1450 m 1,0,-1
 594 1450 l 2,1,2
 780 1450 780 1450 900.5 1402.5 c 128,-1,3
 1021 1355 1021 1355 1082 1250 c 128,-1,4
 1143 1145 1143 1145 1143 973 c 0,5,6
 1143 860 1143 860 1118 722 c 0,7,8
 1073 463 1073 463 981 306 c 128,-1,9
 889 149 889 149 732 74.5 c 128,-1,10
 575 0 575 0 332 0 c 2,11,-1
 75 0 l 1,12,-1
 331 1450 l 1,0,-1
362 146 m 2,13,14
 529 146 529 146 641 201 c 128,-1,15
 753 256 753 256 826.5 386.5 c 128,-1,16
 900 517 900 517 941 746 c 0,17,18
 962 866 962 866 962 957 c 0,19,20
 962 1140 962 1140 874 1221 c 128,-1,21
 786 1302 786 1302 596 1302 c 2,22,-1
 481 1302 l 1,23,-1
 277 146 l 1,24,-1
 362 146 l 2,13,14
EndSplineSet
Substitution2: "'fwid' Full Widths lookup 32 subtable" uniFF24
Substitution2: "'c2sc' Capitals to Small Capitals lookup 26 subtable" d.sc
AlternateSubs2: "'aalt' Access All Alternates lookup 1 subtable" d.sc uniFF24
EndChar

StartChar: E
Encoding: 69 69 4
Width: 1200
GlyphClass: 2
Flags: W
AnchorPoint: "Anchor-36" 353 1450 basechar 0
AnchorPoint: "Anchor-35" 759 1450 basechar 0
AnchorPoint: "Anchor-34" 823 0 basechar 0
AnchorPoint: "Anchor-33" 503 0 basechar 0
LayerCount: 2
Fore
SplineSet
335 1450 m 1,0,-1
 1173 1450 l 1,1,-1
 1146 1300 l 1,2,-1
 484 1300 l 1,3,-1
 401 828 l 1,4,-1
 1035 828 l 1,5,-1
 1009 682 l 1,6,-1
 375 682 l 1,7,-1
 281 146 l 1,8,-1
 969 146 l 1,9,-1
 943 0 l 1,10,-1
 79 0 l 1,11,-1
 335 1450 l 1,0,-1
EndSplineSet
Substitution2: "'fwid' Full Widths lookup 32 subtable" uniFF25
Substitution2: "'c2sc' Capitals to Small Capitals lookup 26 subtable" e.sc
AlternateSubs2: "'aalt' Access All Alternates lookup 1 subtable" e.sc uniFF25
EndChar

StartChar: F
Encoding: 70 70 5
Width: 1200
GlyphClass: 2
Flags: W
AnchorPoint: "Anchor-35" 759 1450 basechar 0
AnchorPoint: "Anchor-33" 503 0 basechar 0
LayerCount: 2
Fore
SplineSet
357 1450 m 1,0,-1
 1225 1450 l 1,1,-1
 1198 1300 l 1,2,-1
 506 1300 l 1,3,-1
 416 790 l 1,4,-1
 1076 790 l 1,5,-1
 1051 644 l 1,6,-1
 391 644 l 1,7,-1
 277 0 l 1,8,-1
 101 0 l 1,9,-1
 357 1450 l 1,0,-1
EndSplineSet
Substitution2: "'fwid' Full Widths lookup 32 subtable" uniFF26
Substitution2: "'c2sc' Capitals to Small Capitals lookup 26 subtable" f.sc
AlternateSubs2: "'aalt' Access All Alternates lookup 1 subtable" f.sc uniFF26
EndChar

StartChar: G
Encoding: 71 71 6
Width: 1200
GlyphClass: 2
Flags: W
AnchorPoint: "Anchor-35" 742 1466 basechar 0
AnchorPoint: "Anchor-33" 503 0 basechar 0
LayerCount: 2
Fore
SplineSet
123 453 m 0,1,2
 123 586 123 586 151 740 c 0,3,4
 213 1092 213 1092 360 1281 c 128,-1,5
 507 1470 507 1470 778 1470 c 0,6,7
 927 1470 927 1470 1036 1409 c 128,-1,8
 1145 1348 1145 1348 1180 1223 c 1,9,-1
 1033 1153 l 1,10,11
 996 1253 996 1253 933.5 1287.5 c 128,-1,12
 871 1322 871 1322 788 1322 c 0,13,14
 640 1322 640 1322 547.5 1242.5 c 128,-1,15
 455 1163 455 1163 405.5 1033 c 128,-1,16
 356 903 356 903 323 715 c 0,17,18
 293 547 293 547 293 442 c 0,19,20
 293 299 293 299 348 213.5 c 128,-1,21
 403 128 403 128 538 128 c 0,22,23
 850 128 850 128 937 622 c 1,24,-1
 588 616 l 1,25,-1
 612 756 l 1,26,-1
 1114 756 l 1,27,-1
 981 0 l 1,28,-1
 831 0 l 1,29,-1
 860 154 l 1,30,-1
 853 149 l 1,31,32
 803 70 803 70 729 25 c 128,-1,33
 655 -20 655 -20 524 -20 c 0,34,0
 123 -20 123 -20 123 453 c 0,1,2
EndSplineSet
Substitution2: "'fwid' Full Widths lookup 32 subtable" uniFF27
Substitution2: "'c2sc' Capitals to Small Capitals lookup 26 subtable" g.sc
AlternateSubs2: "'aalt' Access All Alternates lookup 1 subtable" g.sc uniFF27
EndChar

StartChar: H
Encoding: 72 72 7
Width: 1200
GlyphClass: 2
Flags: W
AnchorPoint: "Anchor-39" 913 0 basechar 0
AnchorPoint: "Anchor-37" 631 726 basechar 0
AnchorPoint: "Anchor-36" 249 1450 basechar 0
AnchorPoint: "Anchor-35" 759 1450 basechar 0
AnchorPoint: "Anchor-33" 179 0 basechar 0
LayerCount: 2
Fore
SplineSet
349 1450 m 1,0,-1
 523 1450 l 1,1,-1
 414 834 l 1,2,-1
 886 834 l 1,3,-1
 995 1450 l 1,4,-1
 1169 1450 l 1,5,-1
 913 0 l 1,6,-1
 739 0 l 1,7,-1
 858 676 l 1,8,-1
 386 676 l 1,9,-1
 267 0 l 1,10,-1
 93 0 l 1,11,-1
 349 1450 l 1,0,-1
EndSplineSet
Substitution2: "'fwid' Full Widths lookup 32 subtable" uniFF28
Substitution2: "'c2sc' Capitals to Small Capitals lookup 26 subtable" h.sc
AlternateSubs2: "'aalt' Access All Alternates lookup 1 subtable" h.sc uniFF28
EndChar

StartChar: I
Encoding: 73 73 8
Width: 1200
GlyphClass: 2
Flags: W
AnchorPoint: "Anchor-36" 383 1450 basechar 0
AnchorPoint: "Anchor-35" 759 1450 basechar 0
AnchorPoint: "Anchor-34" 503 0 basechar 0
AnchorPoint: "Anchor-33" 503 0 basechar 0
LayerCount: 2
Fore
SplineSet
152 140 m 1,0,-1
 442 140 l 1,1,-1
 648 1310 l 1,2,-1
 396 1310 l 1,3,-1
 421 1450 l 1,4,-1
 1095 1450 l 1,5,-1
 1070 1310 l 1,6,-1
 824 1310 l 1,7,-1
 618 140 l 1,8,-1
 902 140 l 1,9,-1
 877 0 l 1,10,-1
 127 0 l 1,11,-1
 152 140 l 1,0,-1
EndSplineSet
Substitution2: "'fwid' Full Widths lookup 32 subtable" uniFF29
Substitution2: "'c2sc' Capitals to Small Capitals lookup 26 subtable" i.sc
AlternateSubs2: "'aalt' Access All Alternates lookup 1 subtable" i.sc uniFF29
EndChar

StartChar: J
Encoding: 74 74 9
Width: 1200
GlyphClass: 2
Flags: W
AnchorPoint: "Anchor-35" 757 1450 basechar 0
AnchorPoint: "Anchor-33" 482 -20 basechar 0
LayerCount: 2
Fore
SplineSet
286 19.5 m 128,-1,1
 202 59 202 59 155.5 133.5 c 128,-1,2
 109 208 109 208 109 312 c 0,3,4
 109 350 109 350 117 398 c 1,5,-1
 301 386 l 1,6,7
 295 353 295 353 295 324 c 0,8,9
 295 232 295 232 347 180 c 128,-1,10
 399 128 399 128 489 128 c 0,11,12
 607 128 607 128 688.5 209.5 c 128,-1,13
 770 291 770 291 797 444 c 2,14,-1
 946 1288 l 1,15,-1
 382 1288 l 1,16,-1
 411 1450 l 1,17,-1
 1149 1450 l 1,18,-1
 969 428 l 2,19,20
 929 200 929 200 808 90 c 128,-1,21
 687 -20 687 -20 480 -20 c 0,22,0
 370 -20 370 -20 286 19.5 c 128,-1,1
EndSplineSet
Substitution2: "'fwid' Full Widths lookup 32 subtable" uniFF2A
Substitution2: "'c2sc' Capitals to Small Capitals lookup 26 subtable" j.sc
AlternateSubs2: "'aalt' Access All Alternates lookup 1 subtable" j.sc uniFF2A
EndChar

StartChar: K
Encoding: 75 75 10
Width: 1200
GlyphClass: 2
Flags: W
AnchorPoint: "Anchor-35" 759 1450 basechar 0
AnchorPoint: "Anchor-33" 503 0 basechar 0
LayerCount: 2
Fore
SplineSet
406 776 m 1,0,-1
 269 0 l 1,1,-1
 95 0 l 1,2,-1
 351 1452 l 1,3,-1
 525 1452 l 1,4,-1
 409 796 l 1,5,-1
 1027 1452 l 1,6,-1
 1245 1452 l 1,7,-1
 594 798 l 1,8,-1
 1047 0 l 1,9,-1
 831 0 l 1,10,-1
 406 776 l 1,0,-1
EndSplineSet
Substitution2: "'fwid' Full Widths lookup 32 subtable" uniFF2B
Substitution2: "'c2sc' Capitals to Small Capitals lookup 26 subtable" k.sc
AlternateSubs2: "'aalt' Access All Alternates lookup 1 subtable" k.sc uniFF2B
EndChar

StartChar: L
Encoding: 76 76 11
Width: 1200
GlyphClass: 2
Flags: W
AnchorPoint: "Anchor-38" 1203 1454 basechar 0
AnchorPoint: "Anchor-37" 631 726 basechar 0
AnchorPoint: "Anchor-35" 759 1454 basechar 0
AnchorPoint: "Anchor-33" 514 -38 basechar 0
LayerCount: 2
Fore
SplineSet
349 1454 m 1,0,-1
 525 1454 l 1,1,-1
 295 146 l 1,2,-1
 1005 146 l 1,3,-1
 979 0 l 1,4,-1
 93 0 l 1,5,-1
 349 1454 l 1,0,-1
EndSplineSet
Substitution2: "'fwid' Full Widths lookup 32 subtable" uniFF2C
Substitution2: "'c2sc' Capitals to Small Capitals lookup 26 subtable" l.sc
AlternateSubs2: "'aalt' Access All Alternates lookup 1 subtable" l.sc uniFF2C
EndChar

StartChar: M
Encoding: 77 77 12
Width: 1200
GlyphClass: 2
Flags: W
AnchorPoint: "Anchor-39" 981 0 basechar 0
AnchorPoint: "Anchor-35" 759 1450 basechar 0
AnchorPoint: "Anchor-33" 503 0 basechar 0
LayerCount: 2
Fore
SplineSet
281 1450 m 1,0,-1
 570 1450 l 1,1,-1
 613 633 l 1,2,-1
 944 1450 l 1,3,-1
 1237 1450 l 1,4,-1
 981 0 l 1,5,-1
 809 0 l 1,6,-1
 1022 1214 l 1,7,-1
 1004 1195 l 1,8,-1
 647 400 l 1,9,-1
 501 400 l 1,10,-1
 418 1195 l 1,11,-1
 410 1211 l 1,12,-1
 197 0 l 1,13,-1
 25 0 l 1,14,-1
 281 1450 l 1,0,-1
EndSplineSet
Substitution2: "'fwid' Full Widths lookup 32 subtable" uniFF2D
Substitution2: "'c2sc' Capitals to Small Capitals lookup 26 subtable" m.sc
AlternateSubs2: "'aalt' Access All Alternates lookup 1 subtable" m.sc uniFF2D
EndChar

StartChar: N
Encoding: 78 78 13
Width: 1200
GlyphClass: 2
Flags: W
AnchorPoint: "Anchor-35" 758 1446 basechar 0
AnchorPoint: "Anchor-33" 503 0 basechar 0
LayerCount: 2
Fore
SplineSet
337 1450 m 1,0,-1
 585 1450 l 1,1,-1
 736 486 l 1,2,-1
 777 234 l 1,3,-1
 993 1450 l 1,4,-1
 1169 1450 l 1,5,-1
 913 0 l 1,6,-1
 675 0 l 1,7,-1
 465 1192 l 1,8,-1
 253 0 l 1,9,-1
 81 0 l 1,10,-1
 337 1450 l 1,0,-1
EndSplineSet
Substitution2: "'fwid' Full Widths lookup 32 subtable" uniFF2E
Substitution2: "'c2sc' Capitals to Small Capitals lookup 26 subtable" n.sc
AlternateSubs2: "'aalt' Access All Alternates lookup 1 subtable" n.sc uniFF2E
EndChar

StartChar: O
Encoding: 79 79 14
Width: 1200
GlyphClass: 2
Flags: W
AnchorPoint: "Anchor-38" 1000 1388 basechar 0
AnchorPoint: "Anchor-37" 631 726 basechar 0
AnchorPoint: "Anchor-36" 249 1450 basechar 0
AnchorPoint: "Anchor-35" 759 1450 basechar 0
AnchorPoint: "Anchor-34" 502 -8 basechar 0
AnchorPoint: "Anchor-33" 500 -16 basechar 0
LayerCount: 2
Fore
SplineSet
185 122 m 128,-1,1
 78 268 78 268 78 515 c 0,2,3
 78 630 78 630 101 762 c 0,4,5
 138 974 138 974 229.5 1134 c 128,-1,6
 321 1294 321 1294 455 1382 c 128,-1,7
 589 1470 589 1470 752 1470 c 0,8,9
 891 1470 891 1470 988 1406.5 c 128,-1,10
 1085 1343 1085 1343 1135 1226 c 128,-1,11
 1185 1109 1185 1109 1185 950 c 0,12,13
 1185 853 1185 853 1165 738 c 0,14,15
 1126 518 1126 518 1040 346.5 c 128,-1,16
 954 175 954 175 819.5 75.5 c 128,-1,17
 685 -24 685 -24 509 -24 c 0,18,0
 292 -24 292 -24 185 122 c 128,-1,1
269 516 m 0,20,21
 269 344 269 344 330.5 244 c 128,-1,22
 392 144 392 144 512 144 c 0,23,24
 621 144 621 144 715 223 c 128,-1,25
 809 302 809 302 876 440 c 128,-1,26
 943 578 943 578 974 752 c 0,27,28
 989 839 989 839 989 918 c 0,29,30
 989 1034 989 1034 958.5 1124 c 128,-1,31
 928 1214 928 1214 871.5 1264 c 128,-1,32
 815 1314 815 1314 741 1314 c 0,33,34
 645 1314 645 1314 551.5 1236.5 c 128,-1,35
 458 1159 458 1159 388 1024.5 c 128,-1,36
 318 890 318 890 289 728 c 0,37,19
 269 611 269 611 269 516 c 0,20,21
EndSplineSet
Substitution2: "Single Substitution lookup 63 subtable" ordmasculine
Substitution2: "'fwid' Full Widths lookup 32 subtable" uniFF2F
Substitution2: "'c2sc' Capitals to Small Capitals lookup 26 subtable" o.sc
AlternateSubs2: "'aalt' Access All Alternates lookup 1 subtable" ordmasculine o.sc uniFF2F
EndChar

StartChar: P
Encoding: 80 80 15
Width: 1200
GlyphClass: 2
Flags: W
AnchorPoint: "Anchor-36" 334 1448 basechar 0
AnchorPoint: "Anchor-35" 757 1450 basechar 0
AnchorPoint: "Anchor-33" 503 0 basechar 0
LayerCount: 2
Fore
SplineSet
329 1450 m 1,0,-1
 746 1450 l 2,1,2
 944 1450 944 1450 1063.5 1374 c 128,-1,3
 1183 1298 1183 1298 1183 1122 c 0,4,5
 1183 1071 1183 1071 1173 1018 c 0,6,7
 1134 796 1134 796 982 703 c 128,-1,8
 830 610 830 610 616 610 c 2,9,-1
 357 610 l 1,10,-1
 249 0 l 1,11,-1
 73 0 l 1,12,-1
 329 1450 l 1,0,-1
557 756 m 2,13,14
 682 756 682 756 766 775.5 c 128,-1,15
 850 795 850 795 909.5 858 c 128,-1,16
 969 921 969 921 991 1044 c 0,17,18
 998 1090 998 1090 998 1114 c 0,19,20
 998 1190 998 1190 961.5 1231.5 c 128,-1,21
 925 1273 925 1273 863.5 1287.5 c 128,-1,22
 802 1302 802 1302 714 1302 c 2,23,-1
 479 1302 l 1,24,-1
 382 756 l 1,25,-1
 557 756 l 2,13,14
EndSplineSet
Substitution2: "'fwid' Full Widths lookup 32 subtable" uniFF30
Substitution2: "'c2sc' Capitals to Small Capitals lookup 26 subtable" p.sc
AlternateSubs2: "'aalt' Access All Alternates lookup 1 subtable" p.sc uniFF30
EndChar

StartChar: Q
Encoding: 81 81 16
Width: 1200
GlyphClass: 2
Flags: W
AnchorPoint: "Anchor-38" 1003 1404 basechar 0
AnchorPoint: "Anchor-37" 631 726 basechar 0
AnchorPoint: "Anchor-36" 249 1450 basechar 0
AnchorPoint: "Anchor-35" 762 1456 basechar 0
AnchorPoint: "Anchor-34" 502 -8 basechar 0
AnchorPoint: "Anchor-33" 452 -288 basechar 0
LayerCount: 2
Fore
SplineSet
449.5 -251.5 m 128,-1,1
 404 -207 404 -207 404 -118 c 0,2,3
 404 -76 404 -76 414 -11 c 1,4,5
 238 18 238 18 156.5 150 c 128,-1,6
 75 282 75 282 75 493 c 0,7,8
 75 617 75 617 101 762 c 0,9,10
 138 972 138 972 231 1132.5 c 128,-1,11
 324 1293 324 1293 459 1381.5 c 128,-1,12
 594 1470 594 1470 752 1470 c 0,13,14
 888 1470 888 1470 985.5 1405.5 c 128,-1,15
 1083 1341 1083 1341 1133.5 1222 c 128,-1,16
 1184 1103 1184 1103 1184 943 c 0,17,18
 1184 843 1184 843 1165 738 c 0,19,20
 1109 419 1109 419 968.5 218 c 128,-1,21
 828 17 828 17 589 -13 c 1,22,23
 584 -40 584 -40 584 -58 c 0,24,25
 584 -90 584 -90 602.5 -106 c 128,-1,26
 621 -122 621 -122 669 -122 c 2,27,-1
 1044 -122 l 1,28,-1
 1013 -296 l 1,29,-1
 605 -296 l 2,30,0
 495 -296 495 -296 449.5 -251.5 c 128,-1,1
264 476 m 0,32,33
 264 136 264 136 511 136 c 0,34,35
 696 136 696 136 810.5 306 c 128,-1,36
 925 476 925 476 975 762 c 0,37,38
 990 848 990 848 990 927 c 0,39,40
 990 1038 990 1038 961 1125 c 128,-1,41
 932 1212 932 1212 875 1262 c 128,-1,42
 818 1312 818 1312 739 1312 c 0,43,44
 634 1312 634 1312 542.5 1237.5 c 128,-1,45
 451 1163 451 1163 385.5 1032 c 128,-1,46
 320 901 320 901 291 738 c 0,47,31
 264 587 264 587 264 476 c 0,32,33
EndSplineSet
Substitution2: "'fwid' Full Widths lookup 32 subtable" uniFF31
Substitution2: "'c2sc' Capitals to Small Capitals lookup 26 subtable" q.sc
AlternateSubs2: "'aalt' Access All Alternates lookup 1 subtable" q.sc uniFF31
EndChar

StartChar: R
Encoding: 82 82 17
Width: 1200
GlyphClass: 2
Flags: W
AnchorPoint: "Anchor-35" 759 1450 basechar 0
AnchorPoint: "Anchor-33" 503 0 basechar 0
LayerCount: 2
Fore
SplineSet
333 1450 m 1,0,-1
 764 1450 l 2,1,2
 867 1450 867 1450 958 1413 c 128,-1,3
 1049 1376 1049 1376 1105 1300.5 c 128,-1,4
 1161 1225 1161 1225 1161 1115 c 0,5,6
 1161 1075 1161 1075 1154 1036 c 0,7,8
 1128 891 1128 891 1032.5 798 c 128,-1,9
 937 705 937 705 799 667 c 1,10,-1
 1006 -8 l 1,11,-1
 819 -8 l 1,12,-1
 619 642 l 1,13,-1
 611 642 l 1,14,-1
 366 642 l 1,15,-1
 253 0 l 1,16,-1
 77 0 l 1,17,-1
 333 1450 l 1,0,-1
578 796 m 2,18,19
 685 796 685 796 764 816 c 128,-1,20
 843 836 843 836 900 894 c 128,-1,21
 957 952 957 952 976 1062 c 0,22,23
 982 1094 982 1094 982 1120 c 0,24,25
 982 1222 982 1222 910.5 1262 c 128,-1,26
 839 1302 839 1302 720 1302 c 2,27,-1
 483 1302 l 1,28,-1
 393 796 l 1,29,-1
 578 796 l 2,18,19
EndSplineSet
Substitution2: "'fwid' Full Widths lookup 32 subtable" uniFF32
Substitution2: "'c2sc' Capitals to Small Capitals lookup 26 subtable" r.sc
AlternateSubs2: "'aalt' Access All Alternates lookup 1 subtable" r.sc uniFF32
EndChar

StartChar: S
Encoding: 83 83 18
Width: 1200
GlyphClass: 2
Flags: W
AnchorPoint: "Anchor-35" 759 1454 basechar 0
AnchorPoint: "Anchor-33" 504 4 basechar 0
LayerCount: 2
Fore
SplineSet
331.5 179.5 m 128,-1,1
 415 126 415 126 497 126 c 0,2,3
 591 126 591 126 673.5 154.5 c 128,-1,4
 756 183 756 183 813 243 c 128,-1,5
 870 303 870 303 886 392 c 0,6,7
 890 411 890 411 890 433 c 0,8,9
 890 493 890 493 855 532.5 c 128,-1,10
 820 572 820 572 767.5 596 c 128,-1,11
 715 620 715 620 624 651 c 0,12,13
 570 669 570 669 516 690 c 0,14,15
 378 739 378 739 296.5 815 c 128,-1,16
 215 891 215 891 215 1014 c 0,17,18
 215 1046 215 1046 221 1080 c 0,19,20
 244 1211 244 1211 325.5 1298.5 c 128,-1,21
 407 1386 407 1386 520.5 1428 c 128,-1,22
 634 1470 634 1470 758 1470 c 0,23,24
 860 1470 860 1470 934 1444 c 128,-1,25
 1008 1418 1008 1418 1061.5 1373 c 128,-1,26
 1115 1328 1115 1328 1169 1258 c 1,27,-1
 1044 1164 l 1,28,29
 991 1239 991 1239 916.5 1280.5 c 128,-1,30
 842 1322 842 1322 750 1322 c 0,31,32
 674 1322 674 1322 595 1293 c 128,-1,33
 516 1264 516 1264 458.5 1206 c 128,-1,34
 401 1148 401 1148 387 1068 c 0,35,36
 383 1040 383 1040 383 1029 c 0,37,38
 383 964 383 964 423.5 919.5 c 128,-1,39
 464 875 464 875 523.5 847 c 128,-1,40
 583 819 583 819 686 783 c 0,41,42
 804 742 804 742 877 706 c 128,-1,43
 950 670 950 670 1000.5 608 c 128,-1,44
 1051 546 1051 546 1051 452 c 0,45,46
 1051 422 1051 422 1045 386 c 0,47,48
 1024 267 1024 267 949 174 c 128,-1,49
 874 81 874 81 757.5 29.5 c 128,-1,50
 641 -22 641 -22 501 -22 c 0,51,52
 349 -22 349 -22 240.5 45.5 c 128,-1,53
 132 113 132 113 55 230 c 1,54,-1
 174 330 l 1,55,0
 248 233 248 233 331.5 179.5 c 128,-1,1
EndSplineSet
Substitution2: "'fwid' Full Widths lookup 32 subtable" uniFF33
Substitution2: "'c2sc' Capitals to Small Capitals lookup 26 subtable" s.sc
AlternateSubs2: "'aalt' Access All Alternates lookup 1 subtable" s.sc uniFF33
EndChar

StartChar: T
Encoding: 84 84 19
Width: 1200
GlyphClass: 2
Flags: W
AnchorPoint: "Anchor-37" 626 700 basechar 0
AnchorPoint: "Anchor-36" 249 1450 basechar 0
AnchorPoint: "Anchor-35" 759 1450 basechar 0
AnchorPoint: "Anchor-33" 503 0 basechar 0
LayerCount: 2
Fore
SplineSet
648 1298 m 1,0,-1
 222 1298 l 1,1,-1
 249 1450 l 1,2,-1
 1267 1450 l 1,3,-1
 1240 1298 l 1,4,-1
 814 1298 l 1,5,-1
 585 0 l 1,6,-1
 419 0 l 1,7,-1
 648 1298 l 1,0,-1
EndSplineSet
Substitution2: "'fwid' Full Widths lookup 32 subtable" uniFF34
Substitution2: "'c2sc' Capitals to Small Capitals lookup 26 subtable" t.sc
AlternateSubs2: "'aalt' Access All Alternates lookup 1 subtable" t.sc uniFF34
EndChar

StartChar: U
Encoding: 85 85 20
Width: 1200
GlyphClass: 2
Flags: W
AnchorPoint: "Anchor-38" 1241 1454 basechar 0
AnchorPoint: "Anchor-35" 759 1454 basechar 0
AnchorPoint: "Anchor-34" 647 48 basechar 0
AnchorPoint: "Anchor-33" 503 0 basechar 0
LayerCount: 2
Fore
SplineSet
199.5 76 m 128,-1,1
 101 168 101 168 101 369 c 0,2,3
 101 466 101 466 124 598 c 2,4,-1
 275 1454 l 1,5,-1
 447 1454 l 1,6,-1
 295 591 l 2,7,8
 271 456 271 456 271 368 c 0,9,10
 271 279 271 279 296.5 228 c 128,-1,11
 322 177 322 177 375 155 c 128,-1,12
 428 133 428 133 516 133 c 0,13,14
 633 133 633 133 709.5 176.5 c 128,-1,15
 786 220 786 220 835.5 322 c 128,-1,16
 885 424 885 424 917 603 c 2,17,-1
 1067 1454 l 1,18,-1
 1241 1454 l 1,19,-1
 1088 586 l 2,20,21
 1048 358 1048 358 986.5 230.5 c 128,-1,22
 925 103 925 103 813 43.5 c 128,-1,23
 701 -16 701 -16 510 -16 c 0,24,0
 298 -16 298 -16 199.5 76 c 128,-1,1
EndSplineSet
Substitution2: "'fwid' Full Widths lookup 32 subtable" uniFF35
Substitution2: "'c2sc' Capitals to Small Capitals lookup 26 subtable" u.sc
AlternateSubs2: "'aalt' Access All Alternates lookup 1 subtable" u.sc uniFF35
EndChar

StartChar: V
Encoding: 86 86 21
Width: 1200
GlyphClass: 2
Flags: W
AnchorPoint: "Anchor-35" 759 1450 basechar 0
AnchorPoint: "Anchor-33" 503 0 basechar 0
LayerCount: 2
Fore
SplineSet
252 1450 m 1,0,-1
 413 1450 l 1,1,-1
 536 190 l 1,2,-1
 1095 1450 l 1,3,-1
 1266 1450 l 1,4,-1
 594 0 l 1,5,-1
 406 0 l 1,6,-1
 252 1450 l 1,0,-1
EndSplineSet
Substitution2: "'fwid' Full Widths lookup 32 subtable" uniFF36
Substitution2: "'c2sc' Capitals to Small Capitals lookup 26 subtable" v.sc
AlternateSubs2: "'aalt' Access All Alternates lookup 1 subtable" v.sc uniFF36
EndChar

StartChar: W
Encoding: 87 87 22
Width: 1200
GlyphClass: 2
Flags: W
AnchorPoint: "Anchor-35" 759 1450 basechar 0
AnchorPoint: "Anchor-33" 503 0 basechar 0
LayerCount: 2
Fore
SplineSet
263 1450 m 1,0,-1
 432 1450 l 1,1,-1
 287 226 l 1,2,-1
 314 224 l 1,3,-1
 626 1110 l 1,4,-1
 772 1110 l 1,5,-1
 770 224 l 1,6,-1
 799 226 l 1,7,-1
 1080 1450 l 1,8,-1
 1253 1450 l 1,9,-1
 873 0 l 1,10,-1
 624 0 l 1,11,-1
 636 694 l 1,12,-1
 643 746 l 1,13,-1
 629 746 l 1,14,-1
 617 694 l 1,15,-1
 370 0 l 1,16,-1
 127 0 l 1,17,-1
 263 1450 l 1,0,-1
EndSplineSet
Substitution2: "'fwid' Full Widths lookup 32 subtable" uniFF37
Substitution2: "'c2sc' Capitals to Small Capitals lookup 26 subtable" w.sc
AlternateSubs2: "'aalt' Access All Alternates lookup 1 subtable" w.sc uniFF37
EndChar

StartChar: X
Encoding: 88 88 23
Width: 1200
GlyphClass: 2
Flags: W
AnchorPoint: "Anchor-39" 916 -94 basechar 0
AnchorPoint: "Anchor-35" 759 1450 basechar 0
AnchorPoint: "Anchor-33" 503 0 basechar 0
LayerCount: 2
Fore
SplineSet
538 752 m 1,0,-1
 277 1450 l 1,1,-1
 469 1450 l 1,2,-1
 651 904 l 1,3,-1
 1039 1450 l 1,4,-1
 1229 1450 l 1,5,-1
 728 774 l 1,6,-1
 1007 0 l 1,7,-1
 823 0 l 1,8,-1
 614 622 l 1,9,-1
 185 0 l 1,10,-1
 -3 0 l 1,11,-1
 538 752 l 1,0,-1
EndSplineSet
Substitution2: "'fwid' Full Widths lookup 32 subtable" uniFF38
Substitution2: "'c2sc' Capitals to Small Capitals lookup 26 subtable" x.sc
AlternateSubs2: "'aalt' Access All Alternates lookup 1 subtable" x.sc uniFF38
EndChar

StartChar: Y
Encoding: 89 89 24
Width: 1200
GlyphClass: 2
Flags: W
AnchorPoint: "Anchor-36" 265 1450 basechar 0
AnchorPoint: "Anchor-35" 759 1450 basechar 0
AnchorPoint: "Anchor-33" 503 0 basechar 0
LayerCount: 2
Fore
SplineSet
524 606 m 1,0,-1
 266 1450 l 1,1,-1
 449 1450 l 1,2,-1
 640 764 l 1,3,-1
 1071 1450 l 1,4,-1
 1252 1450 l 1,5,-1
 700 606 l 1,6,-1
 591 0 l 1,7,-1
 415 0 l 1,8,-1
 524 606 l 1,0,-1
EndSplineSet
Substitution2: "'fwid' Full Widths lookup 32 subtable" uniFF39
Substitution2: "'c2sc' Capitals to Small Capitals lookup 26 subtable" y.sc
AlternateSubs2: "'aalt' Access All Alternates lookup 1 subtable" y.sc uniFF39
EndChar

StartChar: Z
Encoding: 90 90 25
Width: 1200
GlyphClass: 2
Flags: W
AnchorPoint: "Anchor-37" 626 700 basechar 0
AnchorPoint: "Anchor-35" 759 1450 basechar 0
AnchorPoint: "Anchor-33" 503 0 basechar 0
LayerCount: 2
Fore
SplineSet
34 166 m 1,0,-1
 1017 1302 l 1,1,-1
 297 1302 l 1,2,-1
 323 1450 l 1,3,-1
 1235 1450 l 1,4,-1
 1209 1294 l 1,5,-1
 231 146 l 1,6,-1
 1035 146 l 1,7,-1
 1009 0 l 1,8,-1
 7 0 l 1,9,-1
 34 166 l 1,0,-1
EndSplineSet
Substitution2: "'fwid' Full Widths lookup 32 subtable" uniFF3A
Substitution2: "'c2sc' Capitals to Small Capitals lookup 26 subtable" z.sc
AlternateSubs2: "'aalt' Access All Alternates lookup 1 subtable" z.sc uniFF3A
EndChar

StartChar: a
Encoding: 97 97 26
Width: 1200
VWidth: 2048
GlyphClass: 2
Flags: W
LayerCount: 2
Fore
SplineSet
191 295 m 4,0,1
 191 518 191 518 340.5 711.5 c 132,-1,2
 490 905 490 905 660 905 c 4,3,4
 777 905 777 905 830 784 c 5,5,6
 846 864 846 864 912 864 c 4,7,8
 967 864 967 864 967 811 c 4,9,10
 967 797 967 797 959 768 c 6,11,-1
 820 211 l 6,12,13
 806 154 806 154 806 106 c 4,14,15
 806 23 806 23 858 23 c 6,16,17
 858 23 858 23 859 23 c 4,18,19
 935 23 935 23 996 266 c 4,20,21
 1004 299 1004 299 1010.5 306 c 132,-1,22
 1017 313 1017 313 1035 313 c 4,23,24
 1066 313 1066 313 1066 293 c 4,25,26
 1066 289 1066 289 1058.5 257 c 132,-1,27
 1051 225 1051 225 1036 176 c 132,-1,28
 1021 127 1021 127 1004 92 c 4,29,30
 949 -23 949 -23 855 -23 c 4,31,32
 796 -23 796 -23 748.5 13 c 132,-1,33
 701 49 701 49 685 121 c 5,34,35
 568 -22 568 -22 439 -23 c 4,36,37
 326 -23 326 -23 258.5 68.5 c 132,-1,38
 191 160 191 160 191 295 c 4,0,1
330 205 m 4,39,40
 330 137 330 137 355 80 c 132,-1,41
 380 23 380 23 443 23 c 4,42,43
 519 23 519 23 602 108 c 132,-1,44
 685 193 685 193 699 254 c 6,45,-1
 795 641 l 6,46,47
 801 659 801 659 801 668 c 4,48,49
 801 740 801 740 762.5 800 c 132,-1,50
 724 860 724 860 660 860 c 4,51,52
 599 860 599 860 534.5 794.5 c 132,-1,53
 470 729 470 729 431 633 c 4,54,55
 400 561 400 561 365 419 c 132,-1,56
 330 277 330 277 330 205 c 4,39,40
EndSplineSet
Substitution2: "Single Substitution lookup 63 subtable" ordfeminine
Substitution2: "'ss06' Style Set 6 lookup 46 subtable" a.alternate
Substitution2: "'fwid' Full Widths lookup 32 subtable" uniFF41
Substitution2: "'smcp' Lowercase to Small Capitals lookup 27 subtable" a.sc
Substitution2: "'sinf' Scientific Inferiors lookup 14 subtable" uni2090
Substitution2: "'subs' Subscript lookup 13 subtable" uni2090
AlternateSubs2: "'aalt' Access All Alternates lookup 1 subtable" uni2090 ordfeminine a.sc uniFF41 a.alternate
EndChar

StartChar: b
Encoding: 98 98 27
Width: 1200
VWidth: 2048
GlyphClass: 2
InSpiro: 1
Flags: W
LayerCount: 2
Fore
SplineSet
272 289 m 0,0,1
 272 389 272 389 294 457 c 1,2,-1
 497 1266 l 1,3,4
 497 1266 497 1266 499 1282 c 0,5,6
 503 1296 503 1296 503 1300 c 0,7,8
 503 1312 503 1312 499 1318.5 c 128,-1,9
 495 1325 495 1325 471.5 1330 c 128,-1,10
 448 1335 448 1335 401 1335 c 0,11,12
 352 1335 352 1335 351 1358 c 0,13,14
 351 1376 351 1376 358.5 1385.5 c 128,-1,15
 366 1395 366 1395 374 1397 c 128,-1,16
 382 1399 382 1399 398 1401 c 2,17,-1
 601 1417 l 2,18,19
 613 1421 613 1421 634 1421 c 0,20,21
 663 1421 663 1421 663 1397 c 0,22,23
 663 1389 663 1389 657 1370 c 2,24,-1
 513 797 l 1,25,26
 627 905 627 905 728 905 c 0,27,28
 729 905 729 905 730 905 c 0,29,30
 830 905 830 905 903 822 c 128,-1,31
 976 739 976 739 976 586 c 0,32,33
 976 361 976 361 827.5 169 c 128,-1,34
 679 -23 679 -23 507 -23 c 0,35,36
 398 -23 398 -23 335 66.5 c 128,-1,37
 272 156 272 156 272 289 c 0,0,1
  Spiro
    272 289 o
    277.5 381 o
    294 457 v
    497 1266 v
    499 1282 [
    502 1293.5 o
    503 1300 o
    502 1310.62 o
    499 1318.5 o
    490.125 1324.62 o
    471.5 1330 o
    442.125 1333.75 o
    401 1335 o
    364 1340.75 o
    351 1358 o
    352.875 1373.88 o
    358.5 1385.5 o
    366.125 1393.12 o
    374 1397 o
    384 1399 o
    398 1401 [
    601 1417 ]
    615.25 1420 o
    634 1421 o
    655.75 1415 o
    663 1397 o
    661.5 1386.25 o
    657 1370 [
    513 797 v
    623.75 878 o
    728 905 o
    730 905 o
    823.25 884.25 o
    903 822 o
    957.75 721.5 o
    976 586 o
    938.875 369.25 o
    827.5 169 o
    673.125 25 o
    507 -23 o
    409.5 -0.625 o
    335 66.5 o
    287.75 166.875 o
    0 0 z
  EndSpiro
388 219 m 0,38,39
 388 115 388 115 424 69 c 128,-1,40
 460 23 460 23 507 23 c 0,41,42
 575 23 575 23 634 88.5 c 128,-1,43
 693 154 693 154 724 217 c 0,44,45
 767 311 767 311 803 460.5 c 128,-1,46
 839 610 839 610 839 677.5 c 128,-1,47
 839 745 839 745 813.5 802.5 c 128,-1,48
 788 860 788 860 726 860 c 0,49,50
 622 860 622 860 511 709 c 0,51,52
 482 670 482 670 466 614 c 0,53,54
 388 309 388 309 388 219 c 0,38,39
  Spiro
    388 219 o
    397 129.5 o
    424 69 o
    462.75 34.5 o
    507 23 o
    572.75 39.375 o
    634 88.5 o
    686 153.375 o
    724 217 o
    765.25 324.875 o
    803 460.5 o
    830 589.5 o
    839 677.5 o
    832.625 742.5 o
    813.5 802.5 o
    778.875 845.625 o
    726 860 o
    620.25 822.25 o
    511 709 o
    485.25 665.75 o
    466 614 o
    407.5 362.75 o
    0 0 z
  EndSpiro
EndSplineSet
Substitution2: "'fwid' Full Widths lookup 32 subtable" uniFF42
Substitution2: "'smcp' Lowercase to Small Capitals lookup 27 subtable" b.sc
AlternateSubs2: "'aalt' Access All Alternates lookup 1 subtable" b.sc uniFF42
EndChar

StartChar: c
Encoding: 99 99 28
Width: 1200
VWidth: 2048
GlyphClass: 2
InSpiro: 1
Flags: W
LayerCount: 2
Fore
SplineSet
225 315 m 0,0,1
 225 538 225 538 388 721.5 c 128,-1,2
 551 905 551 905 743 905 c 0,3,4
 839 905 839 905 901 855 c 128,-1,5
 963 805 963 805 963 729 c 0,6,7
 963 674 963 674 932 640 c 128,-1,8
 901 606 901 606 858 606 c 0,9,10
 825 606 825 606 806.5 625.5 c 128,-1,11
 788 645 788 645 788 672 c 0,12,13
 788 676 788 676 789.5 683 c 128,-1,14
 791 690 791 690 796 705.5 c 128,-1,15
 801 721 801 721 810 733 c 128,-1,16
 819 745 819 745 840.5 756.5 c 128,-1,17
 862 768 862 768 891 772 c 1,18,19
 858 860 858 860 745 860 c 0,20,21
 673 860 673 860 601.5 807 c 128,-1,22
 530 754 530 754 477 655 c 0,23,24
 438 581 438 581 403.5 448 c 128,-1,25
 369 315 369 315 369 233 c 0,26,27
 369 139 369 139 410 81 c 128,-1,28
 451 23 451 23 530 23 c 0,29,30
 565 23 565 23 609 30 c 128,-1,31
 653 37 653 37 742 87 c 128,-1,32
 831 137 831 137 899 223 c 0,33,34
 917 246 917 246 926 246 c 0,35,36
 938 246 938 246 948 233.5 c 128,-1,37
 958 221 958 221 958 213 c 0,38,39
 958 193 958 193 908 139.5 c 128,-1,40
 858 86 858 86 751.5 31.5 c 128,-1,41
 645 -23 645 -23 526 -23 c 0,42,43
 391 -23 391 -23 308 70 c 128,-1,44
 225 163 225 163 225 315 c 0,0,1
EndSplineSet
Substitution2: "'fwid' Full Widths lookup 32 subtable" uniFF43
Substitution2: "'smcp' Lowercase to Small Capitals lookup 27 subtable" c.sc
AlternateSubs2: "'aalt' Access All Alternates lookup 1 subtable" c.sc uniFF43
EndChar

StartChar: d
Encoding: 100 100 29
Width: 1200
VWidth: 2048
GlyphClass: 2
Flags: W
LayerCount: 2
Fore
SplineSet
156 295 m 4,0,1
 156 518 156 518 305.5 711.5 c 132,-1,2
 455 905 455 905 625 905 c 4,3,4
 740 905 740 905 797 786 c 5,5,-1
 916 1266 l 5,6,-1
 918 1282 l 6,7,8
 922 1296 922 1296 922 1300 c 4,9,10
 922 1312 922 1312 918 1318.5 c 132,-1,11
 914 1325 914 1325 890.5 1330 c 132,-1,12
 867 1335 867 1335 820 1335 c 4,13,14
 771 1335 771 1335 771 1358 c 4,15,16
 771 1376 771 1376 778 1385.5 c 132,-1,17
 785 1395 785 1395 793 1397 c 132,-1,18
 801 1399 801 1399 818 1401 c 6,19,-1
 1020 1417 l 6,20,21
 1032 1421 1032 1421 1053 1421 c 4,22,23
 1082 1421 1082 1421 1082 1397 c 4,24,25
 1082 1389 1082 1389 1076 1370 c 6,26,-1
 783 201 l 6,27,28
 771 152 771 152 771 106 c 4,29,30
 771 23 771 23 823 23 c 6,31,32
 823 23 823 23 824 23 c 4,33,34
 900 23 900 23 961 266 c 4,35,36
 969 299 969 299 975.5 306 c 132,-1,37
 982 313 982 313 1000 313 c 4,38,39
 1031 313 1031 313 1031 293 c 4,40,41
 1031 289 1031 289 1023.5 257 c 132,-1,42
 1016 225 1016 225 1001 176 c 132,-1,43
 986 127 986 127 969 92 c 4,44,45
 914 -23 914 -23 820 -23 c 4,46,47
 761 -23 761 -23 713.5 13 c 132,-1,48
 666 49 666 49 650 121 c 5,49,50
 533 -22 533 -22 404 -23 c 4,51,52
 291 -23 291 -23 223.5 68.5 c 132,-1,53
 156 160 156 160 156 295 c 4,0,1
295 205 m 4,54,55
 295 137 295 137 320 80 c 132,-1,56
 345 23 345 23 408 23 c 4,57,58
 484 23 484 23 566 106.5 c 132,-1,59
 648 190 648 190 662 250 c 6,60,-1
 760 643 l 6,61,62
 766 661 766 661 766 670 c 4,63,64
 766 736 766 736 726 801 c 4,65,66
 687 860 687 860 625.5 860 c 132,-1,67
 564 860 564 860 499.5 794.5 c 132,-1,68
 435 729 435 729 396 633 c 4,69,70
 365 561 365 561 330 419 c 132,-1,71
 295 277 295 277 295 205 c 4,54,55
EndSplineSet
Substitution2: "'fwid' Full Widths lookup 32 subtable" uniFF44
Substitution2: "'smcp' Lowercase to Small Capitals lookup 27 subtable" d.sc
AlternateSubs2: "'aalt' Access All Alternates lookup 1 subtable" d.sc uniFF44
EndChar

StartChar: e
Encoding: 101 101 30
Width: 1200
VWidth: 2048
GlyphClass: 2
Flags: W
LayerCount: 2
Fore
SplineSet
233 336 m 4,0,1
 233 588 233 588 397 746.5 c 132,-1,2
 561 905 561 905 741 905 c 4,3,4
 835 905 835 905 891.5 855 c 132,-1,5
 948 805 948 805 948 731 c 4,6,7
 948 721 948 721 947 709.5 c 132,-1,8
 946 698 946 698 938 669.5 c 132,-1,9
 930 641 930 641 914.5 616.5 c 132,-1,10
 899 592 899 592 865 564.5 c 132,-1,11
 831 537 831 537 786 518 c 4,12,13
 671 473 671 473 489 473 c 6,14,-1
 410 473 l 5,15,16
 375 338 375 338 375 248 c 4,17,18
 375 197 375 197 385 151.5 c 132,-1,19
 395 106 395 106 432 64.5 c 132,-1,20
 469 23 469 23 530 23 c 4,21,22
 565 23 565 23 609 30 c 132,-1,23
 653 37 653 37 742 87 c 132,-1,24
 831 137 831 137 899 223 c 4,25,26
 917 246 917 246 926 246 c 4,27,28
 938 246 938 246 948 233.5 c 132,-1,29
 958 221 958 221 958 213 c 4,30,31
 958 193 958 193 908 139.5 c 132,-1,32
 858 86 858 86 751.5 31.5 c 132,-1,33
 645 -23 645 -23 526 -23 c 4,34,35
 387 -23 387 -23 310 83 c 132,-1,36
 233 189 233 189 233 336 c 4,0,1
422 518 m 5,37,-1
 465 518 l 6,38,39
 496 518 496 518 520.5 519 c 132,-1,40
 545 520 545 520 599 525 c 132,-1,41
 653 530 653 530 694 544.5 c 132,-1,42
 735 559 735 559 779 581.5 c 132,-1,43
 823 604 823 604 846.5 644 c 132,-1,44
 870 684 870 684 870 735 c 4,45,46
 870 788 870 788 835.5 824 c 132,-1,47
 801 860 801 860 741 860 c 4,48,49
 727 860 727 860 708.5 857 c 132,-1,50
 690 854 690 854 646 835.5 c 132,-1,51
 602 817 602 817 565 784.5 c 132,-1,52
 528 752 528 752 487.5 682 c 132,-1,53
 447 612 447 612 422 518 c 5,37,-1
EndSplineSet
Substitution2: "'fwid' Full Widths lookup 32 subtable" uniFF45
Substitution2: "'smcp' Lowercase to Small Capitals lookup 27 subtable" e.sc
Substitution2: "'sinf' Scientific Inferiors lookup 14 subtable" uni2091
Substitution2: "'subs' Subscript lookup 13 subtable" uni2091
AlternateSubs2: "'aalt' Access All Alternates lookup 1 subtable" uni2091 e.sc uniFF45
EndChar

StartChar: f
Encoding: 102 102 31
Width: 1200
VWidth: 2048
GlyphClass: 2
Flags: W
LayerCount: 2
Fore
SplineSet
110 -285 m 0,0,1
 110 -234 110 -234 140.5 -203 c 128,-1,2
 171 -172 171 -172 212 -172 c 0,3,4
 239 -172 239 -172 260.5 -189.5 c 128,-1,5
 282 -207 282 -207 282 -238 c 0,6,7
 282 -273 282 -273 258.5 -301.5 c 128,-1,8
 235 -330 235 -330 192 -338 c 1,9,10
 219 -375 219 -375 274 -375 c 0,11,12
 350 -375 350 -375 390 -199 c 1,13,14
 415 -111 415 -111 448 55 c 2,15,-1
 597 819 l 1,16,-1
 470 819 l 2,17,18
 419 819 419 819 419 842 c 0,19,20
 419 871 419 871 431.5 877 c 128,-1,21
 444 883 444 883 474 883 c 2,22,-1
 610 883 l 1,23,-1
 653 1108 l 1,24,25
 723 1444 723 1444 919 1444 c 0,26,27
 987 1444 987 1444 1037 1408 c 128,-1,28
 1087 1372 1087 1372 1087 1309 c 0,29,30
 1087 1258 1087 1258 1056 1227 c 128,-1,31
 1025 1196 1025 1196 984 1196 c 0,32,33
 957 1196 957 1196 936 1213.5 c 128,-1,34
 915 1231 915 1231 915 1262 c 0,35,36
 915 1297 915 1297 938.5 1325.5 c 128,-1,37
 962 1354 962 1354 1005 1362 c 1,38,39
 974 1399 974 1399 919 1399 c 0,40,41
 884 1399 884 1399 859.5 1364 c 128,-1,42
 835 1329 835 1329 826.5 1299.5 c 128,-1,43
 818 1270 818 1270 806 1214 c 0,44,45
 781 1103 781 1103 741 883 c 1,46,-1
 900 883 l 2,47,48
 920 883 920 883 929.5 882 c 128,-1,49
 939 881 939 881 945.5 874.5 c 128,-1,50
 952 868 952 868 952 856 c 0,51,52
 952 831 952 831 939.5 825 c 128,-1,53
 927 819 927 819 896 819 c 2,54,-1
 728 819 l 1,55,-1
 585 84 l 2,56,57
 573 25 573 25 557.5 -31.5 c 128,-1,58
 542 -88 542 -88 505 -190.5 c 128,-1,59
 468 -293 468 -293 407.5 -356.5 c 128,-1,60
 347 -420 347 -420 274 -420 c 0,61,62
 211 -420 211 -420 160.5 -384 c 128,-1,63
 110 -348 110 -348 110 -285 c 0,0,1
EndSplineSet
Substitution2: "Single Substitution lookup 73 subtable" f.alternate
Substitution2: "'fwid' Full Widths lookup 32 subtable" uniFF46
Substitution2: "'smcp' Lowercase to Small Capitals lookup 27 subtable" f.sc
AlternateSubs2: "'aalt' Access All Alternates lookup 1 subtable" f.sc uniFF46 f.alternate
EndChar

StartChar: g
Encoding: 103 103 32
Width: 1200
VWidth: 2048
GlyphClass: 2
Flags: W
LayerCount: 2
Fore
SplineSet
167 -301 m 4,0,1
 167 -248 167 -248 199.5 -220.5 c 132,-1,2
 232 -193 232 -193 267 -193 c 4,3,4
 304 -193 304 -193 321.5 -213 c 132,-1,5
 339 -233 339 -233 339 -258 c 4,6,7
 339 -285 339 -285 320.5 -312.5 c 132,-1,8
 302 -340 302 -340 273 -352 c 5,9,10
 328 -375 328 -375 418 -375 c 4,11,12
 531 -375 531 -375 613 -279 c 4,13,14
 654 -230 654 -230 670.5 -188.5 c 132,-1,15
 687 -147 687 -147 707 -63 c 6,16,-1
 750 109 l 5,17,18
 641 0 641 0 533 0 c 4,19,20
 420 0 420 0 351.5 90 c 132,-1,21
 283 180 283 180 283 313 c 4,22,23
 283 530 283 530 429.5 717.5 c 132,-1,24
 576 905 576 905 748 905 c 4,25,26
 863 905 863 905 920 788 c 5,27,28
 926 827 926 827 951 845.5 c 132,-1,29
 976 864 976 864 1000 864 c 4,30,31
 1055 864 1055 864 1055 811 c 4,32,33
 1055 799 1055 799 1047 768 c 6,34,-1
 824 -129 l 6,35,36
 793 -252 793 -252 681.5 -336 c 132,-1,37
 570 -420 570 -420 414 -420 c 4,38,39
 167 -420 167 -420 167 -301 c 4,0,1
423 223 m 4,40,41
 423 205 423 205 426 184.5 c 132,-1,42
 429 164 429 164 438 128 c 132,-1,43
 447 92 447 92 472.5 68.5 c 132,-1,44
 498 45 498 45 537 45 c 4,45,46
 613 45 613 45 695 128 c 132,-1,47
 777 211 777 211 791 270 c 6,48,-1
 883 643 l 5,49,-1
 889 672 l 6,50,51
 889 684 889 684 884 709.5 c 132,-1,52
 879 735 879 735 866 771 c 132,-1,53
 853 807 853 807 822 833.5 c 132,-1,54
 791 860 791 860 748 860 c 4,55,56
 691 860 691 860 628.5 801.5 c 132,-1,57
 566 743 566 743 527 657 c 4,58,59
 494 581 494 581 458.5 438 c 132,-1,60
 423 295 423 295 423 223 c 4,40,41
EndSplineSet
Substitution2: "'ss01' Style Set 1 lookup 41 subtable" g.alt
Substitution2: "'fwid' Full Widths lookup 32 subtable" uniFF47
Substitution2: "'smcp' Lowercase to Small Capitals lookup 27 subtable" g.sc
AlternateSubs2: "'aalt' Access All Alternates lookup 1 subtable" g.sc uniFF47 g.alt
EndChar

StartChar: h
Encoding: 104 104 33
Width: 1200
VWidth: 2048
GlyphClass: 2
Flags: W
LayerCount: 2
Fore
SplineSet
152 31 m 0,0,1
 152 49 152 49 156 57 c 2,2,-1
 459 1266 l 1,3,4
 459 1266 459 1266 461 1282 c 0,5,6
 465 1296 465 1296 465 1300 c 0,7,8
 465 1312 465 1312 461 1318.5 c 128,-1,9
 457 1325 457 1325 433.5 1330 c 128,-1,10
 410 1335 410 1335 363 1335 c 0,11,12
 314 1335 314 1335 313 1358 c 0,13,14
 313 1376 313 1376 320.5 1385.5 c 128,-1,15
 328 1395 328 1395 336 1397 c 128,-1,16
 344 1399 344 1399 360 1401 c 2,17,-1
 563 1417 l 2,18,19
 575 1421 575 1421 596 1421 c 0,20,21
 625 1421 625 1421 625 1397 c 0,22,23
 625 1389 625 1389 619 1370 c 2,24,-1
 469 772 l 1,25,26
 514 815 514 815 539.5 836.5 c 128,-1,27
 565 858 565 858 621.5 881.5 c 128,-1,28
 678 905 678 905 741 905 c 0,29,30
 831 905 831 905 892.5 856 c 128,-1,31
 954 807 954 807 954 692 c 0,32,33
 954 567 954 567 829 236 c 1,34,35
 792 125 792 125 793 82 c 0,36,37
 793 23 793 23 838 23 c 0,38,39
 953 23 953 23 1028 279 c 0,40,41
 1034 304 1034 304 1039.5 308.5 c 128,-1,42
 1045 313 1045 313 1063 313 c 0,43,44
 1094 313 1094 313 1094 293 c 0,45,46
 1094 287 1094 287 1085.5 256 c 128,-1,47
 1077 225 1077 225 1056.5 177 c 128,-1,48
 1036 129 1036 129 1007.5 85 c 128,-1,49
 979 41 979 41 933 9 c 128,-1,50
 887 -23 887 -23 834 -23 c 0,51,52
 762 -23 762 -23 720 24.5 c 128,-1,53
 678 72 678 72 678 141 c 0,54,55
 678 186 678 186 711 272 c 0,56,57
 830 612 830 612 829 725 c 0,58,59
 829 860 829 860 735 860 c 0,60,61
 583 860 583 860 463 666 c 0,62,63
 424 596 424 596 406 522 c 0,64,65
 400 499 400 499 389.5 455.5 c 128,-1,66
 379 412 379 412 373 389 c 0,67,68
 369 371 369 371 347.5 284 c 128,-1,69
 326 197 326 197 307.5 123 c 128,-1,70
 289 49 289 49 285 35 c 0,71,72
 279 15 279 15 258.5 -4 c 128,-1,73
 238 -23 238 -23 209 -23 c 0,74,75
 182 -23 182 -23 167 -6 c 128,-1,76
 152 11 152 11 152 31 c 0,0,1
EndSplineSet
Substitution2: "'fwid' Full Widths lookup 32 subtable" uniFF48
Substitution2: "'smcp' Lowercase to Small Capitals lookup 27 subtable" h.sc
Substitution2: "'sinf' Scientific Inferiors lookup 14 subtable" uni2095
Substitution2: "'subs' Subscript lookup 13 subtable" uni2095
AlternateSubs2: "'aalt' Access All Alternates lookup 1 subtable" uni2095 h.sc uniFF48
EndChar

StartChar: i
Encoding: 105 105 34
Width: 1200
VWidth: 2048
GlyphClass: 2
Flags: W
LayerCount: 2
Fore
SplineSet
334 590 m 4,0,1
 334 596 334 596 342 626.5 c 132,-1,2
 350 657 350 657 370.5 705.5 c 132,-1,3
 391 754 391 754 420 798 c 132,-1,4
 449 842 449 842 496 873.5 c 132,-1,5
 543 905 543 905 596 905 c 4,6,7
 659 905 659 905 704.5 863 c 132,-1,8
 750 821 750 821 750 741 c 4,9,10
 750 698 750 698 725 627 c 6,11,-1
 594 276 l 6,12,13
 541 124 541 124 541 80 c 4,14,15
 541 23 541 23 586 23 c 4,16,17
 707 23 707 23 776 279 c 4,18,19
 782 304 782 304 787.5 308.5 c 132,-1,20
 793 313 793 313 811 313 c 4,21,22
 842 313 842 313 842 293 c 4,23,24
 842 287 842 287 834 257 c 132,-1,25
 826 227 826 227 805.5 179 c 132,-1,26
 785 131 785 131 757 86 c 132,-1,27
 729 41 729 41 682 9 c 132,-1,28
 635 -23 635 -23 582 -23 c 4,29,30
 506 -23 506 -23 466 26.5 c 132,-1,31
 426 76 426 76 426 141 c 4,32,33
 426 182 426 182 463 283 c 4,34,35
 512 418 512 418 539 485 c 6,36,-1
 600 655 l 6,37,38
 637 755 637 755 637 803 c 4,39,40
 637 860 637 860 592 860 c 4,41,42
 471 860 471 860 402 602 c 4,43,44
 396 579 396 579 389.5 574 c 132,-1,45
 383 569 383 569 365 569 c 4,46,47
 334 570 334 570 334 590 c 4,0,1
664 1245 m 4,48,49
 664 1286 664 1286 695.5 1314.5 c 132,-1,50
 727 1343 727 1343 762 1343 c 4,51,52
 789 1343 789 1343 810.5 1327 c 132,-1,53
 832 1311 832 1311 832 1276 c 4,54,55
 832 1235 832 1235 800 1206.5 c 132,-1,56
 768 1178 768 1178 733 1178 c 4,57,58
 706 1178 706 1178 685 1194 c 132,-1,59
 664 1210 664 1210 664 1245 c 4,48,49
EndSplineSet
Substitution2: "Single Substitution lookup 61 subtable" dotlessi
Substitution2: "'fwid' Full Widths lookup 32 subtable" uniFF49
Substitution2: "'smcp' Lowercase to Small Capitals lookup 27 subtable" i.sc
Substitution2: "'locl' Localized Forms in Latin lookup 7 per glyph data 4" i.loclTRK
Substitution2: "'locl' Localized Forms in Latin lookup 7 per glyph data 3" i.loclTRK
Substitution2: "'locl' Localized Forms in Latin lookup 7 per glyph data 2" i.loclTRK
Substitution2: "'locl' Localized Forms in Latin lookup 7 per glyph data 1" i.loclTRK
Substitution2: "'locl' Localized Forms in Latin lookup 7 per glyph data 0" i.loclTRK
AlternateSubs2: "'aalt' Access All Alternates lookup 1 subtable" i.loclTRK i.sc uniFF49
EndChar

StartChar: j
Encoding: 106 106 35
Width: 1200
VWidth: 2048
GlyphClass: 2
Flags: W
LayerCount: 2
Fore
SplineSet
174 -301 m 4,0,1
 174 -248 174 -248 207 -220.5 c 132,-1,2
 240 -193 240 -193 275 -193 c 4,3,4
 312 -193 312 -193 329 -213 c 132,-1,5
 346 -233 346 -233 346 -258 c 4,6,7
 346 -268 346 -268 342 -283.5 c 132,-1,8
 338 -299 338 -299 319.5 -322.5 c 132,-1,9
 301 -346 301 -346 269 -356 c 5,10,11
 306 -374 306 -374 338 -375 c 4,12,13
 424 -375 424 -375 485.5 -291 c 132,-1,14
 547 -207 547 -207 572 -106 c 6,15,-1
 766 674 l 6,16,17
 780 731 780 731 781 778 c 4,18,19
 781 860 781 860 725 860 c 4,20,21
 588 860 588 860 486 604 c 4,22,23
 480 586 480 586 475.5 579.5 c 132,-1,24
 471 573 471 573 466 571 c 132,-1,25
 461 569 461 569 447 569 c 4,26,27
 416 569 416 569 416 590 c 4,28,29
 416 596 416 596 428.5 627.5 c 132,-1,30
 441 659 441 659 467.5 706.5 c 132,-1,31
 494 754 494 754 529.5 798 c 132,-1,32
 565 842 565 842 617.5 873.5 c 132,-1,33
 670 905 670 905 727 905 c 4,34,35
 809 905 809 905 856 851 c 132,-1,36
 903 797 903 797 903 721 c 4,37,38
 903 684 903 684 893 653 c 6,39,-1
 703 -113 l 6,40,41
 670 -242 670 -242 564.5 -331 c 132,-1,42
 459 -420 459 -420 340 -420 c 4,43,44
 270 -420 270 -420 222 -388 c 132,-1,45
 174 -356 174 -356 174 -301 c 4,0,1
807 1245 m 4,46,47
 807 1282 807 1282 838 1312.5 c 132,-1,48
 869 1343 869 1343 908 1343 c 4,49,50
 933 1343 933 1343 955 1328 c 132,-1,51
 977 1313 977 1313 977 1274 c 4,52,53
 977 1237 977 1237 945.5 1207.5 c 132,-1,54
 914 1178 914 1178 877 1178 c 4,55,56
 844 1178 844 1178 825.5 1199 c 132,-1,57
 807 1220 807 1220 807 1245 c 4,46,47
EndSplineSet
Substitution2: "Single Substitution lookup 61 subtable" uni0237
Substitution2: "'ss03' Style Set 3 lookup 43 subtable" j.alt
Substitution2: "'fwid' Full Widths lookup 32 subtable" uniFF4A
Substitution2: "'smcp' Lowercase to Small Capitals lookup 27 subtable" j.sc
AlternateSubs2: "'aalt' Access All Alternates lookup 1 subtable" j.sc uniFF4A j.alt
EndChar

StartChar: k
Encoding: 107 107 36
Width: 1200
VWidth: 2048
GlyphClass: 2
Flags: W
LayerCount: 2
Fore
SplineSet
170 31 m 4,0,1
 170 49 170 49 174 57 c 6,2,-1
 477 1266 l 5,3,4
 477 1266 477 1266 479 1282 c 4,5,6
 483 1296 483 1296 483 1300 c 4,7,8
 483 1312 483 1312 479 1318.5 c 132,-1,9
 475 1325 475 1325 451.5 1330 c 132,-1,10
 428 1335 428 1335 381 1335 c 4,11,12
 332 1335 332 1335 331 1358 c 4,13,14
 331 1376 331 1376 338.5 1385.5 c 132,-1,15
 346 1395 346 1395 354 1397 c 132,-1,16
 362 1399 362 1399 378 1401 c 6,17,-1
 581 1417 l 6,18,19
 593 1421 593 1421 614 1421 c 4,20,21
 643 1421 643 1421 643 1397 c 4,22,23
 643 1389 643 1389 637 1370 c 6,24,-1
 428 535 l 5,25,26
 481 560 481 560 520 596.5 c 132,-1,27
 559 633 559 633 649 737 c 4,28,29
 792 905 792 905 915 905 c 4,30,31
 978 905 978 905 1011 867 c 132,-1,32
 1044 829 1044 829 1044 782 c 4,33,34
 1044 729 1044 729 1012.5 698.5 c 132,-1,35
 981 668 981 668 942 668 c 4,36,37
 905 668 905 668 887.5 688.5 c 132,-1,38
 870 709 870 709 870 733 c 4,39,40
 870 747 870 747 875 764.5 c 132,-1,41
 880 782 880 782 903.5 805.5 c 132,-1,42
 927 829 927 829 966 836 c 5,43,44
 941 861 941 861 911 860 c 4,45,46
 862 860 862 860 809.5 826.5 c 132,-1,47
 757 793 757 793 725.5 760 c 132,-1,48
 694 727 694 727 622 645 c 4,49,50
 536 547 536 547 477 510 c 5,51,52
 749 471 749 471 749 297 c 4,53,54
 749 268 749 268 739 225 c 4,55,56
 723 143 723 143 723 111 c 4,57,58
 723 23 723 23 782 23 c 4,59,60
 815 23 815 23 840.5 44.5 c 132,-1,61
 866 66 866 66 884.5 108 c 132,-1,62
 903 150 903 150 914 182.5 c 132,-1,63
 925 215 925 215 938 266 c 4,64,65
 946 299 946 299 952 306 c 132,-1,66
 958 313 958 313 977 313 c 4,67,68
 1008 313 1008 313 1007 293 c 4,69,70
 1007 287 1007 287 999 254 c 132,-1,71
 991 221 991 221 972.5 170 c 132,-1,72
 954 119 954 119 934 84 c 4,73,74
 873 -22 873 -22 776 -23 c 4,75,76
 708 -23 708 -23 656 26.5 c 132,-1,77
 604 76 604 76 604 176 c 4,78,79
 604 211 604 211 612 246 c 4,80,81
 618 275 618 275 618 297 c 4,82,83
 618 352 618 352 580 391 c 132,-1,84
 542 430 542 430 500 446.5 c 132,-1,85
 458 463 458 463 411 469 c 5,86,-1
 307 53 l 6,87,88
 291 -23 291 -23 227 -23 c 4,89,90
 200 -23 200 -23 185 -6 c 132,-1,91
 170 11 170 11 170 31 c 4,0,1
EndSplineSet
Substitution2: "'fwid' Full Widths lookup 32 subtable" uniFF4B
Substitution2: "'smcp' Lowercase to Small Capitals lookup 27 subtable" k.sc
Substitution2: "'sinf' Scientific Inferiors lookup 14 subtable" uni2096
Substitution2: "'subs' Subscript lookup 13 subtable" uni2096
AlternateSubs2: "'aalt' Access All Alternates lookup 1 subtable" uni2096 k.sc uniFF4B
EndChar

StartChar: l
Encoding: 108 108 37
Width: 1200
VWidth: 2048
GlyphClass: 2
Flags: W
LayerCount: 2
Fore
SplineSet
373 162 m 4,0,1
 373 193 373 193 385 242 c 6,2,-1
 641 1266 l 5,3,4
 641 1266 641 1266 643 1282 c 4,5,6
 647 1296 647 1296 647 1300 c 4,7,8
 647 1312 647 1312 643 1318.5 c 132,-1,9
 639 1325 639 1325 615.5 1330 c 132,-1,10
 592 1335 592 1335 545 1335 c 4,11,12
 496 1335 496 1335 495 1358 c 4,13,14
 495 1376 495 1376 502.5 1385.5 c 132,-1,15
 510 1395 510 1395 518 1397 c 132,-1,16
 526 1399 526 1399 542 1401 c 6,17,-1
 745 1417 l 6,18,19
 757 1421 757 1421 778 1421 c 4,20,21
 807 1421 807 1421 807 1397 c 4,22,23
 807 1389 807 1389 801 1370 c 6,24,-1
 508 201 l 6,25,26
 496 152 496 152 495 106 c 4,27,28
 495 23 495 23 548 23 c 6,29,30
 548 23 548 23 549 23 c 4,31,32
 625 23 625 23 680 252 c 5,33,-1
 694 303 l 6,34,35
 700 313 700 313 723 313 c 4,36,37
 754 313 754 313 753 293 c 4,38,39
 753 289 753 289 745 254 c 132,-1,40
 737 219 737 219 721.5 168 c 132,-1,41
 706 117 706 117 690 84 c 4,42,43
 635 -22 635 -22 545 -23 c 4,44,45
 471 -23 471 -23 422 29.5 c 132,-1,46
 373 82 373 82 373 162 c 4,0,1
EndSplineSet
Substitution2: "'fwid' Full Widths lookup 32 subtable" uniFF4C
Substitution2: "'smcp' Lowercase to Small Capitals lookup 27 subtable" l.sc
Substitution2: "'sinf' Scientific Inferiors lookup 14 subtable" uni2097
Substitution2: "'subs' Subscript lookup 13 subtable" uni2097
AlternateSubs2: "'aalt' Access All Alternates lookup 1 subtable" uni2097 l.sc uniFF4C
EndChar

StartChar: m
Encoding: 109 109 38
Width: 1200
VWidth: 2048
GlyphClass: 2
Flags: W
LayerCount: 2
Fore
SplineSet
12 590 m 0,0,1
 12 594 12 594 20 625.5 c 128,-1,2
 28 657 28 657 44.5 708.5 c 0,3,4
 64 769 64 769 78 797 c 0,5,6
 132 905 132 905 223 905 c 0,7,8
 224 905 224 905 225 905 c 0,9,10
 293 905 293 905 340 861 c 128,-1,11
 387 817 387 817 397 743 c 1,12,13
 516 905 516 905 604 905 c 0,14,15
 686 905 686 905 726.5 863 c 128,-1,16
 767 821 767 821 777 725 c 1,17,18
 894 896 894 896 940 896 c 0,19,20
 1033 896 1033 896 1054 882 c 0,21,22
 1118 837 1118 837 1118 692 c 0,23,24
 1118 567 1118 567 993 236 c 1,25,26
 962 143 962 143 962 84 c 4,27,28
 962 58 962 58 997 58 c 0,29,30
 1057 58 1057 58 1123 279 c 0,31,32
 1131 306 1131 306 1134 308.5 c 0,33,34
 1139 313 1139 313 1158 313 c 0,35,36
 1188 313 1188 313 1188 294 c 0,37,38
 1188 287 1188 287 1180 256 c 128,-1,39
 1172 225 1172 225 1151.5 177 c 128,-1,40
 1131 129 1131 129 1113.5 85.5 c 128,-1,41
 1096 42 1096 42 1050 10 c 0,42,43
 1003 -23 1003 -23 974 -23 c 0,44,45
 902 -23 902 -23 872 24.5 c 128,-1,46
 842 72 842 72 842 141 c 0,47,48
 842 182 842 182 874 272 c 0,49,50
 993 608 993 608 993 725 c 0,51,52
 993 836 993 836 945 836 c 0,53,54
 908 836 908 836 791 639 c 0,55,56
 768 600 768 600 740 492 c 0,57,58
 734 469 734 469 723.5 425 c 0,59,60
 721 415 721 415 707 358 c 2,61,-1
 625 31 l 1,62,63
 605 -22 605 -22 552 -23 c 0,64,65
 523 -23 523 -23 508.5 -6.5 c 128,-1,66
 494 10 494 10 494 31 c 0,67,68
 494 35.1343283582 494 35.1343283582 500 59 c 2,69,-1
 634 592 l 2,70,71
 652 664 652 664 652 725 c 0,72,73
 652 860 652 860 600 860 c 0,74,75
 528 860 528 860 397 639 c 0,76,77
 371 595 371 595 346 492 c 0,78,79
 330 428 330 428 329.5 425 c 0,80,81
 317 381 317 381 313 358 c 2,82,-1
 231 31 l 1,83,84
 211 -22 211 -22 157 -23 c 0,85,86
 128 -23 128 -23 114 -6.5 c 128,-1,87
 100 10 100 10 100 31 c 0,88,89
 100 35.038961039 100 35.038961039 106 59 c 2,90,-1
 260 674 l 2,91,92
 274 730 274 730 274 778 c 0,93,94
 274 860 274 860 221 860 c 0,95,96
 176 860 176 860 144 798.5 c 128,-1,97
 112 737 112 737 82 616 c 0,98,99
 74 583 74 583 68 576 c 128,-1,100
 62 569 62 569 43 569 c 0,101,102
 12 570 12 570 12 590 c 0,0,1
EndSplineSet
Substitution2: "'fwid' Full Widths lookup 32 subtable" uniFF4D
Substitution2: "'smcp' Lowercase to Small Capitals lookup 27 subtable" m.sc
Substitution2: "'sinf' Scientific Inferiors lookup 14 subtable" uni2098
Substitution2: "'subs' Subscript lookup 13 subtable" uni2098
AlternateSubs2: "'aalt' Access All Alternates lookup 1 subtable" uni2098 m.sc uniFF4D
EndChar

StartChar: n
Encoding: 110 110 39
Width: 1200
VWidth: 2048
GlyphClass: 2
Flags: W
LayerCount: 2
Fore
SplineSet
84 590 m 0,0,1
 84 594 84 594 92 625.5 c 128,-1,2
 100 657 100 657 116.5 708.5 c 128,-1,3
 133 760 133 760 150 797 c 0,4,5
 206 905 206 905 295 905 c 0,6,7
 296 905 296 905 297 905 c 0,8,9
 365 905 365 905 412 861 c 128,-1,10
 459 817 459 817 469 743 c 1,11,12
 489 774 489 774 519 805 c 128,-1,13
 549 836 549 836 617.5 870.5 c 128,-1,14
 686 905 686 905 762 905 c 0,15,16
 852 905 852 905 913.5 856 c 128,-1,17
 975 807 975 807 975 692 c 0,18,19
 975 567 975 567 850 236 c 1,20,21
 813 125 813 125 813 82 c 0,22,23
 813 23 813 23 858 23 c 0,24,25
 973 23 973 23 1049 279 c 0,26,27
 1055 304 1055 304 1060 308.5 c 128,-1,28
 1065 313 1065 313 1083 313 c 0,29,30
 1114 313 1114 313 1114 293 c 0,31,32
 1114 287 1114 287 1106 256 c 128,-1,33
 1098 225 1098 225 1077.5 177 c 128,-1,34
 1057 129 1057 129 1028 85 c 128,-1,35
 999 41 999 41 953 9 c 128,-1,36
 907 -23 907 -23 854 -23 c 0,37,38
 782 -23 782 -23 740 24.5 c 128,-1,39
 698 72 698 72 698 141 c 0,40,41
 698 186 698 186 731 272 c 0,42,43
 850 612 850 612 850 725 c 0,44,45
 850 860 850 860 756 860 c 0,46,47
 598 860 598 860 479 657 c 0,48,49
 444 600 444 600 418 492 c 0,50,51
 414 469 414 469 401.5 425 c 128,-1,52
 389 381 389 381 385 358 c 2,53,-1
 303 31 l 1,54,55
 283 -22 283 -22 229 -23 c 0,56,57
 200 -23 200 -23 186 -6.5 c 128,-1,58
 172 10 172 10 172 31 c 0,59,60
 172 41 172 41 178 59 c 2,61,-1
 332 674 l 2,62,63
 346 731 346 731 346 778 c 0,64,65
 346 860 346 860 293 860 c 0,66,67
 248 860 248 860 216 798.5 c 128,-1,68
 184 737 184 737 154 616 c 0,69,70
 146 583 146 583 140 576 c 128,-1,71
 134 569 134 569 115 569 c 0,72,73
 84 570 84 570 84 590 c 0,0,1
EndSplineSet
Substitution2: "'fwid' Full Widths lookup 32 subtable" uniFF4E
Substitution2: "'smcp' Lowercase to Small Capitals lookup 27 subtable" n.sc
Substitution2: "'sinf' Scientific Inferiors lookup 14 subtable" uni2099
Substitution2: "'subs' Subscript lookup 13 subtable" uni2099
AlternateSubs2: "'aalt' Access All Alternates lookup 1 subtable" uni2099 n.sc uniFF4E
EndChar

StartChar: o
Encoding: 111 111 40
Width: 1200
VWidth: 2048
GlyphClass: 2
Flags: W
LayerCount: 2
Fore
SplineSet
206 315 m 4,0,1
 206 538 206 538 369 721.5 c 132,-1,2
 532 905 532 905 724 905 c 4,3,4
 857 905 857 905 940 811 c 132,-1,5
 1023 717 1023 717 1023 569 c 4,6,7
 1023 346 1023 346 860.5 161.5 c 132,-1,8
 698 -23 698 -23 505 -23 c 4,9,10
 374 -23 374 -23 290 68 c 132,-1,11
 206 159 206 159 206 315 c 4,0,1
350 233 m 4,12,13
 350 129 350 129 395 76 c 132,-1,14
 440 23 440 23 505 23 c 4,15,16
 579 23 579 23 650.5 81 c 132,-1,17
 722 139 722 139 769 227 c 4,18,19
 814 313 814 313 847 444 c 132,-1,20
 880 575 880 575 880 649 c 4,21,22
 880 741 880 741 838 800.5 c 132,-1,23
 796 860 796 860 722 860 c 4,24,25
 659 860 659 860 591.5 812 c 132,-1,26
 524 764 524 764 468 674 c 4,27,28
 421 594 421 594 385.5 454.5 c 132,-1,29
 350 315 350 315 350 233 c 4,12,13
EndSplineSet
Substitution2: "Single Substitution lookup 63 subtable" ordmasculine
Substitution2: "'fwid' Full Widths lookup 32 subtable" uniFF4F
Substitution2: "'smcp' Lowercase to Small Capitals lookup 27 subtable" o.sc
Substitution2: "'sinf' Scientific Inferiors lookup 14 subtable" uni2092
Substitution2: "'subs' Subscript lookup 13 subtable" uni2092
AlternateSubs2: "'aalt' Access All Alternates lookup 1 subtable" uni2092 ordmasculine o.sc uniFF4F
EndChar

StartChar: p
Encoding: 112 112 41
Width: 1200
VWidth: 2048
GlyphClass: 2
Flags: W
LayerCount: 2
Fore
SplineSet
78 -373 m 0,0,1
 78 -334 78 -334 121 -334 c 0,2,3
 182 -332 182 -332 201.5 -320.5 c 128,-1,4
 221 -309 221 -309 233 -262 c 2,5,-1
 467 676 l 2,6,7
 481 733 481 733 481 778 c 0,8,9
 481 860 481 860 428 860 c 0,10,11
 383 860 383 860 351 798.5 c 128,-1,12
 319 737 319 737 289 616 c 0,13,14
 281 583 281 583 275.5 576 c 128,-1,15
 270 569 270 569 250 569 c 0,16,17
 219 569 219 569 219 590 c 0,18,19
 219 594 219 594 227 625.5 c 128,-1,20
 235 657 235 657 251.5 708.5 c 128,-1,21
 268 760 268 760 285 797 c 0,22,23
 341 905 341 905 430 905 c 0,24,25
 431 905 431 905 432 905 c 0,26,27
 483 905 483 905 533.5 873.5 c 128,-1,28
 584 842 584 842 600 762 c 1,29,30
 723 905 723 905 848 905 c 0,31,32
 948 905 948 905 1020.5 822 c 128,-1,33
 1093 739 1093 739 1093 586 c 0,34,35
 1093 359 1093 359 945 168 c 128,-1,36
 797 -23 797 -23 627 -23 c 0,37,38
 557 -23 557 -23 514 16 c 128,-1,39
 471 55 471 55 455 96 c 1,40,-1
 381 -203 l 2,41,42
 358 -293 358 -293 358 -301 c 0,43,44
 358 -313 358 -313 362 -319.5 c 128,-1,45
 366 -326 366 -326 390 -330 c 128,-1,46
 414 -334 414 -334 463 -334 c 128,-1,47
 512 -334 512 -334 512 -358 c 0,48,49
 512 -397 512 -397 473 -397 c 0,50,51
 442 -397 442 -397 374.5 -394 c 128,-1,52
 307 -391 307 -391 274 -391 c 0,53,54
 245 -391 245 -391 187 -394 c 128,-1,55
 129 -397 129 -397 102 -397 c 0,56,57
 101 -397 101 -397 100 -397 c 0,58,59
 78 -397 78 -397 78 -373 c 0,0,1
485 213 m 0,60,61
 485 193 485 193 493.5 155 c 128,-1,62
 502 117 502 117 536.5 70 c 128,-1,63
 571 23 571 23 624 23 c 0,64,65
 692 23 692 23 751.5 88.5 c 128,-1,66
 811 154 811 154 842 217 c 0,67,68
 885 311 885 311 920.5 460.5 c 128,-1,69
 956 610 956 610 956 677.5 c 128,-1,70
 956 745 956 745 930.5 802.5 c 128,-1,71
 905 860 905 860 844 860 c 0,72,73
 766 860 766 860 684 776 c 128,-1,74
 602 692 602 692 588 629 c 2,75,-1
 491 242 l 2,76,77
 485 217 485 217 485 213 c 0,60,61
EndSplineSet
Substitution2: "'fwid' Full Widths lookup 32 subtable" uniFF50
Substitution2: "'smcp' Lowercase to Small Capitals lookup 27 subtable" p.sc
Substitution2: "'sinf' Scientific Inferiors lookup 14 subtable" uni209A
Substitution2: "'subs' Subscript lookup 13 subtable" uni209A
AlternateSubs2: "'aalt' Access All Alternates lookup 1 subtable" uni209A p.sc uniFF50
EndChar

StartChar: q
Encoding: 113 113 42
Width: 1200
VWidth: 2048
GlyphClass: 2
Flags: W
LayerCount: 2
Fore
SplineSet
221 295 m 0,0,1
 221 518 221 518 370.5 711.5 c 128,-1,2
 520 905 520 905 690 905 c 0,3,4
 813 905 813 905 866 774 c 1,5,6
 891 817 891 817 935 860 c 128,-1,7
 979 903 979 903 995 903 c 0,8,9
 1018 903 1018 903 1018 881 c 0,10,11
 1018 873 1018 873 1012 854 c 2,12,-1
 731 -264 l 1,13,-1
 729 -279 l 2,14,15
 725 -293 725 -293 725 -301 c 0,16,17
 725 -313 725 -313 729 -319.5 c 128,-1,18
 733 -326 733 -326 756.5 -330 c 128,-1,19
 780 -334 780 -334 829.5 -334 c 128,-1,20
 879 -334 879 -334 879 -358 c 0,21,22
 879 -397 879 -397 840 -397 c 0,23,24
 807 -397 807 -397 737.5 -394 c 128,-1,25
 668 -391 668 -391 633 -391 c 128,-1,26
 598 -391 598 -391 529.5 -394 c 128,-1,27
 461 -397 461 -397 428 -397 c 0,28,29
 401 -397 401 -397 401 -373 c 0,30,31
 401 -346 401 -346 413.5 -340 c 128,-1,32
 426 -334 426 -334 451 -334 c 0,33,34
 547 -332 547 -332 567.5 -317.5 c 128,-1,35
 588 -303 588 -303 606 -236 c 2,36,-1
 686 86 l 1,37,38
 573 -23 573 -23 469 -23 c 0,39,40
 356 -23 356 -23 288.5 68.5 c 128,-1,41
 221 160 221 160 221 295 c 0,0,1
360 205 m 0,42,43
 360 137 360 137 385 80 c 128,-1,44
 410 23 410 23 473 23 c 0,45,46
 549 23 549 23 631 106.5 c 128,-1,47
 713 190 713 190 727 250 c 2,48,-1
 825 643 l 2,49,50
 831 661 831 661 831 670 c 0,51,52
 831 736 831 736 791 801 c 0,53,54
 752 860 752 860 690.5 860 c 128,-1,55
 629 860 629 860 564.5 794.5 c 128,-1,56
 500 729 500 729 461 633 c 0,57,58
 430 561 430 561 395 419 c 128,-1,59
 360 277 360 277 360 205 c 0,42,43
EndSplineSet
Substitution2: "'fwid' Full Widths lookup 32 subtable" uniFF51
Substitution2: "'smcp' Lowercase to Small Capitals lookup 27 subtable" q.sc
AlternateSubs2: "'aalt' Access All Alternates lookup 1 subtable" q.sc uniFF51
EndChar

StartChar: r
Encoding: 114 114 43
Width: 1200
VWidth: 2048
GlyphClass: 2
Flags: W
LayerCount: 2
Fore
SplineSet
193 590 m 4,0,1
 193 594 193 594 201 625.5 c 132,-1,2
 209 657 209 657 225.5 708.5 c 132,-1,3
 242 760 242 760 259 797 c 4,4,5
 315 905 315 905 404 905 c 4,6,7
 405 905 405 905 406 905 c 4,8,9
 463 905 463 905 511.5 869.5 c 132,-1,10
 560 834 560 834 576 758 c 5,11,12
 682 905 682 905 824 905 c 4,13,14
 896 905 896 905 960 875.5 c 132,-1,15
 1024 846 1024 846 1024 776 c 4,16,17
 1024 723 1024 723 991.5 695.5 c 132,-1,18
 959 668 959 668 924 668 c 4,19,20
 887 668 887 668 869.5 688.5 c 132,-1,21
 852 709 852 709 852 733 c 4,22,23
 852 743 852 743 856.5 758.5 c 132,-1,24
 861 774 861 774 879 797.5 c 132,-1,25
 897 821 897 821 930 831 c 5,26,27
 889 860 889 860 822 860 c 4,28,29
 773 860 773 860 726.5 831.5 c 132,-1,30
 680 803 680 803 650.5 767 c 132,-1,31
 621 731 621 731 596.5 686 c 132,-1,32
 572 641 572 641 563.5 620.5 c 132,-1,33
 555 600 555 600 551 590 c 6,34,-1
 418 53 l 6,35,36
 400 -23 400 -23 338 -23 c 4,37,38
 309 -23 309 -23 295 -6.5 c 132,-1,39
 281 10 281 10 281 31 c 4,40,41
 281 41 281 41 287 59 c 6,42,-1
 441 674 l 6,43,44
 455 731 455 731 455 778 c 4,45,46
 455 860 455 860 402 860 c 4,47,48
 357 860 357 860 325 798.5 c 132,-1,49
 293 737 293 737 263 616 c 4,50,51
 255 583 255 583 249 576 c 132,-1,52
 243 569 243 569 224 569 c 4,53,54
 193 570 193 570 193 590 c 4,0,1
EndSplineSet
Substitution2: "Single Substitution lookup 74 subtable" r.alternate
Substitution2: "'fwid' Full Widths lookup 32 subtable" uniFF52
Substitution2: "'smcp' Lowercase to Small Capitals lookup 27 subtable" r.sc
AlternateSubs2: "'aalt' Access All Alternates lookup 1 subtable" r.sc uniFF52 r.alternate
EndChar

StartChar: s
Encoding: 115 115 44
Width: 1200
VWidth: 2048
GlyphClass: 2
Flags: W
LayerCount: 2
Fore
SplineSet
262 176 m 4,0,1
 262 239 262 239 293.5 271 c 132,-1,2
 325 303 325 303 366 303 c 4,3,4
 399 303 399 303 417.5 284.5 c 132,-1,5
 436 266 436 266 436 238 c 4,6,7
 436 226 436 226 433 210.5 c 132,-1,8
 430 195 430 195 404 168 c 132,-1,9
 378 141 378 141 331 137 c 5,10,11
 368 23 368 23 525 23 c 4,12,13
 526 23 526 23 528 23 c 4,14,15
 587 23 587 23 636.5 40 c 132,-1,16
 686 57 686 57 713.5 84 c 132,-1,17
 741 111 741 111 760.5 143.5 c 132,-1,18
 780 176 780 176 787 202.5 c 132,-1,19
 794 229 794 229 794 252 c 4,20,21
 794 291 794 291 779.5 318.5 c 132,-1,22
 765 346 765 346 734.5 362.5 c 132,-1,23
 704 379 704 379 680.5 386 c 132,-1,24
 657 393 657 393 612 403 c 4,25,26
 585 409 585 409 568.5 413.5 c 132,-1,27
 552 418 552 418 520.5 433.5 c 132,-1,28
 489 449 489 449 470.5 468 c 132,-1,29
 452 487 452 487 436.5 522 c 132,-1,30
 421 557 421 557 421 602 c 4,31,32
 421 704 421 704 503 804.5 c 132,-1,33
 585 905 585 905 745 905 c 4,34,35
 843 905 843 905 903.5 855 c 132,-1,36
 964 805 964 805 964 731 c 4,37,38
 964 672 964 672 936.5 645 c 132,-1,39
 909 618 909 618 876 618 c 132,-1,40
 843 618 843 618 829 635.5 c 132,-1,41
 815 653 815 653 815 675.5 c 132,-1,42
 815 698 815 698 834.5 726 c 132,-1,43
 854 754 854 754 897 760 c 5,44,45
 868 860 868 860 743 860 c 4,46,47
 637 860 637 860 586.5 794.5 c 132,-1,48
 536 729 536 729 536 672 c 4,49,50
 536 631 536 631 559.5 605.5 c 132,-1,51
 583 580 583 580 605.5 571.5 c 132,-1,52
 628 563 628 563 667 555 c 4,53,54
 702 547 702 547 725.5 541 c 132,-1,55
 749 535 749 535 788 516.5 c 132,-1,56
 827 498 827 498 850.5 475.5 c 132,-1,57
 874 453 874 453 892.5 413 c 132,-1,58
 911 373 911 373 911 322 c 4,59,60
 911 289 911 289 900.5 249 c 132,-1,61
 890 209 890 209 862.5 160 c 132,-1,62
 835 111 835 111 794 71 c 132,-1,63
 753 31 753 31 683.5 4 c 132,-1,64
 614 -23 614 -23 526 -23 c 4,65,66
 413 -23 413 -23 337.5 31.5 c 132,-1,67
 262 86 262 86 262 176 c 4,0,1
EndSplineSet
Substitution2: "'fwid' Full Widths lookup 32 subtable" uniFF53
Substitution2: "'smcp' Lowercase to Small Capitals lookup 27 subtable" s.sc
Substitution2: "'sinf' Scientific Inferiors lookup 14 subtable" uni209B
Substitution2: "'subs' Subscript lookup 13 subtable" uni209B
AlternateSubs2: "'aalt' Access All Alternates lookup 1 subtable" uni209B s.sc uniFF53
EndChar

StartChar: t
Encoding: 116 116 45
Width: 1200
VWidth: 2048
GlyphClass: 2
Flags: W
LayerCount: 2
Fore
SplineSet
311 844 m 4,0,1
 311 871 311 871 324.5 877 c 132,-1,2
 338 883 338 883 369 883 c 6,3,-1
 543 883 l 5,4,-1
 623 1208 l 6,5,6
 643 1282 643 1282 703 1282 c 4,7,8
 758 1282 758 1282 758 1229 c 4,9,10
 758 1215 758 1215 750 1186 c 6,11,-1
 674 883 l 5,12,-1
 838 883 l 6,13,14
 858 883 858 883 866.5 882 c 132,-1,15
 875 881 875 881 882 875.5 c 132,-1,16
 889 870 889 870 889 858 c 4,17,18
 889 831 889 831 875.5 825 c 132,-1,19
 862 819 862 819 832 819 c 6,20,-1
 657 819 l 5,21,-1
 506 211 l 6,22,23
 492 154 492 154 492 106 c 4,24,25
 492 23 492 23 546 23 c 6,26,27
 546 23 546 23 547 23 c 4,28,29
 625 23 625 23 685.5 100.5 c 132,-1,30
 746 178 746 178 782 274 c 4,31,32
 794 303 794 303 799.5 308 c 132,-1,33
 805 313 805 313 823 313 c 4,34,35
 854 313 854 313 854 293 c 4,36,37
 854 287 854 287 842 256 c 132,-1,38
 830 225 830 225 803 177 c 132,-1,39
 776 129 776 129 741.5 85 c 132,-1,40
 707 41 707 41 653.5 9 c 132,-1,41
 600 -23 600 -23 543 -23 c 4,42,43
 465 -23 465 -23 417 30.5 c 132,-1,44
 369 84 369 84 369 162 c 4,45,46
 369 191 369 191 379 231 c 6,47,-1
 526 819 l 5,48,-1
 363 819 l 6,49,50
 343 819 343 819 334.5 820 c 132,-1,51
 326 821 326 821 318.5 826.5 c 132,-1,52
 311 832 311 832 311 844 c 4,0,1
EndSplineSet
Substitution2: "'fwid' Full Widths lookup 32 subtable" uniFF54
Substitution2: "'smcp' Lowercase to Small Capitals lookup 27 subtable" t.sc
Substitution2: "'sinf' Scientific Inferiors lookup 14 subtable" uni209C
Substitution2: "'subs' Subscript lookup 13 subtable" uni209C
AlternateSubs2: "'aalt' Access All Alternates lookup 1 subtable" uni209C t.sc uniFF54
EndChar

StartChar: u
Encoding: 117 117 46
Width: 1200
VWidth: 2048
GlyphClass: 2
Flags: W
LayerCount: 2
Fore
SplineSet
105 590 m 4,0,1
 105 596 105 596 113 626.5 c 132,-1,2
 121 657 121 657 142.5 705.5 c 132,-1,3
 164 754 164 754 192 798 c 132,-1,4
 220 842 220 842 267 873.5 c 132,-1,5
 314 905 314 905 367 905 c 4,6,7
 435 905 435 905 479 860 c 132,-1,8
 523 815 523 815 523 739 c 4,9,10
 523 698 523 698 496 629 c 4,11,12
 377 305 377 305 377 180 c 4,13,14
 377 23 377 23 487 23 c 6,15,16
 487 23 487 23 488 23 c 4,17,18
 597 23 597 23 676 141 c 4,19,20
 692 166 692 166 705 209 c 6,21,-1
 855 807 l 6,22,23
 873 883 873 883 934 883 c 4,24,25
 963 883 963 883 977.5 866.5 c 132,-1,26
 992 850 992 850 992 829 c 4,27,28
 992 819 992 819 986 801 c 6,29,-1
 838 211 l 6,30,31
 824 154 824 154 824 106 c 4,32,33
 824 23 824 23 876 23 c 6,34,35
 876 23 876 23 877 23 c 4,36,37
 953 23 953 23 1014 266 c 4,38,39
 1022 299 1022 299 1028.5 306 c 132,-1,40
 1035 313 1035 313 1053 313 c 4,41,42
 1084 313 1084 313 1084 293 c 4,43,44
 1084 289 1084 289 1077 257 c 132,-1,45
 1070 225 1070 225 1054.5 176 c 132,-1,46
 1039 127 1039 127 1022 92 c 4,47,48
 967 -23 967 -23 873 -23 c 4,49,50
 750 -23 750 -23 709 100 c 5,51,52
 611 -23 611 -23 482 -23 c 4,53,54
 386 -23 386 -23 319 34.5 c 132,-1,55
 252 92 252 92 252 215 c 4,56,57
 252 330 252 330 359 616 c 4,58,59
 408 753 408 753 408 801 c 4,60,61
 408 860 408 860 363 860 c 4,62,63
 240 860 240 860 173 602 c 4,64,65
 167 579 167 579 160.5 574 c 132,-1,66
 154 569 154 569 136 569 c 4,67,68
 105 570 105 570 105 590 c 4,0,1
EndSplineSet
Substitution2: "'fwid' Full Widths lookup 32 subtable" uniFF55
Substitution2: "'smcp' Lowercase to Small Capitals lookup 27 subtable" u.sc
AlternateSubs2: "'aalt' Access All Alternates lookup 1 subtable" u.sc uniFF55
EndChar

StartChar: v
Encoding: 118 118 47
Width: 1200
VWidth: 2048
GlyphClass: 2
Flags: W
LayerCount: 2
Fore
SplineSet
167 590 m 4,0,1
 167 596 167 596 175 626.5 c 132,-1,2
 183 657 183 657 204.5 705.5 c 132,-1,3
 226 754 226 754 254 798 c 132,-1,4
 282 842 282 842 329 873.5 c 132,-1,5
 376 905 376 905 429 905 c 4,6,7
 497 905 497 905 541 860 c 132,-1,8
 585 815 585 815 585 739 c 4,9,10
 585 708 585 708 562 637 c 4,11,12
 441 315 441 315 441 193 c 4,13,14
 441 127 441 127 471 75 c 132,-1,15
 501 23 501 23 575 23 c 4,16,17
 657 23 657 23 725.5 102.5 c 132,-1,18
 794 182 794 182 830.5 288.5 c 132,-1,19
 867 395 867 395 886.5 479 c 132,-1,20
 906 563 906 563 906 594 c 4,21,22
 906 696 906 696 851 756 c 4,23,24
 824 787 824 787 824 811 c 4,25,26
 824 846 824 846 856 875.5 c 132,-1,27
 888 905 888 905 923 905 c 4,28,29
 966 905 966 905 986.5 867 c 132,-1,30
 1007 829 1007 829 1007 770 c 4,31,32
 1007 745 1007 745 994.5 667.5 c 132,-1,33
 982 590 982 590 950.5 469 c 132,-1,34
 919 348 919 348 872.5 240.5 c 132,-1,35
 826 133 826 133 745.5 55 c 132,-1,36
 665 -23 665 -23 568 -23 c 4,37,38
 464 -23 464 -23 390 35.5 c 132,-1,39
 316 94 316 94 316 223 c 4,40,41
 316 329 316 329 421 616 c 4,42,43
 470 753 470 753 470 801 c 4,44,45
 470 860 470 860 425 860 c 4,46,47
 302 860 302 860 235 602 c 4,48,49
 229 579 229 579 222.5 574 c 132,-1,50
 216 569 216 569 198 569 c 4,51,52
 167 570 167 570 167 590 c 4,0,1
EndSplineSet
Substitution2: "'fwid' Full Widths lookup 32 subtable" uniFF56
Substitution2: "'smcp' Lowercase to Small Capitals lookup 27 subtable" v.sc
AlternateSubs2: "'aalt' Access All Alternates lookup 1 subtable" v.sc uniFF56
EndChar

StartChar: w
Encoding: 119 119 48
Width: 1200
VWidth: 2048
GlyphClass: 2
Flags: W
LayerCount: 2
Fore
SplineSet
33 590 m 0,0,1
 33 596 33 596 41 626.5 c 128,-1,2
 49 657 49 657 70.5 705.5 c 128,-1,3
 92 754 92 754 120 798 c 128,-1,4
 148 842 148 842 195 873.5 c 128,-1,5
 242 905 242 905 264 905 c 0,6,7
 332 905 332 905 376 860 c 128,-1,8
 420 815 420 815 420 739 c 0,9,10
 420 698 420 698 395 631 c 0,11,12
 278 322 278 322 278 201 c 0,13,14
 278 181 278 181 281.5 160 c 128,-1,15
 285 139 285 139 296 103.5 c 128,-1,16
 307 68 307 68 337 55 c 128,-1,17
 367 42 367 42 393 42 c 0,18,19
 463 42 463 42 507 111 c 128,-1,20
 551 180 551 180 551 215 c 0,21,22
 551 280.13671875 551 280.13671875 567 344 c 2,23,-1
 684 811 l 2,24,25
 702 883 702 883 762 883 c 0,26,27
 791 883 791 883 805 866.5 c 128,-1,28
 819 850 819 850 819 829 c 0,29,30
 819 826 819 826 786 694 c 2,31,-1
 700 350 l 2,32,33
 675 250 675 250 676 193 c 0,34,35
 676 119 676 119 699 83.5 c 128,-1,36
 722 48 722 48 794 48 c 0,37,38
 905 48 905 48 974 213 c 0,39,40
 1005 287 1005 287 1039.5 412 c 128,-1,41
 1074 537 1074 537 1074 594 c 0,42,43
 1074 693 1074 693 1019 756 c 0,44,45
 992 787 992 787 992 811 c 0,46,47
 992 846 992 846 1024 875.5 c 128,-1,48
 1056 905 1056 905 1090 905 c 0,49,50
 1133 905 1133 905 1153.5 867 c 128,-1,51
 1174 829 1174 829 1174 770 c 0,52,53
 1174 688 1174 688 1127 499.5 c 0,54,55
 1083 324 1083 324 1033 207 c 0,56,57
 935 -22 935 -22 783 -23 c 0,58,59
 695 -23 695 -23 645.5 13 c 128,-1,60
 596 49 596 49 571 109 c 1,61,62
 493 -22 493 -22 393 -22 c 0,63,64
 392 -22 392 -22 391 -23 c 0,65,66
 295 -23 295 -23 223 41 c 0,67,68
 154 103 154 103 154 225 c 0,69,70
 154 331 154 331 256 616 c 0,71,72
 305 753 305 753 305 801 c 0,73,74
 305 850 305 850 256 850 c 0,75,76
 166 850 166 850 101 602 c 0,77,78
 95 579 95 579 88.5 574 c 128,-1,79
 82 569 82 569 64 569 c 0,80,81
 33 570 33 570 33 590 c 0,0,1
EndSplineSet
Substitution2: "'fwid' Full Widths lookup 32 subtable" uniFF57
Substitution2: "'smcp' Lowercase to Small Capitals lookup 27 subtable" w.sc
AlternateSubs2: "'aalt' Access All Alternates lookup 1 subtable" w.sc uniFF57
EndChar

StartChar: x
Encoding: 120 120 49
Width: 1200
VWidth: 2048
GlyphClass: 2
Flags: W
LayerCount: 2
Fore
SplineSet
116 104 m 4,0,1
 116 153 116 153 146.5 184 c 132,-1,2
 177 215 177 215 218 215 c 4,3,4
 288 215 288 215 288 150 c 4,5,6
 288 121 288 121 268.5 91 c 132,-1,7
 249 61 249 61 208 51 c 5,8,9
 242 23 242 23 294 23 c 4,10,11
 296 23 296 23 298 23 c 4,12,13
 341 23 341 23 374.5 47.5 c 132,-1,14
 408 72 408 72 432 123 c 132,-1,15
 456 174 456 174 468 214 c 132,-1,16
 480 254 480 254 496 319 c 4,17,18
 521 419 521 419 544 506 c 4,19,20
 587 682 587 682 587 731 c 4,21,22
 587 792 587 792 560 826 c 132,-1,23
 533 860 533 860 488 860 c 4,24,25
 420 860 420 860 351.5 794.5 c 132,-1,26
 283 729 283 729 245 604 c 4,27,28
 237 579 237 579 232.5 574 c 132,-1,29
 228 569 228 569 208 569 c 4,30,31
 177 569 177 569 177 589.5 c 132,-1,32
 177 610 177 610 198.5 659.5 c 132,-1,33
 220 709 220 709 257 765 c 132,-1,34
 294 821 294 821 357.5 863 c 132,-1,35
 421 905 421 905 492 905 c 4,36,37
 637 905 637 905 689 766 c 5,38,39
 714 813 714 813 765 859 c 132,-1,40
 816 905 816 905 890 905 c 4,41,42
 951 905 951 905 1009.5 875.5 c 132,-1,43
 1068 846 1068 846 1068 776 c 4,44,45
 1068 723 1068 723 1035 695.5 c 132,-1,46
 1002 668 1002 668 968 668 c 4,47,48
 931 668 931 668 913.5 688.5 c 132,-1,49
 896 709 896 709 896 733 c 4,50,51
 896 743 896 743 898 756.5 c 132,-1,52
 900 770 900 770 920.5 796.5 c 132,-1,53
 941 823 941 823 978 831 c 5,54,55
 945 860 945 860 888 860 c 4,56,57
 767 860 767 860 707 641 c 5,58,59
 660 442 660 442 638 360 c 4,60,61
 599 194 599 194 599 154 c 4,62,63
 599 82 599 82 627.5 52.5 c 132,-1,64
 656 23 656 23 695 23 c 4,65,66
 765 23 765 23 832.5 88.5 c 132,-1,67
 900 154 900 154 939 279 c 4,68,69
 947 304 947 304 952 308.5 c 132,-1,70
 957 313 957 313 976 313 c 4,71,72
 1007 313 1007 313 1006 293 c 4,73,74
 1006 275 1006 275 985.5 226.5 c 132,-1,75
 965 178 965 178 928.5 120.5 c 132,-1,76
 892 63 892 63 828.5 20 c 132,-1,77
 765 -23 765 -23 691 -23 c 4,78,79
 636 -23 636 -23 579.5 8 c 132,-1,80
 523 39 523 39 496 117 c 5,81,82
 416 -22 416 -22 296 -23 c 4,83,84
 222 -23 222 -23 169 12 c 132,-1,85
 116 47 116 47 116 104 c 4,0,1
EndSplineSet
Substitution2: "'fwid' Full Widths lookup 32 subtable" uniFF58
Substitution2: "'smcp' Lowercase to Small Capitals lookup 27 subtable" x.sc
Substitution2: "'sinf' Scientific Inferiors lookup 14 subtable" uni2093
Substitution2: "'subs' Subscript lookup 13 subtable" uni2093
AlternateSubs2: "'aalt' Access All Alternates lookup 1 subtable" uni2093 x.sc uniFF58
EndChar

StartChar: y
Encoding: 121 121 50
Width: 1200
VWidth: 2048
GlyphClass: 2
Flags: W
LayerCount: 2
Fore
SplineSet
167 590 m 4,0,1
 167 596 167 596 175 626.5 c 132,-1,2
 183 657 183 657 204.5 705.5 c 132,-1,3
 226 754 226 754 254 798 c 132,-1,4
 282 842 282 842 329 873.5 c 132,-1,5
 376 905 376 905 429 905 c 4,6,7
 497 905 497 905 541 860 c 132,-1,8
 585 815 585 815 585 739 c 4,9,10
 585 698 585 698 558 629 c 4,11,12
 439 305 439 305 439 180 c 4,13,14
 439 23 439 23 549 23 c 6,15,16
 549 23 549 23 550 23 c 4,17,18
 632 23 632 23 692.5 85 c 132,-1,19
 753 147 753 147 767 205 c 6,20,-1
 917 807 l 6,21,22
 935 883 935 883 996 883 c 4,23,24
 1025 883 1025 883 1039.5 866.5 c 132,-1,25
 1054 850 1054 850 1054 829 c 4,26,27
 1054 825 1054 825 1051 816 c 132,-1,28
 1048 807 1048 807 1048 801 c 6,29,-1
 847 -6 l 6,30,31
 806 -168 806 -168 677 -294 c 132,-1,32
 548 -420 548 -420 396 -420 c 4,33,34
 310 -420 310 -420 255 -372 c 132,-1,35
 200 -324 200 -324 200 -244 c 4,36,37
 200 -193 200 -193 222.5 -161 c 132,-1,38
 245 -129 245 -129 265.5 -123 c 132,-1,39
 286 -117 286 -117 304 -117 c 4,40,41
 333 -117 333 -117 353.5 -134.5 c 132,-1,42
 374 -152 374 -152 374 -182.5 c 132,-1,43
 374 -213 374 -213 351.5 -243.5 c 132,-1,44
 329 -274 329 -274 286 -281 c 4,45,46
 270 -283 270 -283 269 -287 c 4,47,48
 269 -295 269 -295 279.5 -314.5 c 132,-1,49
 290 -334 290 -334 320.5 -354.5 c 132,-1,50
 351 -375 351 -375 396 -375 c 4,51,52
 490 -375 490 -375 582.5 -275.5 c 132,-1,53
 675 -176 675 -176 728 53 c 5,54,55
 652 -23 652 -23 544 -23 c 4,56,57
 448 -23 448 -23 381 34.5 c 132,-1,58
 314 92 314 92 314 215 c 4,59,60
 314 330 314 330 421 616 c 4,61,62
 470 753 470 753 470 801 c 4,63,64
 470 860 470 860 425 860 c 4,65,66
 302 860 302 860 235 602 c 4,67,68
 229 579 229 579 222.5 574 c 132,-1,69
 216 569 216 569 198 569 c 4,70,71
 167 570 167 570 167 590 c 4,0,1
EndSplineSet
Substitution2: "'fwid' Full Widths lookup 32 subtable" uniFF59
Substitution2: "'smcp' Lowercase to Small Capitals lookup 27 subtable" y.sc
AlternateSubs2: "'aalt' Access All Alternates lookup 1 subtable" y.sc uniFF59
EndChar

StartChar: z
Encoding: 122 122 51
Width: 1200
VWidth: 2048
GlyphClass: 2
Flags: W
LayerCount: 2
Fore
SplineSet
182 -2 m 4,0,1
 182 16 182 16 249.5 111.5 c 132,-1,2
 317 207 317 207 395 283 c 6,3,-1
 731 616 l 6,4,5
 751 636 751 636 813 707 c 5,6,7
 760 707 760 707 692 737 c 4,8,9
 610 774 610 774 569 774 c 4,10,11
 516 774 516 774 474 744.5 c 132,-1,12
 432 715 432 715 417 678 c 4,13,14
 409 660 409 660 404 654.5 c 132,-1,15
 399 649 399 649 381 649 c 4,16,17
 350 649 350 649 350 672 c 4,18,19
 350 723 350 723 420.5 814 c 132,-1,20
 491 905 491 905 590 905 c 4,21,22
 656 905 656 905 714 825 c 4,23,24
 766 752 766 752 810 752 c 6,25,26
 810 752 810 752 811 752 c 4,27,28
 840 752 840 752 865.5 775.5 c 132,-1,29
 891 799 891 799 938 879 c 4,30,31
 948 897 948 897 953 901 c 132,-1,32
 958 905 958 905 977 905 c 4,33,34
 1005 905 1005 905 1005 886 c 4,35,36
 1005 875 1005 875 976.5 828.5 c 132,-1,37
 948 782 948 782 894.5 714.5 c 132,-1,38
 841 647 841 647 786 592 c 6,39,-1
 489 299 l 6,40,41
 446 256 446 256 374 174 c 5,42,43
 384 176 384 176 411 176 c 4,44,45
 458 176 458 176 538 141 c 4,46,47
 610 109 610 109 651 109 c 4,48,49
 652 109 652 109 653 109 c 4,50,51
 721 109 721 109 785.5 157 c 132,-1,52
 850 205 850 205 876 281 c 4,53,54
 882 301 882 301 887.5 307 c 132,-1,55
 893 313 893 313 911 313 c 4,56,57
 942 313 942 313 942 293 c 4,58,59
 942 260 942 260 908 189.5 c 132,-1,60
 874 119 874 119 798.5 48 c 132,-1,61
 723 -23 723 -23 633 -23 c 4,62,63
 604 -23 604 -23 578.5 -9.5 c 132,-1,64
 553 4 553 4 540.5 17.5 c 132,-1,65
 528 31 528 31 506 57 c 4,66,67
 475 100 475 100 456.5 115.5 c 132,-1,68
 438 131 438 131 407 131 c 4,69,70
 380 131 380 131 355.5 118.5 c 132,-1,71
 331 106 331 106 305.5 76.5 c 132,-1,72
 280 47 280 47 274 38 c 132,-1,73
 268 29 268 29 245 -4 c 4,74,75
 235 -22 235 -22 213 -23 c 4,76,77
 182 -22 182 -22 182 -2 c 4,0,1
EndSplineSet
Substitution2: "'fwid' Full Widths lookup 32 subtable" uniFF5A
Substitution2: "'smcp' Lowercase to Small Capitals lookup 27 subtable" z.sc
AlternateSubs2: "'aalt' Access All Alternates lookup 1 subtable" z.sc uniFF5A
EndChar

StartChar: Alpha
Encoding: 913 913 52
Width: 1200
GlyphClass: 2
Flags: W
AnchorPoint: "Anchor-24" 292 1450 basechar 0
AnchorPoint: "Anchor-23" 600 1454 basechar 0
AnchorPoint: "Anchor-22" 929 0 basechar 0
AnchorPoint: "Anchor-21" 1114 0 basechar 0
AnchorPoint: "Anchor-20" 600 0 basechar 0
LayerCount: 2
Fore
SplineSet
657 1450 m 1,0,-1
 857 1450 l 1,1,-1
 1016 0 l 1,2,-1
 828 0 l 1,3,-1
 792 406 l 1,4,-1
 356 406 l 1,5,-1
 180 0 l 1,6,-1
 -8 0 l 1,7,-1
 657 1450 l 1,0,-1
781 550 m 1,8,-1
 731 1266 l 1,9,-1
 723 1266 l 1,10,-1
 423 550 l 1,11,-1
 781 550 l 1,8,-1
EndSplineSet
EndChar

StartChar: Beta
Encoding: 914 914 53
Width: 1200
GlyphClass: 2
Flags: W
AnchorPoint: "Anchor-23" 600 1500 basechar 0
AnchorPoint: "Anchor-20" 600 0 basechar 0
LayerCount: 2
Fore
SplineSet
325 1450 m 1,0,-1
 698 1450 l 2,1,2
 852 1450 852 1450 949 1381 c 128,-1,3
 1046 1312 1046 1312 1046 1162 c 0,4,5
 1046 1115 1046 1115 1038 1072 c 0,6,7
 1022 980 1022 980 993 921 c 128,-1,8
 964 862 964 862 920.5 824 c 128,-1,9
 877 786 877 786 808 754 c 1,10,11
 1060 707 1060 707 1060 478 c 0,12,13
 1060 433 1060 433 1052 390 c 0,14,15
 983 0 983 0 482 0 c 2,16,-1
 69 0 l 1,17,-1
 325 1450 l 1,0,-1
448 148 m 2,18,19
 559 148 559 148 644 166 c 128,-1,20
 729 184 729 184 795 244.5 c 128,-1,21
 861 305 861 305 881 422 c 0,22,23
 887 457 887 457 887 485 c 0,24,25
 887 593 887 593 811.5 635.5 c 128,-1,26
 736 678 736 678 604 678 c 2,27,-1
 357 678 l 1,28,-1
 263 148 l 1,29,-1
 448 148 l 2,18,19
523 820 m 2,30,31
 657 820 657 820 748.5 878 c 128,-1,32
 840 936 840 936 865 1080 c 0,33,34
 870 1105 870 1105 870 1136 c 0,35,36
 870 1227 870 1227 809 1262.5 c 128,-1,37
 748 1298 748 1298 641 1298 c 2,38,-1
 466 1298 l 1,39,-1
 382 820 l 1,40,-1
 523 820 l 2,30,31
EndSplineSet
EndChar

StartChar: Gamma
Encoding: 915 915 54
Width: 1200
GlyphClass: 2
Flags: W
AnchorPoint: "Anchor-23" 759 1450 basechar 0
AnchorPoint: "Anchor-20" 503 0 basechar 0
LayerCount: 2
Fore
SplineSet
297 1450 m 1,0,-1
 1220 1450 l 1,1,-1
 1193 1298 l 1,2,-1
 447 1298 l 1,3,-1
 218 0 l 1,4,-1
 42 0 l 1,5,-1
 297 1450 l 1,0,-1
EndSplineSet
EndChar

StartChar: uni0394
Encoding: 916 916 55
Width: 1200
GlyphClass: 2
Flags: W
AnchorPoint: "Anchor-23" 768 1500 basechar 0
AnchorPoint: "Anchor-20" 503 0 basechar 0
LayerCount: 2
Fore
SplineSet
731 1492 m 1,0,-1
 791 1492 l 1,1,-1
 1050 0 l 1,2,-1
 -48 0 l 1,3,-1
 731 1492 l 1,0,-1
850 134 m 1,4,-1
 709 1162 l 1,5,-1
 206 134 l 1,6,-1
 850 134 l 1,4,-1
EndSplineSet
EndChar

StartChar: Epsilon
Encoding: 917 917 56
Width: 1200
GlyphClass: 2
Flags: W
AnchorPoint: "Anchor-24" 353 1450 basechar 0
AnchorPoint: "Anchor-23" 600 1500 basechar 0
AnchorPoint: "Anchor-22" 823 0 basechar 0
AnchorPoint: "Anchor-20" 600 0 basechar 0
LayerCount: 2
Fore
SplineSet
335 1450 m 1,0,-1
 1173 1450 l 1,1,-1
 1146 1300 l 1,2,-1
 484 1300 l 1,3,-1
 401 828 l 1,4,-1
 1035 828 l 1,5,-1
 1009 682 l 1,6,-1
 375 682 l 1,7,-1
 281 146 l 1,8,-1
 969 146 l 1,9,-1
 943 0 l 1,10,-1
 79 0 l 1,11,-1
 335 1450 l 1,0,-1
EndSplineSet
EndChar

StartChar: Zeta
Encoding: 918 918 57
Width: 1200
GlyphClass: 2
Flags: W
AnchorPoint: "Anchor-25" 620 700 basechar 0
AnchorPoint: "Anchor-23" 744 1400 basechar 0
AnchorPoint: "Anchor-20" 497 0 basechar 0
LayerCount: 2
Fore
SplineSet
1228 1450 m 1,0,-1
 1202 1290 l 1,1,-1
 225 146 l 1,2,-1
 1028 146 l 1,3,-1
 1002 0 l 1,4,-1
 2 0 l 1,5,-1
 29 166 l 1,6,-1
 1010 1298 l 1,7,-1
 437 1298 l 1,8,-1
 406 1122 l 1,9,-1
 260 1122 l 1,10,-1
 317 1450 l 1,11,-1
 1228 1450 l 1,0,-1
EndSplineSet
EndChar

StartChar: Eta
Encoding: 919 919 58
Width: 1200
GlyphClass: 2
Flags: W
AnchorPoint: "Anchor-25" 631 726 basechar 0
AnchorPoint: "Anchor-24" 249 1450 basechar 0
AnchorPoint: "Anchor-23" 600 1500 basechar 0
AnchorPoint: "Anchor-21" 1010 0 basechar 0
AnchorPoint: "Anchor-20" 600 0 basechar 0
LayerCount: 2
Fore
SplineSet
349 1450 m 1,0,-1
 523 1450 l 1,1,-1
 414 834 l 1,2,-1
 886 834 l 1,3,-1
 995 1450 l 1,4,-1
 1169 1450 l 1,5,-1
 913 0 l 1,6,-1
 739 0 l 1,7,-1
 858 676 l 1,8,-1
 386 676 l 1,9,-1
 267 0 l 1,10,-1
 93 0 l 1,11,-1
 349 1450 l 1,0,-1
EndSplineSet
EndChar

StartChar: Theta
Encoding: 920 920 59
Width: 1200
GlyphClass: 2
Flags: W
AnchorPoint: "Anchor-26" 1269 1450 basechar 0
AnchorPoint: "Anchor-25" 631 726 basechar 0
AnchorPoint: "Anchor-24" 249 1450 basechar 0
AnchorPoint: "Anchor-23" 759 1450 basechar 0
AnchorPoint: "Anchor-22" 947 20 basechar 0
AnchorPoint: "Anchor-20" 503 0 basechar 0
LayerCount: 2
Fore
SplineSet
632 797 m 0,1,2
 752 797 752 797 876 830 c 1,3,-1
 847 605 l 1,4,5
 743 631 743 631 628 631 c 0,6,7
 515 631 515 631 387 603 c 1,8,-1
 416 827 l 1,9,0
 521 797 521 797 632 797 c 0,1,2
207 1105.5 m 128,-1,11
 308 1271 308 1271 451.5 1365.5 c 128,-1,12
 595 1460 595 1460 752 1460 c 0,13,14
 888 1460 888 1460 991 1388.5 c 128,-1,15
 1094 1317 1094 1317 1150 1189 c 128,-1,16
 1206 1061 1206 1061 1206 896 c 0,17,18
 1206 803 1206 803 1189 712 c 0,19,20
 1154 509 1154 509 1052.5 344.5 c 128,-1,21
 951 180 951 180 807.5 86 c 128,-1,22
 664 -8 664 -8 506 -8 c 0,23,24
 370 -8 370 -8 267.5 63.5 c 128,-1,25
 165 135 165 135 109 262.5 c 128,-1,26
 53 390 53 390 53 554 c 0,27,28
 53 639 53 639 70 736 c 0,29,10
 106 940 106 940 207 1105.5 c 128,-1,11
242 451 m 0,31,32
 242 291 242 291 305 209.5 c 128,-1,33
 368 128 368 128 511 128 c 0,34,35
 640 128 640 128 740.5 222 c 128,-1,36
 841 316 841 316 904.5 454 c 128,-1,37
 968 592 968 592 993 728 c 0,38,39
 1011 839 1011 839 1011 929 c 0,40,41
 1011 1108 1011 1108 946.5 1219.5 c 128,-1,42
 882 1331 882 1331 746 1331 c 0,43,44
 622 1331 622 1331 524.5 1245.5 c 128,-1,45
 427 1160 427 1160 363 1018 c 128,-1,46
 299 876 299 876 268 704 c 0,47,30
 242 550 242 550 242 451 c 0,31,32
EndSplineSet
EndChar

StartChar: Iota
Encoding: 921 921 60
Width: 1200
GlyphClass: 2
Flags: W
AnchorPoint: "Anchor-24" 575 1450 basechar 0
AnchorPoint: "Anchor-23" 757 1450 basechar 0
AnchorPoint: "Anchor-22" 743 0 basechar 0
AnchorPoint: "Anchor-20" 501 0 basechar 0
LayerCount: 2
Fore
SplineSet
288 140 m 1,0,-1
 438 140 l 1,1,-1
 645 1310 l 1,2,-1
 495 1310 l 1,3,-1
 519 1450 l 1,4,-1
 998 1450 l 1,5,-1
 973 1310 l 1,6,-1
 823 1310 l 1,7,-1
 617 140 l 1,8,-1
 767 140 l 1,9,-1
 742 0 l 1,10,-1
 264 0 l 1,11,-1
 288 140 l 1,0,-1
EndSplineSet
EndChar

StartChar: Kappa
Encoding: 922 922 61
Width: 1200
GlyphClass: 2
Flags: W
AnchorPoint: "Anchor-23" 600 1500 basechar 0
AnchorPoint: "Anchor-20" 600 0 basechar 0
LayerCount: 2
Fore
SplineSet
406 776 m 1,0,-1
 269 0 l 1,1,-1
 95 0 l 1,2,-1
 351 1452 l 1,3,-1
 525 1452 l 1,4,-1
 409 796 l 1,5,-1
 1027 1452 l 1,6,-1
 1245 1452 l 1,7,-1
 594 798 l 1,8,-1
 1047 0 l 1,9,-1
 831 0 l 1,10,-1
 406 776 l 1,0,-1
EndSplineSet
EndChar

StartChar: Lambda
Encoding: 923 923 62
Width: 1200
GlyphClass: 2
Flags: W
AnchorPoint: "Anchor-23" 759 1450 basechar 0
AnchorPoint: "Anchor-20" 503 0 basechar 0
LayerCount: 2
Fore
SplineSet
716 1230 m 1,0,-1
 118 0 l 1,1,-1
 -48 0 l 1,2,-1
 670 1450 l 1,3,-1
 830 1450 l 1,4,-1
 1050 0 l 1,5,-1
 890 0 l 1,6,-1
 716 1230 l 1,0,-1
EndSplineSet
EndChar

StartChar: Mu
Encoding: 924 924 63
Width: 1200
GlyphClass: 2
Flags: W
AnchorPoint: "Anchor-23" 600 1500 basechar 0
AnchorPoint: "Anchor-21" 981 0 basechar 0
AnchorPoint: "Anchor-20" 600 0 basechar 0
LayerCount: 2
Fore
SplineSet
281 1450 m 1,0,-1
 570 1450 l 1,1,-1
 613 633 l 1,2,-1
 944 1450 l 1,3,-1
 1237 1450 l 1,4,-1
 981 0 l 1,5,-1
 809 0 l 1,6,-1
 1022 1214 l 1,7,-1
 1004 1195 l 1,8,-1
 647 400 l 1,9,-1
 501 400 l 1,10,-1
 418 1195 l 1,11,-1
 410 1211 l 1,12,-1
 197 0 l 1,13,-1
 25 0 l 1,14,-1
 281 1450 l 1,0,-1
EndSplineSet
EndChar

StartChar: Nu
Encoding: 925 925 64
Width: 1200
GlyphClass: 2
Flags: W
AnchorPoint: "Anchor-23" 600 1500 basechar 0
AnchorPoint: "Anchor-20" 600 0 basechar 0
LayerCount: 2
Fore
SplineSet
337 1450 m 1,0,-1
 585 1450 l 1,1,-1
 736 486 l 1,2,-1
 777 234 l 1,3,-1
 993 1450 l 1,4,-1
 1169 1450 l 1,5,-1
 913 0 l 1,6,-1
 675 0 l 1,7,-1
 465 1192 l 1,8,-1
 253 0 l 1,9,-1
 81 0 l 1,10,-1
 337 1450 l 1,0,-1
EndSplineSet
EndChar

StartChar: Xi
Encoding: 926 926 65
Width: 1200
GlyphClass: 2
Flags: W
AnchorPoint: "Anchor-23" 768 1500 basechar 0
AnchorPoint: "Anchor-20" 503 0 basechar 0
LayerCount: 2
Fore
SplineSet
247 1450 m 1,0,-1
 1272 1450 l 1,1,-1
 1245 1298 l 1,2,-1
 221 1298 l 1,3,-1
 247 1450 l 1,0,-1
18 152 m 1,4,-1
 1043 152 l 1,5,-1
 1016 0 l 1,6,-1
 -8 0 l 1,7,-1
 18 152 l 1,4,-1
263 838 m 1,8,-1
 1040 838 l 1,9,-1
 1013 686 l 1,10,-1
 237 686 l 1,11,-1
 263 838 l 1,8,-1
EndSplineSet
EndChar

StartChar: Omicron
Encoding: 927 927 66
Width: 1200
GlyphClass: 2
Flags: W
AnchorPoint: "Anchor-26" 1193 1450 basechar 0
AnchorPoint: "Anchor-25" 630 720 basechar 0
AnchorPoint: "Anchor-24" 407 1450 basechar 0
AnchorPoint: "Anchor-23" 769 1450 basechar 0
AnchorPoint: "Anchor-22" 957 20 basechar 0
AnchorPoint: "Anchor-20" 513 0 basechar 0
LayerCount: 2
Fore
SplineSet
212.5 103.5 m 128,-1,1
 111 231 111 231 111 463 c 0,2,3
 111 585 111 585 136 722 c 0,4,5
 200 1095 200 1095 362 1278.5 c 128,-1,6
 524 1462 524 1462 761 1462 c 0,7,8
 1148 1462 1148 1462 1148 991 c 0,9,10
 1148 858 1148 858 1119 698 c 0,11,12
 1059 352 1059 352 917 164 c 128,-1,13
 775 -24 775 -24 523 -24 c 0,14,0
 314 -24 314 -24 212.5 103.5 c 128,-1,1
280 511 m 0,16,17
 280 348 280 348 337 245 c 128,-1,18
 394 142 394 142 518 142 c 0,19,20
 630 142 630 142 720.5 224.5 c 128,-1,21
 811 307 811 307 872 439.5 c 128,-1,22
 933 572 933 572 960 722 c 0,23,24
 977 826 977 826 977 913 c 0,25,26
 977 1080 977 1080 920.5 1189 c 128,-1,27
 864 1298 864 1298 742 1298 c 0,28,29
 630 1298 630 1298 537.5 1208 c 128,-1,30
 445 1118 445 1118 384 980.5 c 128,-1,31
 323 843 323 843 296 698 c 0,32,15
 280 599 280 599 280 511 c 0,16,17
EndSplineSet
EndChar

StartChar: Pi
Encoding: 928 928 67
Width: 1200
GlyphClass: 2
Flags: W
AnchorPoint: "Anchor-23" 768 1500 basechar 0
AnchorPoint: "Anchor-20" 503 0 basechar 0
LayerCount: 2
Fore
SplineSet
255 1450 m 1,0,-1
 1262 1450 l 1,1,-1
 1006 0 l 1,2,-1
 830 0 l 1,3,-1
 1059 1298 l 1,4,-1
 405 1298 l 1,5,-1
 176 0 l 1,6,-1
 0 0 l 1,7,-1
 255 1450 l 1,0,-1
EndSplineSet
EndChar

StartChar: Rho
Encoding: 929 929 68
Width: 1200
GlyphClass: 2
Flags: W
AnchorPoint: "Anchor-24" 334 1448 basechar 0
AnchorPoint: "Anchor-23" 768 1500 basechar 0
AnchorPoint: "Anchor-20" 503 0 basechar 0
LayerCount: 2
Fore
SplineSet
435 1450 m 1,0,-1
 692 1450 l 2,1,2
 880 1450 880 1450 983.5 1379.5 c 128,-1,3
 1087 1309 1087 1309 1087 1141 c 0,4,5
 1087 1086 1087 1086 1075 1018 c 0,6,7
 1036 794 1036 794 903 702 c 128,-1,8
 770 610 770 610 562 610 c 2,9,-1
 462 610 l 1,10,-1
 354 0 l 1,11,-1
 180 0 l 1,12,-1
 435 1450 l 1,0,-1
503 756 m 2,13,14
 625 756 625 756 700 775.5 c 128,-1,15
 775 795 775 795 826.5 857 c 128,-1,16
 878 919 878 919 901 1044 c 0,17,18
 909 1094 909 1094 909 1126 c 0,19,20
 909 1198 909 1198 879.5 1236.5 c 128,-1,21
 850 1275 850 1275 797 1288.5 c 128,-1,22
 744 1302 744 1302 660 1302 c 2,23,-1
 584 1302 l 1,24,-1
 488 756 l 1,25,-1
 503 756 l 2,13,14
EndSplineSet
EndChar

StartChar: Sigma
Encoding: 931 931 69
Width: 1200
GlyphClass: 2
Flags: W
AnchorPoint: "Anchor-23" 768 1500 basechar 0
AnchorPoint: "Anchor-20" 503 0 basechar 0
LayerCount: 2
Fore
SplineSet
12 148 m 1,0,-1
 510 740 l 1,1,-1
 220 1302 l 1,2,-1
 243 1450 l 1,3,-1
 1274 1450 l 1,4,-1
 1248 1302 l 1,5,-1
 396 1302 l 1,6,-1
 695 736 l 1,7,-1
 197 148 l 1,8,-1
 1044 148 l 1,9,-1
 1018 0 l 1,10,-1
 -12 0 l 1,11,-1
 12 148 l 1,0,-1
EndSplineSet
EndChar

StartChar: Tau
Encoding: 932 932 70
Width: 1200
GlyphClass: 2
Flags: W
AnchorPoint: "Anchor-25" 626 700 basechar 0
AnchorPoint: "Anchor-24" 249 1450 basechar 0
AnchorPoint: "Anchor-23" 600 1500 basechar 0
AnchorPoint: "Anchor-20" 600 0 basechar 0
LayerCount: 2
Fore
SplineSet
648 1298 m 1,0,-1
 222 1298 l 1,1,-1
 249 1450 l 1,2,-1
 1267 1450 l 1,3,-1
 1240 1298 l 1,4,-1
 814 1298 l 1,5,-1
 585 0 l 1,6,-1
 419 0 l 1,7,-1
 648 1298 l 1,0,-1
EndSplineSet
EndChar

StartChar: Upsilon
Encoding: 933 933 71
Width: 1200
GlyphClass: 2
Flags: W
AnchorPoint: "Anchor-24" 205 1406 basechar 0
AnchorPoint: "Anchor-23" 759 1454 basechar 0
AnchorPoint: "Anchor-20" 503 0 basechar 0
LayerCount: 2
Fore
SplineSet
527 608 m 1,0,-1
 212 1454 l 1,1,-1
 421 1454 l 1,2,-1
 642 824 l 1,3,-1
 1095 1454 l 1,4,-1
 1311 1454 l 1,5,-1
 700 608 l 1,6,-1
 590 0 l 1,7,-1
 418 0 l 1,8,-1
 527 608 l 1,0,-1
EndSplineSet
EndChar

StartChar: Phi
Encoding: 934 934 72
Width: 1200
GlyphClass: 2
Flags: W
AnchorPoint: "Anchor-26" 1271 1450 basechar 0
AnchorPoint: "Anchor-25" 592 506 basechar 0
AnchorPoint: "Anchor-24" 269 1450 basechar 0
AnchorPoint: "Anchor-23" 759 1450 basechar 0
AnchorPoint: "Anchor-22" 965 0 basechar 0
AnchorPoint: "Anchor-20" 503 0 basechar 0
LayerCount: 2
Fore
SplineSet
1061 1318 m 1,0,-1
 839 1318 l 1,1,-1
 819 1203 l 1,2,3
 992 1185 992 1185 1070 1107 c 128,-1,4
 1148 1029 1148 1029 1148 873 c 0,5,6
 1148 800 1148 800 1129 692 c 0,7,8
 1104 542 1104 542 1048.5 449.5 c 128,-1,9
 993 357 993 357 896.5 310 c 128,-1,10
 800 263 800 263 648 253 c 1,11,-1
 628 130 l 1,12,-1
 851 130 l 1,13,-1
 828 0 l 1,14,-1
 178 0 l 1,15,-1
 201 130 l 1,16,-1
 422 130 l 1,17,-1
 443 254 l 1,18,19
 268 269 268 269 188.5 342 c 128,-1,20
 109 415 109 415 109 562 c 0,21,22
 109 633 109 633 125 716 c 0,23,24
 154 885 154 885 211 988 c 128,-1,25
 268 1091 268 1091 365.5 1143 c 128,-1,26
 463 1195 463 1195 615 1205 c 1,27,-1
 633 1318 l 1,28,-1
 410 1318 l 1,29,-1
 433 1450 l 1,30,-1
 1084 1450 l 1,31,-1
 1061 1318 l 1,0,-1
291.5 597 m 128,-1,33
 287 561 287 561 287 531 c 0,34,35
 287 478 287 478 304 444 c 128,-1,36
 321 410 321 410 362.5 390.5 c 128,-1,37
 404 371 404 371 478 365 c 1,38,-1
 610 1090 l 1,39,40
 506 1073 506 1073 445.5 1018.5 c 128,-1,41
 385 964 385 964 356 887 c 128,-1,42
 327 810 327 810 305 692 c 0,43,32
 296 633 296 633 291.5 597 c 128,-1,33
863 493.5 m 128,-1,45
 927 587 927 587 951 716 c 0,46,47
 966 810 966 810 966 862 c 0,48,49
 966 954 966 954 926 1012.5 c 128,-1,50
 886 1071 886 1071 788 1089 c 1,51,-1
 658 372 l 1,52,44
 799 400 799 400 863 493.5 c 128,-1,45
EndSplineSet
EndChar

StartChar: Chi
Encoding: 935 935 73
Width: 1200
GlyphClass: 2
Flags: W
AnchorPoint: "Anchor-23" 600 1450 basechar 0
AnchorPoint: "Anchor-21" 916 -94 basechar 0
AnchorPoint: "Anchor-20" 600 0 basechar 0
LayerCount: 2
Fore
SplineSet
276 1450 m 1,0,-1
 277 1284 l 1,1,-1
 50 1284 l 1,2,-1
 50 1450 l 1,3,-1
 276 1450 l 1,0,-1
538 752 m 1,4,-1
 277 1450 l 1,5,-1
 469 1450 l 1,6,-1
 651 904 l 1,7,-1
 1039 1450 l 1,8,-1
 1229 1450 l 1,9,-1
 728 774 l 1,10,-1
 1007 0 l 1,11,-1
 823 0 l 1,12,-1
 614 622 l 1,13,-1
 185 0 l 1,14,-1
 -3 0 l 1,15,-1
 538 752 l 1,4,-1
EndSplineSet
EndChar

StartChar: Psi
Encoding: 936 936 74
Width: 1200
GlyphClass: 2
Flags: W
AnchorPoint: "Anchor-23" 768 1500 basechar 0
AnchorPoint: "Anchor-20" 503 0 basechar 0
LayerCount: 2
Fore
SplineSet
488 423 m 1,0,1
 155 462 155 462 155 787 c 0,2,3
 155 855 155 855 170 936 c 0,4,5
 172 948 172 948 185 1017 c 0,6,7
 204 1118 204 1118 215.5 1196 c 128,-1,8
 227 1274 227 1274 227 1347 c 0,9,10
 227 1410 227 1410 215 1461 c 1,11,-1
 389 1451 l 1,12,13
 397 1411 397 1411 397 1352 c 0,14,15
 397 1271 397 1271 383 1181.5 c 128,-1,16
 369 1092 369 1092 346 973 c 0,17,18
 339 943 339 943 334 912 c 0,19,20
 322 845 322 845 322 790 c 0,21,22
 322 692 322 692 366.5 638.5 c 128,-1,23
 411 585 411 585 514 571 c 1,24,-1
 669 1450 l 1,25,-1
 852 1450 l 1,26,-1
 697 574 l 1,27,28
 830 598 830 598 899 686.5 c 128,-1,29
 968 775 968 775 998 936 c 1,30,-1
 1006 991 l 2,31,32
 1029 1143 1029 1143 1054.5 1259 c 128,-1,33
 1080 1375 1080 1375 1128 1462 c 1,34,-1
 1309 1450 l 1,35,36
 1258 1366 1258 1366 1229.5 1251.5 c 128,-1,37
 1201 1137 1201 1137 1175 986 c 2,38,-1
 1162 912 l 2,39,40
 1122 682 1122 682 1000.5 561.5 c 128,-1,41
 879 441 879 441 670 422 c 1,42,-1
 596 0 l 1,43,-1
 414 0 l 1,44,-1
 488 423 l 1,0,1
EndSplineSet
EndChar

StartChar: uni03A9
Encoding: 937 937 75
Width: 1200
GlyphClass: 2
Flags: W
AnchorPoint: "Anchor-24" 305 1450 basechar 0
AnchorPoint: "Anchor-23" 750 1500 basechar 0
AnchorPoint: "Anchor-21" 945 0 basechar 0
AnchorPoint: "Anchor-20" 485 0 basechar 0
LayerCount: 2
Fore
SplineSet
56 170 m 1,0,-1
 292 170 l 1,1,-1
 305 200 l 1,2,3
 249 233 249 233 199.5 297.5 c 128,-1,4
 150 362 150 362 119.5 457 c 128,-1,5
 89 552 89 552 89 668 c 0,6,7
 89 753 89 753 106 841 c 0,8,9
 137 1029 137 1029 225 1170 c 128,-1,10
 313 1311 313 1311 444.5 1387.5 c 128,-1,11
 576 1464 576 1464 733 1464 c 0,12,13
 948 1464 948 1464 1061.5 1344.5 c 128,-1,14
 1175 1225 1175 1225 1175 1006 c 0,15,16
 1175 914 1175 914 1156 815 c 0,17,18
 1129 652 1129 652 1062.5 526 c 128,-1,19
 996 400 996 400 912.5 319 c 128,-1,20
 829 238 829 238 745 197 c 1,21,-1
 737 170 l 1,22,-1
 974 170 l 1,23,-1
 944 0 l 1,24,-1
 544 0 l 1,25,-1
 584 263 l 1,26,27
 679 282 679 282 761.5 373 c 128,-1,28
 844 464 844 464 901 590.5 c 128,-1,29
 958 717 958 717 982 841 c 0,30,31
 990 895 990 895 990 947 c 0,32,33
 990 1044 990 1044 963.5 1128 c 128,-1,34
 937 1212 937 1212 877.5 1265 c 128,-1,35
 818 1318 818 1318 726 1318 c 0,36,37
 610 1318 610 1318 516 1242 c 128,-1,38
 422 1166 422 1166 361.5 1050 c 128,-1,39
 301 934 301 934 278 815 c 0,40,41
 264 729 264 729 264 646 c 0,42,43
 264 494 264 494 312.5 388.5 c 128,-1,44
 361 283 361 283 466 261 c 1,45,-1
 426 0 l 1,46,-1
 26 0 l 1,47,-1
 56 170 l 1,0,-1
EndSplineSet
EndChar

StartChar: alpha
Encoding: 945 945 76
Width: 1200
VWidth: 1000
GlyphClass: 2
Flags: W
HStem: -22 44<350 450 350 469 985 1018> 840 44<583 694 483 717>
VStem: 82 148<223 289 176 457> 818 134
LayerCount: 2
Fore
SplineSet
908 472 m 6,0,-1
 908 348 l 5,1,2
 1038 510 1038 510 1104 744 c 5,3,4
 1124.26464844 783.71875 1124.26464844 783.71875 1134 786 c 4,5,6
 1158 786 1158 786 1158 766 c 4,7,8
 1158 754 1158 754 1142 697 c 132,-1,9
 1126 640 1126 640 1069 520 c 132,-1,10
 1012 400 1012 400 928 296 c 4,11,12
 908 272 908 272 908 226 c 4,13,14
 908 22 908 22 970 22 c 4,15,16
 1046 22 1046 22 1082 120 c 4,17,18
 1090 140 1090 140 1108 140 c 4,19,20
 1132 140 1132 140 1132 120 c 4,21,22
 1132 86 1132 86 1083 32 c 132,-1,23
 1034 -22 1034 -22 964 -22 c 4,24,25
 824 -22 824 -22 782 146 c 5,26,27
 572 -22 572 -22 360 -22 c 4,28,29
 212 -22 212 -22 124 75 c 132,-1,30
 36 172 36 172 36 316 c 4,31,32
 36 528 36 528 203 706 c 132,-1,33
 370 884 370 884 574 884 c 4,34,35
 706 884 706 884 807 785 c 132,-1,36
 908 686 908 686 908 472 c 6,0,-1
774 198 m 5,37,38
 770 232 770 232 770 422 c 4,39,40
 770 476 770 476 769 508 c 132,-1,41
 768 540 768 540 763 598 c 132,-1,42
 758 656 758 656 745 691 c 132,-1,43
 732 726 732 726 711 764 c 132,-1,44
 690 802 690 802 655 821 c 132,-1,45
 620 840 620 840 572 840 c 4,46,47
 418 840 418 840 300 656 c 4,48,49
 254 584 254 584 219 451 c 132,-1,50
 184 318 184 318 184 240 c 4,51,52
 184 140 184 140 230 81 c 132,-1,53
 276 22 276 22 364 22 c 4,54,55
 572 22 572 22 774 198 c 5,37,38
EndSplineSet
EndChar

StartChar: beta
Encoding: 946 946 77
Width: 1200
VWidth: 2048
GlyphClass: 2
Flags: W
LayerCount: 2
Fore
SplineSet
52 -465 m 4,0,1
 52 -438 52 -438 167 -10 c 6,2,-1
 323 567 l 6,3,4
 415 905 415 905 473.5 1054.5 c 132,-1,5
 532 1204 532 1204 634 1313 c 4,6,7
 759 1444 759 1444 900 1444 c 4,8,9
 1009 1444 1009 1444 1084.5 1377.5 c 132,-1,10
 1160 1311 1160 1311 1160 1198 c 4,11,12
 1160 1089 1160 1089 1086.5 988 c 132,-1,13
 1013 887 1013 887 870 825 c 5,14,15
 1024 745 1024 745 1023.5 538.5 c 132,-1,16
 1023 332 1023 332 871.5 154.5 c 132,-1,17
 720 -23 720 -23 525 -23 c 4,18,19
 410 -23 410 -23 300 27 c 5,20,21
 173 -458 173 -458 165 -473 c 4,22,23
 142 -510 142 -510 99 -510 c 4,24,25
 52 -510 52 -510 52 -465 c 4,0,1
337 162 m 4,26,27
 337 115 337 115 396.5 65.5 c 132,-1,28
 456 16 456 16 536 16 c 4,29,30
 620 16 620 16 689.5 81.5 c 132,-1,31
 759 147 759 147 798 244.5 c 132,-1,32
 837 342 837 342 858.5 436 c 132,-1,33
 880 530 880 530 880 602 c 4,34,35
 880 713 880 713 838 756 c 132,-1,36
 796 799 796 799 741 799 c 4,37,38
 714 799 714 799 644.5 785.5 c 132,-1,39
 575 772 575 772 552 772 c 4,40,41
 507 772 507 772 507 811 c 4,42,43
 507 836 507 836 527.5 858.5 c 132,-1,44
 548 881 548 881 579 881 c 4,45,46
 591 881 591 881 662.5 867.5 c 132,-1,47
 734 854 734 854 759 854 c 4,48,49
 857 854 857 854 944 966.5 c 132,-1,50
 1031 1079 1031 1079 1031 1210 c 4,51,52
 1031 1288 1031 1288 993.5 1340.5 c 132,-1,53
 956 1393 956 1393 882 1393 c 4,54,55
 747 1393 747 1393 634 1229 c 4,56,57
 587 1161 587 1161 552 1064 c 132,-1,58
 517 967 517 967 496.5 873.5 c 132,-1,59
 476 780 476 780 432 577.5 c 132,-1,60
 388 375 388 375 343 197 c 4,61,62
 337 166 337 166 337 162 c 4,26,27
EndSplineSet
EndChar

StartChar: gamma
Encoding: 947 947 78
Width: 1200
GlyphClass: 2
Flags: W
HStem: -430 42<614 635> 740 144<389 495 301 551>
VStem: 724 50
LayerCount: 2
Fore
SplineSet
107 508 m 5,0,-1
 99 498 l 5,1,2
 61 498 61 498 61 518 c 4,3,4
 61 546 61 546 88 602 c 132,-1,5
 115 658 115 658 161 723 c 132,-1,6
 207 788 207 788 286 836 c 132,-1,7
 365 884 365 884 451 884 c 4,8,9
 631 884 631 884 717 664 c 4,10,11
 791 478 791 478 799 256 c 5,12,13
 957 652 957 652 1063 848 c 4,14,15
 1069 862 1069 862 1087 862 c 4,16,17
 1111 862 1111 862 1111 842 c 4,18,19
 1111 832 1111 832 1073 766 c 4,20,21
 905 434 905 434 801 112 c 4,22,23
 793 86 793 86 785 34 c 4,24,25
 767 -106 767 -106 711 -310 c 4,26,27
 677 -430 677 -430 647 -430 c 4,28,29
 621 -430 621 -430 621 -394 c 4,30,31
 621 -310 621 -310 725 36 c 4,32,33
 749 104 749 104 749 232 c 4,34,35
 749 740 749 740 425 740 c 4,36,37
 403 740 403 740 374 735 c 132,-1,38
 345 730 345 730 289 711 c 132,-1,39
 233 692 233 692 183 640 c 132,-1,40
 133 588 133 588 107 508 c 5,0,-1
EndSplineSet
EndChar

StartChar: delta
Encoding: 948 948 79
Width: 1200
VWidth: 1000
GlyphClass: 2
Flags: W
HStem: -24 44<345 493 345 517> 1358 64<558 602>
VStem: 84 124<216 319 180 433> 408 54<1222 1276> 662 138<428 558>
LayerCount: 2
Fore
SplineSet
658 874 m 5,0,1
 616 956 616 956 597 997 c 132,-1,2
 578 1038 578 1038 558 1102 c 132,-1,3
 538 1166 538 1166 538 1216 c 4,4,5
 538 1310 538 1310 596 1366 c 132,-1,6
 654 1422 654 1422 766 1422 c 4,7,8
 826 1422 826 1422 930 1400 c 4,9,10
 974 1390 974 1390 991 1385 c 132,-1,11
 1008 1380 1008 1380 1021 1368 c 132,-1,12
 1034 1356 1034 1356 1034 1334 c 4,13,14
 1034 1306 1034 1306 1011 1280 c 132,-1,15
 988 1254 988 1254 954 1254 c 4,16,17
 928 1254 928 1254 844 1304 c 4,18,19
 762 1358 762 1358 702 1358 c 4,20,21
 652 1358 652 1358 622 1330 c 132,-1,22
 592 1302 592 1302 592 1266 c 4,23,24
 592 1176 592 1176 782 938 c 4,25,26
 832 874 832 874 854 839 c 132,-1,27
 876 804 876 804 903 727 c 132,-1,28
 930 650 930 650 930 566 c 4,29,30
 930 426 930 426 880 291 c 132,-1,31
 830 156 830 156 736 66 c 132,-1,32
 642 -24 642 -24 530 -24 c 4,33,34
 390 -24 390 -24 302 71 c 132,-1,35
 214 166 214 166 214 312 c 4,36,37
 214 496 214 496 343 663 c 132,-1,38
 472 830 472 830 658 874 c 5,0,1
682 830 m 5,39,40
 588 804 588 804 516 729 c 132,-1,41
 444 654 444 654 408 561 c 132,-1,42
 372 468 372 468 355 390 c 132,-1,43
 338 312 338 312 338 256 c 4,44,45
 338 144 338 144 391 82 c 132,-1,46
 444 20 444 20 530 20 c 132,-1,47
 616 20 616 20 679 112 c 132,-1,48
 742 204 742 204 767 306 c 132,-1,49
 792 408 792 408 792 486 c 4,50,51
 792 552 792 552 772 622 c 132,-1,52
 752 692 752 692 735 729 c 132,-1,53
 718 766 718 766 682 830 c 5,39,40
EndSplineSet
EndChar

StartChar: epsilon
Encoding: 949 949 80
Width: 1200
VWidth: 2048
GlyphClass: 2
Flags: W
LayerCount: 2
Fore
SplineSet
215 182 m 4,0,1
 215 364 215 364 507 465 c 5,2,3
 327 520 327 520 327 635 c 4,4,5
 327 746 327 746 446 825.5 c 132,-1,6
 565 905 565 905 724 905 c 4,7,8
 800 905 800 905 857.5 878.5 c 132,-1,9
 915 852 915 852 942.5 812 c 132,-1,10
 970 772 970 772 983.5 739.5 c 132,-1,11
 997 707 997 707 997 682 c 4,12,13
 997 653 997 653 975.5 631.5 c 132,-1,14
 954 610 954 610 927 610 c 4,15,16
 894 610 894 610 894 647 c 4,17,18
 894 649 894 649 895.5 661.5 c 132,-1,19
 897 674 897 674 897 684 c 4,20,21
 897 764 897 764 845.5 811 c 132,-1,22
 794 858 794 858 720 858 c 4,23,24
 624 858 624 858 552.5 785.5 c 132,-1,25
 481 713 481 713 481 637 c 4,26,27
 481 576 481 576 527 536 c 132,-1,28
 573 496 573 496 612 496 c 4,29,30
 632 496 632 496 679.5 508 c 132,-1,31
 727 520 727 520 747 520 c 4,32,33
 796 520 796 520 796 479 c 4,34,35
 796 454 796 454 775.5 434 c 132,-1,36
 755 414 755 414 724 414 c 4,37,38
 704 414 704 414 655 426 c 132,-1,39
 606 438 606 438 593 438 c 4,40,41
 536 438 536 438 452 361.5 c 132,-1,42
 368 285 368 285 368 178 c 4,43,44
 368 121 368 121 404 75 c 132,-1,45
 440 29 440 29 518 29 c 4,46,47
 600 29 600 29 691 74 c 132,-1,48
 782 119 782 119 843 201 c 4,49,50
 872 236 872 236 878 238 c 4,51,52
 886 240 886 240 892.5 233.5 c 132,-1,53
 899 227 899 227 899 216 c 132,-1,54
 899 205 899 205 890 193 c 4,55,56
 845 113 845 113 735.5 45 c 132,-1,57
 626 -23 626 -23 495 -23 c 4,58,59
 384 -23 384 -23 299.5 29.5 c 132,-1,60
 215 82 215 82 215 182 c 4,0,1
EndSplineSet
EndChar

StartChar: zeta
Encoding: 950 950 81
Width: 1200
VWidth: 2048
GlyphClass: 2
Flags: W
LayerCount: 2
Fore
SplineSet
184 266 m 4,0,1
 184 438 184 438 283.5 689 c 132,-1,2
 383 940 383 940 549 1065 c 4,3,4
 582 1090 582 1090 641 1120 c 5,5,6
 502 1153 502 1153 502 1241 c 4,7,8
 502 1321 502 1321 582 1371 c 132,-1,9
 662 1421 662 1421 737 1421 c 4,10,11
 770 1421 770 1421 770 1403 c 4,12,13
 770 1387 770 1387 759 1379.5 c 132,-1,14
 748 1372 748 1372 731.5 1370 c 132,-1,15
 715 1368 715 1368 690.5 1359 c 132,-1,16
 666 1350 666 1350 645 1331 c 4,17,18
 606 1296 606 1296 606 1251 c 4,19,20
 606 1202 606 1202 660.5 1178.5 c 132,-1,21
 715 1155 715 1155 754 1155 c 4,22,23
 770 1155 770 1155 843 1179.5 c 132,-1,24
 916 1204 916 1204 954 1204 c 4,25,26
 991 1204 991 1204 1014.5 1186.5 c 132,-1,27
 1038 1169 1038 1169 1038 1141 c 4,28,29
 1038 1108 1038 1108 1004.5 1078.5 c 132,-1,30
 971 1049 971 1049 916 1049 c 4,31,32
 877 1049 877 1049 816.5 1073.5 c 132,-1,33
 756 1098 756 1098 737 1098 c 4,34,35
 710 1098 710 1098 665.5 1081.5 c 132,-1,36
 621 1065 621 1065 544 1000.5 c 132,-1,37
 467 936 467 936 408 836 c 4,38,39
 342 723 342 723 296 580.5 c 132,-1,40
 250 438 250 438 250 362 c 4,41,42
 250 153 250 153 436 154 c 6,43,-1
 625 154 l 6,44,45
 729 154 729 154 773 99.5 c 132,-1,46
 817 45 817 45 817 -33 c 4,47,48
 817 -125 817 -125 765 -192.5 c 132,-1,49
 713 -260 713 -260 631 -294 c 132,-1,50
 549 -328 549 -328 469 -343 c 132,-1,51
 389 -358 389 -358 311 -358 c 4,52,53
 286 -358 286 -358 276 -349 c 132,-1,54
 266 -340 266 -340 277 -324 c 4,55,56
 285 -310 285 -310 306.5 -307.5 c 132,-1,57
 328 -305 328 -305 381 -305 c 132,-1,58
 434 -305 434 -305 492 -295 c 4,59,60
 699 -258 699 -258 698 -109 c 4,61,62
 698 0 698 0 590 0 c 6,63,-1
 395 0 l 6,64,65
 184 0 184 0 184 266 c 4,0,1
EndSplineSet
EndChar

StartChar: eta
Encoding: 951 951 82
Width: 1200
VWidth: 2048
GlyphClass: 2
Flags: W
LayerCount: 2
Fore
SplineSet
156 674 m 4,0,1
 156 721 156 721 239 813 c 132,-1,2
 322 905 322 905 418 905 c 4,3,4
 570 905 570 905 570 690 c 6,5,-1
 570 676 l 5,6,7
 627 768 627 768 715 836.5 c 132,-1,8
 803 905 803 905 892 905 c 4,9,10
 1050 905 1050 905 1049 690 c 4,11,12
 1049 612 1049 612 1022.5 493.5 c 132,-1,13
 996 375 996 375 940.5 132 c 132,-1,14
 885 -111 885 -111 840 -393 c 4,15,16
 824 -514 824 -514 738 -514 c 4,17,18
 713 -514 713 -514 696 -497.5 c 132,-1,19
 679 -481 679 -481 679 -457 c 4,20,21
 679 -439 679 -439 685 -416 c 6,22,-1
 896 430 l 6,23,24
 951 657 951 657 951 729 c 4,25,26
 951 842 951 842 871 842 c 4,27,28
 779 842 779 842 683.5 742.5 c 132,-1,29
 588 643 588 643 541 514 c 4,30,31
 527 471 527 471 478 270.5 c 132,-1,32
 429 70 429 70 418 47 c 4,33,34
 389 -10 389 -10 330 -10 c 4,35,36
 303 -10 303 -10 286 5 c 132,-1,37
 269 20 269 20 269 47 c 4,38,39
 269 57 269 57 279 98 c 6,40,-1
 406 610 l 6,41,42
 431 710 431 710 431 752 c 4,43,44
 431 832 431 832 369 831 c 4,45,46
 330 831 330 831 301.5 802.5 c 132,-1,47
 273 774 273 774 257.5 738 c 132,-1,48
 242 702 242 702 223.5 673.5 c 132,-1,49
 205 645 205 645 185 645 c 4,50,51
 156 645 156 645 156 674 c 4,0,1
EndSplineSet
EndChar

StartChar: theta
Encoding: 952 952 83
Width: 1200
VWidth: 1000
GlyphClass: 2
Flags: W
HStem: -22 44<291 367 291 465> 662 64<296 696 280 714> 1366 44<623 717>
VStem: 84 132<294 308 173 617> 778 132<776 1181>
LayerCount: 2
Fore
SplineSet
1041 1000 m 4,0,1
 1041 780 1041 780 955 540 c 132,-1,2
 869 300 869 300 730 139 c 132,-1,3
 591 -22 591 -22 455 -22 c 4,4,5
 331 -22 331 -22 273 100 c 132,-1,6
 215 222 215 222 215 388 c 4,7,8
 215 612 215 612 302 852 c 132,-1,9
 389 1092 389 1092 528 1251 c 132,-1,10
 667 1410 667 1410 801 1410 c 4,11,12
 873 1410 873 1410 924 1366 c 132,-1,13
 975 1322 975 1322 998 1253 c 132,-1,14
 1021 1184 1021 1184 1031 1122 c 132,-1,15
 1041 1060 1041 1060 1041 1000 c 4,0,1
427 726 m 5,16,-1
 845 726 l 5,17,18
 909 990 909 990 909 1124 c 4,19,20
 909 1366 909 1366 799 1366 c 4,21,22
 697 1366 697 1366 581 1156 c 4,23,24
 505 1022 505 1022 427 726 c 5,16,-1
827 662 m 5,25,-1
 411 662 l 5,26,27
 347 420 347 420 347 266 c 4,28,29
 347 22 347 22 455 22 c 4,30,31
 567 22 567 22 687 256 c 4,32,33
 765 404 765 404 827 662 c 5,25,-1
EndSplineSet
EndChar

StartChar: iota
Encoding: 953 953 84
Width: 1200
VWidth: 2048
GlyphClass: 2
Flags: W
LayerCount: 2
Fore
SplineSet
383 139 m 4,0,1
 383 176 383 176 411.5 295 c 132,-1,2
 440 414 440 414 487.5 594 c 132,-1,3
 535 774 535 774 559 881 c 5,4,-1
 713 881 l 5,5,-1
 524 246 l 6,6,7
 508 191 508 191 508 158 c 4,8,9
 508 113 508 113 529.5 92.5 c 132,-1,10
 551 72 551 72 576 72 c 4,11,12
 619 72 619 72 649.5 118 c 132,-1,13
 680 164 680 164 701.5 209 c 132,-1,14
 723 254 723 254 743 254 c 4,15,16
 759 254 759 254 760 238 c 4,17,18
 760 226 760 226 731.5 167.5 c 132,-1,19
 703 109 703 109 642.5 43 c 132,-1,20
 582 -23 582 -23 516 -23 c 4,21,22
 453 -23 453 -23 418 24 c 132,-1,23
 383 71 383 71 383 139 c 4,0,1
EndSplineSet
EndChar

StartChar: kappa
Encoding: 954 954 85
Width: 1200
VWidth: 1000
GlyphClass: 2
Flags: W
HStem: -22 44<845 894> 684 178<889 952>
VStem: 692 136<285 355> 844 184<742 801>
LayerCount: 2
Fore
SplineSet
122 78 m 6,0,-1
 306 812 l 6,1,2
 324 884 324 884 386 884 c 4,3,4
 444 884 444 884 444 830 c 5,5,-1
 408 674 l 6,6,7
 402 654 402 654 386 589 c 132,-1,8
 370 524 370 524 368 518 c 5,9,10
 424 536 424 536 474 569 c 132,-1,11
 524 602 524 602 624 688 c 4,12,13
 686 740 686 740 724 769 c 132,-1,14
 762 798 762 798 829 830 c 132,-1,15
 896 862 896 862 952 862 c 4,16,17
 984 862 984 862 1004 847 c 132,-1,18
 1024 832 1024 832 1028 819 c 132,-1,19
 1032 806 1032 806 1032 792 c 4,20,21
 1032 752 1032 752 1001 718 c 132,-1,22
 970 684 970 684 924 684 c 4,23,24
 882 684 882 684 865 707 c 132,-1,25
 848 730 848 730 848 754 c 4,26,27
 848 772 848 772 858 798 c 5,28,29
 776 762 776 762 628 638 c 4,30,31
 512 538 512 538 444 502 c 5,32,33
 832 488 832 488 832 296 c 4,34,35
 832 276 832 276 822 230 c 4,36,37
 806 162 806 162 806 118 c 4,38,39
 806 22 806 22 870 22 c 4,40,41
 932 22 932 22 972 86 c 132,-1,42
 1012 150 1012 150 1044 270 c 4,43,44
 1048 292 1048 292 1053 299 c 132,-1,45
 1058 306 1058 306 1072 306 c 4,46,47
 1096 306 1096 306 1096 286 c 4,48,49
 1096 282 1096 282 1089 251 c 132,-1,50
 1082 220 1082 220 1063 170 c 132,-1,51
 1044 120 1044 120 1022 82 c 4,52,53
 960 -22 960 -22 866 -22 c 4,54,55
 786 -22 786 -22 734 33 c 132,-1,56
 682 88 682 88 682 176 c 4,57,58
 682 206 682 206 692 246 c 4,59,60
 696 266 696 266 696 290 c 4,61,62
 696 448 696 448 354 460 c 5,63,64
 326 350 326 350 307 273 c 132,-1,65
 288 196 288 196 282 174 c 132,-1,66
 276 152 276 152 271 133 c 132,-1,67
 266 114 266 114 260 90 c 4,68,69
 250 50 250 50 243 31 c 132,-1,70
 236 12 236 12 218 -5 c 132,-1,71
 200 -22 200 -22 172 -22 c 4,72,73
 148 -22 148 -22 131 -8 c 132,-1,74
 114 6 114 6 114 32 c 4,75,76
 114 50 114 50 122 78 c 6,0,-1
EndSplineSet
EndChar

StartChar: lambda
Encoding: 955 955 86
Width: 1200
VWidth: 2048
GlyphClass: 2
Flags: W
LayerCount: 2
Fore
SplineSet
133 0 m 5,0,-1
 759 840 l 6,1,2
 782 871 782 871 786 881 c 132,-1,3
 790 891 790 891 790 922 c 6,4,-1
 790 1055 l 6,5,6
 790 1106 790 1106 788 1132.5 c 132,-1,7
 786 1159 786 1159 778 1203 c 132,-1,8
 770 1247 770 1247 747 1268.5 c 132,-1,9
 724 1290 724 1290 688 1290 c 4,10,11
 637 1290 637 1290 591.5 1250 c 132,-1,12
 546 1210 546 1210 538 1210 c 4,13,14
 518 1210 518 1210 518 1231 c 4,15,16
 518 1243 518 1243 544.5 1292 c 132,-1,17
 571 1341 571 1341 622 1392.5 c 132,-1,18
 673 1444 673 1444 724 1444 c 4,19,20
 769 1444 769 1444 799 1412 c 132,-1,21
 829 1380 829 1380 840 1323 c 132,-1,22
 851 1266 851 1266 855.5 1217.5 c 132,-1,23
 860 1169 860 1169 860 1104 c 6,24,-1
 860 354 l 6,25,26
 860 235 860 235 871 184 c 132,-1,27
 882 133 882 133 913 133 c 4,28,29
 940 133 940 133 975.5 173 c 132,-1,30
 1011 213 1011 213 1024 213 c 4,31,32
 1042 213 1042 213 1042 190 c 4,33,34
 1042 184 1042 184 1020.5 135 c 132,-1,35
 999 86 999 86 958 31.5 c 132,-1,36
 917 -23 917 -23 876 -23 c 4,37,38
 827 -23 827 -23 808.5 62 c 132,-1,39
 790 147 790 147 790 334 c 6,40,-1
 790 676 l 5,41,42
 772 649 772 649 735 600 c 6,43,-1
 307 27 l 6,44,45
 287 0 287 0 260 0 c 6,46,-1
 133 0 l 5,0,-1
EndSplineSet
EndChar

StartChar: uni03BC
Encoding: 956 956 87
Width: 1200
GlyphClass: 2
Flags: W
HStem: -432 42<99 137> -22 44<470 560 913 971> 844 40<431 451>
LayerCount: 2
Fore
SplineSet
457 702 m 6,0,-1
 373 366 l 6,1,2
 345 254 345 254 345 196 c 4,3,4
 345 22 345 22 493 22 c 4,5,6
 539 22 539 22 582 41 c 132,-1,7
 625 60 625 60 654 87 c 132,-1,8
 683 114 683 114 707 143 c 132,-1,9
 731 172 731 172 742 191 c 132,-1,10
 753 210 753 210 753 214 c 4,11,12
 769 264 769 264 805 418 c 6,13,-1
 899 792 l 6,14,15
 915 862 915 862 977 862 c 4,16,17
 1001 862 1001 862 1018 848 c 132,-1,18
 1035 834 1035 834 1035 808 c 4,19,20
 1035 802 1035 802 1030 780 c 132,-1,21
 1025 758 1025 758 1017 724 c 132,-1,22
 1009 690 1009 690 1005 674 c 4,23,24
 977 572 977 572 971 538 c 6,25,-1
 915 322 l 6,26,27
 875 148 875 148 875 114 c 4,28,29
 875 22 875 22 935 22 c 4,30,31
 991 22 991 22 1023 85 c 132,-1,32
 1055 148 1055 148 1087 270 c 4,33,34
 1091 292 1091 292 1096 299 c 132,-1,35
 1101 306 1101 306 1115 306 c 4,36,37
 1139 306 1139 306 1139 286 c 4,38,39
 1139 282 1139 282 1132 250 c 132,-1,40
 1125 218 1125 218 1110 169 c 132,-1,41
 1095 120 1095 120 1079 88 c 4,42,43
 1023 -22 1023 -22 931 -22 c 4,44,45
 865 -22 865 -22 815 18 c 132,-1,46
 765 58 765 58 751 124 c 5,47,48
 717 84 717 84 691 59 c 132,-1,49
 665 34 665 34 607 6 c 132,-1,50
 549 -22 549 -22 485 -22 c 4,51,52
 365 -22 365 -22 291 40 c 5,53,54
 189 -370 189 -370 181 -390 c 4,55,56
 153 -432 153 -432 111 -432 c 4,57,58
 87 -432 87 -432 71 -416 c 132,-1,59
 55 -400 55 -400 55 -378 c 4,60,61
 55 -370 55 -370 61 -346 c 6,62,-1
 349 812 l 6,63,64
 367 884 367 884 429 884 c 4,65,66
 487 884 487 884 487 830 c 4,67,68
 487 828 487 828 457 702 c 6,0,-1
EndSplineSet
EndChar

StartChar: nu
Encoding: 957 957 88
Width: 1200
VWidth: 1000
GlyphClass: 2
Flags: W
HStem: 0 44 800 84
LayerCount: 2
Fore
SplineSet
492 862 m 5,0,-1
 296 66 l 5,1,2
 388 96 388 96 479 153 c 132,-1,3
 570 210 570 210 662 298 c 132,-1,4
 754 386 754 386 832 521 c 132,-1,5
 910 656 910 656 956 818 c 4,6,7
 974 884 974 884 1034 884 c 4,8,9
 1092 884 1092 884 1092 830 c 4,10,11
 1092 808 1092 808 1071 739 c 132,-1,12
 1050 670 1050 670 971 537 c 132,-1,13
 892 404 892 404 774 294 c 4,14,15
 514 52 514 52 210 0 c 5,16,-1
 182 0 l 6,17,18
 150 0 150 0 150 24 c 4,19,20
 150 32 150 32 172 114 c 6,21,-1
 294 604 l 6,22,23
 332 750 332 750 332 766 c 4,24,25
 332 778 332 778 328 784 c 132,-1,26
 324 790 324 790 301 795 c 132,-1,27
 278 800 278 800 232 800 c 4,28,29
 214 800 214 800 206 801 c 132,-1,30
 198 802 198 802 191 807 c 132,-1,31
 184 812 184 812 184 824 c 4,32,33
 184 860 184 860 222 864 c 4,34,35
 238 866 238 866 294 871 c 132,-1,36
 350 876 350 876 398 880 c 132,-1,37
 446 884 446 884 466 884 c 4,38,39
 492 884 492 884 492 862 c 5,0,-1
EndSplineSet
EndChar

StartChar: xi
Encoding: 958 958 89
Width: 1200
VWidth: 2048
GlyphClass: 2
Flags: W
LayerCount: 2
Fore
SplineSet
207 250 m 4,0,1
 207 531 207 531 523 651 c 5,2,3
 373 712 373 712 373 838 c 4,4,5
 373 920 373 920 433.5 998.5 c 132,-1,6
 494 1077 494 1077 586 1118 c 5,7,8
 445 1153 445 1153 445 1239 c 4,9,10
 445 1319 445 1319 524.5 1370 c 132,-1,11
 604 1421 604 1421 682 1421 c 4,12,13
 713 1421 713 1421 713 1403 c 4,14,15
 713 1387 713 1387 701.5 1379.5 c 132,-1,16
 690 1372 690 1372 674 1371 c 132,-1,17
 658 1370 658 1370 633.5 1360 c 132,-1,18
 609 1350 609 1350 588 1331 c 4,19,20
 549 1296 549 1296 549 1251 c 4,21,22
 549 1202 549 1202 604.5 1177.5 c 132,-1,23
 660 1153 660 1153 705 1153 c 4,24,25
 730 1153 730 1153 794 1173.5 c 132,-1,26
 858 1194 858 1194 893 1194 c 4,27,28
 973 1194 973 1194 973 1139 c 4,29,30
 973 1106 973 1106 940.5 1082.5 c 132,-1,31
 908 1059 908 1059 862 1059 c 4,32,33
 827 1059 827 1059 766 1078.5 c 132,-1,34
 705 1098 705 1098 690 1098 c 4,35,36
 614 1098 614 1098 520 1024 c 132,-1,37
 426 950 426 950 426 850 c 4,38,39
 426 770 426 770 501 725 c 132,-1,40
 576 680 576 680 635 680 c 4,41,42
 658 680 658 680 725.5 698.5 c 132,-1,43
 793 717 793 717 838 719 c 4,44,45
 922 719 922 719 922 666 c 4,46,47
 922 635 922 635 890 609.5 c 132,-1,48
 858 584 858 584 807 584 c 4,49,50
 776 584 776 584 706.5 604.5 c 132,-1,51
 637 625 637 625 621 625 c 4,52,53
 525 625 525 625 397 534.5 c 132,-1,54
 269 444 269 444 269 317 c 4,55,56
 269 254 269 254 315 204 c 132,-1,57
 361 154 361 154 469 154 c 6,58,-1
 668 154 l 6,59,60
 768 154 768 154 810 97.5 c 132,-1,61
 852 41 852 41 852 -33 c 4,62,63
 852 -125 852 -125 800 -192.5 c 132,-1,64
 748 -260 748 -260 666 -294 c 132,-1,65
 584 -328 584 -328 503 -343 c 132,-1,66
 422 -358 422 -358 344 -358 c 4,67,68
 307 -358 307 -358 307 -337.5 c 132,-1,69
 307 -317 307 -317 331 -312 c 132,-1,70
 355 -307 355 -307 417.5 -306 c 132,-1,71
 480 -305 480 -305 529 -295 c 4,72,73
 734 -258 734 -258 733 -109 c 4,74,75
 733 0 733 0 621 0 c 6,76,-1
 430 0 l 6,77,78
 309 0 309 0 258 73 c 132,-1,79
 207 146 207 146 207 250 c 4,0,1
EndSplineSet
EndChar

StartChar: omicron
Encoding: 959 959 90
Width: 1200
VWidth: 2048
GlyphClass: 2
Flags: W
LayerCount: 2
Fore
SplineSet
179 309 m 4,0,1
 179 450 179 450 252 588.5 c 132,-1,2
 325 727 325 727 449.5 816 c 132,-1,3
 574 905 574 905 710 905 c 4,4,5
 843 905 843 905 926 813 c 132,-1,6
 1009 721 1009 721 1009 571 c 4,7,8
 1009 352 1009 352 847 164.5 c 132,-1,9
 685 -23 685 -23 478 -23 c 4,10,11
 345 -23 345 -23 262 68 c 132,-1,12
 179 159 179 159 179 309 c 4,0,1
323 240 m 4,13,14
 323 150 323 150 360.5 83 c 132,-1,15
 398 16 398 16 488 16 c 4,16,17
 597 16 597 16 687 122.5 c 132,-1,18
 777 229 777 229 821 370.5 c 132,-1,19
 865 512 865 512 865 643 c 4,20,21
 865 864 865 864 699 864 c 4,22,23
 588 864 588 864 498.5 754.5 c 132,-1,24
 409 645 409 645 366 505 c 132,-1,25
 323 365 323 365 323 240 c 4,13,14
EndSplineSet
EndChar

StartChar: pi
Encoding: 960 960 91
Width: 1200
VWidth: 2048
GlyphClass: 2
Flags: W
LayerCount: 2
Fore
SplineSet
37 137 m 4,0,1
 37 172 37 172 55.5 196.5 c 132,-1,2
 74 221 74 221 92 221 c 4,3,4
 106 221 106 221 120.5 167 c 132,-1,5
 135 113 135 113 170 113 c 4,6,7
 186 113 186 113 200.5 122 c 132,-1,8
 215 131 215 131 228 149.5 c 132,-1,9
 241 168 241 168 251.5 185.5 c 132,-1,10
 262 203 262 203 272 231.5 c 132,-1,11
 282 260 282 260 287.5 274.5 c 132,-1,12
 293 289 293 289 301 317.5 c 132,-1,13
 309 346 309 346 309 348 c 4,14,15
 377 577 377 577 416 748 c 5,16,-1
 389 748 l 6,17,18
 328 748 328 748 268.5 714 c 132,-1,19
 209 680 209 680 171 647 c 132,-1,20
 133 614 133 614 119 614 c 4,21,22
 103 614 103 614 102.5 630.5 c 132,-1,23
 102 647 102 647 119 670 c 4,24,25
 230 801 230 801 295 841 c 132,-1,26
 360 881 360 881 420 881 c 4,27,28
 443 881 443 881 709 861.5 c 132,-1,29
 975 842 975 842 995 842 c 4,30,31
 1040 842 1040 842 1089 863.5 c 132,-1,32
 1138 885 1138 885 1147 885 c 4,33,34
 1167 885 1167 885 1167 866 c 4,35,36
 1167 858 1167 858 1140.5 821 c 132,-1,37
 1114 784 1114 784 1060.5 746.5 c 132,-1,38
 1007 709 1007 709 954 709 c 6,39,-1
 952 709 l 6,40,41
 950 711 950 711 948 711 c 4,42,43
 946 707 946 707 919.5 618.5 c 132,-1,44
 893 530 893 530 872.5 461.5 c 132,-1,45
 852 393 852 393 832.5 308 c 132,-1,46
 813 223 813 223 813 182 c 4,47,48
 813 82 813 82 887 82 c 4,49,50
 930 82 930 82 964.5 119 c 132,-1,51
 999 156 999 156 1021.5 198 c 132,-1,52
 1044 240 1044 240 1052 244 c 4,53,54
 1062 246 1062 246 1066.5 235.5 c 132,-1,55
 1071 225 1071 225 1071 211 c 4,56,57
 1071 131 1071 131 987 54 c 132,-1,58
 903 -23 903 -23 805 -23 c 4,59,60
 660 -23 660 -23 659 170 c 4,61,62
 659 287 659 287 799 721 c 5,63,-1
 508 741 l 5,64,65
 397 284 397 284 328.5 130.5 c 132,-1,66
 260 -23 260 -23 157 -23 c 4,67,68
 94 -23 94 -23 65.5 32.5 c 132,-1,69
 37 88 37 88 37 137 c 4,0,1
EndSplineSet
EndChar

StartChar: rho
Encoding: 961 961 92
Width: 1200
VWidth: 1000
GlyphClass: 2
Flags: W
HStem: -432 42<99 137> -22 44<465 548 440 629> 840 44<691 759>
VStem: 860 144<589 664 409 713>
LayerCount: 2
Fore
SplineSet
149 -346 m 6,0,-1
 345 440 l 6,1,2
 389 622 389 622 526 753 c 132,-1,3
 663 884 663 884 809 884 c 4,4,5
 925 884 925 884 1006 797 c 132,-1,6
 1087 710 1087 710 1087 558 c 4,7,8
 1087 338 1087 338 930 158 c 132,-1,9
 773 -22 773 -22 595 -22 c 4,10,11
 463 -22 463 -22 397 112 c 5,12,13
 273 -382 273 -382 269 -390 c 4,14,15
 241 -432 241 -432 199 -432 c 4,16,17
 175 -432 175 -432 159 -416 c 132,-1,18
 143 -400 143 -400 143 -378 c 4,19,20
 143 -370 143 -370 149 -346 c 6,0,-1
593 22 m 4,21,22
 653 22 653 22 718 72 c 132,-1,23
 783 122 783 122 831 212 c 4,24,25
 871 286 871 286 907 424 c 132,-1,26
 943 562 943 562 943 644 c 4,27,28
 943 742 943 742 904 791 c 132,-1,29
 865 840 865 840 805 840 c 4,30,31
 749 840 749 840 682 795 c 132,-1,32
 615 750 615 750 557 650 c 4,33,34
 509 564 509 564 437 274 c 4,35,36
 421 204 421 204 421 200 c 4,37,38
 421 182 421 182 433 145 c 132,-1,39
 445 108 445 108 488 65 c 132,-1,40
 531 22 531 22 593 22 c 4,21,22
EndSplineSet
EndChar

StartChar: uni03C2
Encoding: 962 962 93
Width: 1200
VWidth: 2048
GlyphClass: 2
Flags: W
LayerCount: 2
Fore
SplineSet
246 319 m 4,0,1
 246 573 246 573 382.5 739 c 132,-1,2
 519 905 519 905 711 905 c 4,3,4
 799 905 799 905 898.5 867 c 132,-1,5
 998 829 998 829 998 770 c 4,6,7
 998 733 998 733 967 705.5 c 132,-1,8
 936 678 936 678 906 678 c 4,9,10
 883 678 883 678 863.5 695.5 c 132,-1,11
 844 713 844 713 830 734.5 c 132,-1,12
 816 756 816 756 776 773.5 c 132,-1,13
 736 791 736 791 678 791 c 4,14,15
 475 791 475 791 391.5 681 c 132,-1,16
 308 571 308 571 308 408 c 4,17,18
 308 134 308 134 537 133 c 6,19,-1
 607 133 l 6,20,21
 707 133 707 133 761.5 76.5 c 132,-1,22
 816 20 816 20 816 -47 c 4,23,24
 816 -143 816 -143 719.5 -225 c 132,-1,25
 623 -307 623 -307 433 -307 c 4,26,27
 396 -307 396 -307 396 -283 c 4,28,29
 396 -273 396 -273 402 -266 c 4,30,31
 410 -258 410 -258 430.5 -257 c 132,-1,32
 451 -256 451 -256 491 -254 c 132,-1,33
 531 -252 531 -252 574 -244 c 4,34,35
 646 -230 646 -230 687 -199 c 132,-1,36
 728 -168 728 -168 737 -144.5 c 132,-1,37
 746 -121 746 -121 746 -100 c 4,38,39
 746 0 746 0 566 0 c 6,40,-1
 502 0 l 6,41,42
 375 0 375 0 310.5 92 c 132,-1,43
 246 184 246 184 246 319 c 4,0,1
EndSplineSet
EndChar

StartChar: sigma
Encoding: 963 963 94
Width: 1200
VWidth: 2048
GlyphClass: 2
Flags: W
LayerCount: 2
Fore
SplineSet
174 324 m 4,0,1
 174 539 174 539 325.5 722 c 132,-1,2
 477 905 477 905 672 905 c 4,3,4
 719 905 719 905 811 892 c 132,-1,5
 903 879 903 879 948 879 c 4,6,7
 999 879 999 879 1043.5 889 c 132,-1,8
 1088 899 1088 899 1114.5 909.5 c 132,-1,9
 1141 920 1141 920 1147 920 c 4,10,11
 1165 920 1165 920 1166 897 c 4,12,13
 1166 858 1166 858 1110.5 805 c 132,-1,14
 1055 752 1055 752 967 752 c 6,15,-1
 944 752 l 5,16,17
 995 658 995 658 996 549 c 4,18,19
 996 332 996 332 837 153.5 c 132,-1,20
 678 -25 678 -25 479 -25 c 4,21,22
 342 -25 342 -25 258 71.5 c 132,-1,23
 174 168 174 168 174 324 c 4,0,1
324 281 m 4,24,25
 324 138 324 138 377 83.5 c 132,-1,26
 430 29 430 29 500 29 c 4,27,28
 643 29 643 29 741.5 184.5 c 132,-1,29
 840 340 840 340 840 537 c 4,30,31
 840 699 840 699 781.5 760 c 132,-1,32
 723 821 723 821 647 821 c 4,33,34
 549 821 549 821 472 728 c 132,-1,35
 395 635 395 635 359.5 514.5 c 132,-1,36
 324 394 324 394 324 281 c 4,24,25
EndSplineSet
EndChar

StartChar: tau
Encoding: 964 964 95
Width: 1200
VWidth: 2048
GlyphClass: 2
Flags: W
LayerCount: 2
Fore
SplineSet
188 696 m 4,0,1
 188 706 188 706 213 749.5 c 132,-1,2
 238 793 238 793 284 837 c 132,-1,3
 330 881 330 881 375 881 c 4,4,5
 387 881 387 881 610.5 864.5 c 132,-1,6
 834 848 834 848 854 848 c 4,7,8
 893 848 893 848 944 887 c 132,-1,9
 995 926 995 926 1006 926 c 4,10,11
 1029 926 1029 926 1028 903 c 4,12,13
 1028 893 1028 893 1004.5 851 c 132,-1,14
 981 809 981 809 935 764 c 132,-1,15
 889 719 889 719 842 719 c 4,16,17
 772 719 772 719 662 731 c 5,18,19
 496 237 496 237 492 209 c 4,20,21
 490 199 490 199 490 182 c 4,22,23
 490 133 490 133 515.5 102.5 c 132,-1,24
 541 72 541 72 582 72 c 4,25,26
 629 72 629 72 675 113 c 132,-1,27
 721 154 721 154 748 213 c 4,28,29
 766 250 766 250 780 250 c 4,30,31
 798 250 798 250 799 225 c 4,32,33
 799 168 799 168 720 72.5 c 132,-1,34
 641 -23 641 -23 533 -23 c 4,35,36
 445 -23 445 -23 390.5 34.5 c 132,-1,37
 336 92 336 92 336 180 c 4,38,39
 336 229 336 229 369 328 c 6,40,-1
 510 741 l 5,41,42
 471 743 471 743 437.5 746.5 c 132,-1,43
 404 750 404 750 388.5 751 c 132,-1,44
 373 752 373 752 367 752 c 4,45,46
 324 752 324 752 271.5 713 c 132,-1,47
 219 674 219 674 209 674 c 4,48,49
 188 673 188 673 188 696 c 4,0,1
EndSplineSet
EndChar

StartChar: upsilon
Encoding: 965 965 96
Width: 1200
VWidth: 2048
GlyphClass: 2
Flags: W
LayerCount: 2
Fore
SplineSet
137 592 m 4,0,1
 137 653 137 653 220 779 c 132,-1,2
 303 905 303 905 426 905 c 4,3,4
 487 905 487 905 535 859 c 132,-1,5
 583 813 583 813 583 702 c 4,6,7
 583 634 583 634 532 442 c 132,-1,8
 481 250 481 250 481 195 c 4,9,10
 481 125 481 125 512.5 77 c 132,-1,11
 544 29 544 29 610 29 c 4,12,13
 684 29 684 29 746.5 94.5 c 132,-1,14
 809 160 809 160 844.5 251 c 132,-1,15
 880 342 880 342 899.5 425 c 132,-1,16
 919 508 919 508 919 555 c 4,17,18
 919 631 919 631 895.5 685 c 132,-1,19
 872 739 872 739 848.5 771 c 132,-1,20
 825 803 825 803 825 823 c 4,21,22
 825 852 825 852 852.5 877.5 c 132,-1,23
 880 903 880 903 911 903 c 4,24,25
 954 903 954 903 982.5 839.5 c 132,-1,26
 1011 776 1011 776 1019.5 714.5 c 132,-1,27
 1028 653 1028 653 1028 610 c 4,28,29
 1028 469 1028 469 971.5 323.5 c 132,-1,30
 915 178 915 178 808.5 77.5 c 132,-1,31
 702 -23 702 -23 579 -23 c 4,32,33
 473 -23 473 -23 402 45 c 132,-1,34
 331 113 331 113 331 221 c 4,35,36
 331 268 331 268 379.5 454.5 c 132,-1,37
 428 641 428 641 428 696 c 4,38,39
 428 800 428 800 358 801 c 4,40,41
 335 801 335 801 310.5 790.5 c 132,-1,42
 286 780 286 780 250.5 731 c 132,-1,43
 215 682 215 682 190 600 c 4,44,45
 178 565 178 565 157.5 565 c 132,-1,46
 137 565 137 565 137 592 c 4,0,1
EndSplineSet
EndChar

StartChar: phi
Encoding: 966 966 97
Width: 1200
VWidth: 1000
GlyphClass: 2
Flags: W
HStem: -410 42<411 421> -20 40<492 492 544 544> 842 42<698 698 750 750> 1348 40<826 868>
VStem: 98 130<243 416 196 474> 1016 130<448 603 390 654>
LayerCount: 2
Fore
SplineSet
867 1340 m 6,0,-1
 755 886 l 5,1,2
 947 872 947 872 1043 765 c 132,-1,3
 1139 658 1139 658 1139 524 c 4,4,5
 1139 322 1139 322 953 153 c 132,-1,6
 767 -16 767 -16 527 -24 c 5,7,-1
 451 -322 l 6,8,9
 435 -396 435 -396 429 -402 c 4,10,11
 421 -410 421 -410 409 -410 c 4,12,13
 385 -410 385 -410 385 -388 c 4,14,15
 385 -384 385 -384 429 -212 c 4,16,17
 437 -180 437 -180 452 -118 c 132,-1,18
 467 -56 467 -56 475 -24 c 5,19,20
 297 -14 297 -14 194 88 c 132,-1,21
 91 190 91 190 91 338 c 4,22,23
 91 542 91 542 278 710 c 132,-1,24
 465 878 465 878 703 886 c 5,25,-1
 819 1348 l 6,26,27
 825 1374 825 1374 830 1381 c 132,-1,28
 835 1388 835 1388 849 1388 c 4,29,30
 873 1388 873 1388 873 1368 c 6,31,-1
 870 1355 l 6,32,33
 867 1342 867 1342 867 1340 c 6,0,-1
485 20 m 5,34,-1
 691 842 l 5,35,36
 549 830 549 830 439 743 c 132,-1,37
 329 656 329 656 275 538 c 132,-1,38
 221 420 221 420 221 296 c 4,39,40
 221 160 221 160 300 93 c 132,-1,41
 379 26 379 26 485 20 c 5,34,-1
743 842 m 5,42,-1
 537 20 l 5,43,44
 679 32 679 32 790 119 c 132,-1,45
 901 206 901 206 955 325 c 132,-1,46
 1009 444 1009 444 1009 566 c 4,47,48
 1009 694 1009 694 936 765 c 132,-1,49
 863 836 863 836 743 842 c 5,42,-1
EndSplineSet
EndChar

StartChar: chi
Encoding: 967 967 98
Width: 1200
VWidth: 2048
GlyphClass: 2
Flags: W
LayerCount: 2
Fore
SplineSet
76 -512 m 5,0,-1
 545 233 l 6,1,2
 563 264 563 264 563 307 c 4,3,4
 563 379 563 379 555 606 c 4,5,6
 555 610 555 610 555 639 c 132,-1,7
 555 668 555 668 554 678 c 132,-1,8
 553 688 553 688 550 712.5 c 132,-1,9
 547 737 547 737 542 748.5 c 132,-1,10
 537 760 537 760 528.5 774 c 132,-1,11
 520 788 520 788 507 794.5 c 132,-1,12
 494 801 494 801 477 801 c 4,13,14
 432 801 432 801 393 764 c 132,-1,15
 354 727 354 727 334 672 c 4,16,17
 320 635 320 635 307 629 c 4,18,19
 297 625 297 625 286.5 630 c 132,-1,20
 276 635 276 635 276 647 c 4,21,22
 276 706 276 706 352 804.5 c 132,-1,23
 428 903 428 903 528 903 c 4,24,25
 575 903 575 903 603 876.5 c 132,-1,26
 631 850 631 850 641 795.5 c 132,-1,27
 651 741 651 741 654 690 c 132,-1,28
 657 639 657 639 658 556 c 132,-1,29
 659 473 659 473 663 424 c 5,30,-1
 940 860 l 5,31,-1
 956 877 l 5,32,-1
 977 881 l 5,33,-1
 1106 881 l 5,34,-1
 692 221 l 6,35,36
 672 184 672 184 672 168 c 132,-1,37
 672 152 672 152 684 -242 c 4,38,39
 684 -244 684 -244 685 -257 c 132,-1,40
 686 -270 686 -270 686 -278.5 c 132,-1,41
 686 -287 686 -287 688 -301 c 132,-1,42
 690 -315 690 -315 694 -324.5 c 132,-1,43
 698 -334 698 -334 705.5 -346 c 132,-1,44
 713 -358 713 -358 722 -364.5 c 132,-1,45
 731 -371 731 -371 744.5 -376 c 132,-1,46
 758 -381 758 -381 776 -381 c 4,47,48
 864 -381 864 -381 919 -270 c 4,49,50
 927 -258 927 -258 943.5 -258 c 132,-1,51
 960 -258 960 -258 960 -279 c 4,52,53
 960 -338 960 -338 885.5 -436.5 c 132,-1,54
 811 -535 811 -535 711 -535 c 4,55,56
 621 -535 621 -535 600.5 -433.5 c 132,-1,57
 580 -332 580 -332 573 33 c 5,58,-1
 571 33 l 5,59,-1
 229 -512 l 5,60,-1
 76 -512 l 5,0,-1
EndSplineSet
EndChar

StartChar: psi
Encoding: 968 968 99
Width: 1200
VWidth: 1000
GlyphClass: 2
Flags: W
HStem: -410 42<494 508> -22 44<634 661> 840 44<282 324> 1348 40<916 951>
VStem: 224 132<184 270 184 283> 366 120<750 765 700 808> 1082 188<775 800 700 810>
LayerCount: 2
Fore
SplineSet
885 1336 m 6,0,-1
 555 22 l 5,1,2
 609 22 609 22 648 28 c 132,-1,3
 687 34 687 34 769 76 c 132,-1,4
 851 118 851 118 931 200 c 4,5,6
 993 264 993 264 1049 370 c 132,-1,7
 1105 476 1105 476 1105 564 c 4,8,9
 1105 662 1105 662 1033 734 c 4,10,11
 1003 760 1003 760 1003 788 c 4,12,13
 1003 822 1003 822 1035 853 c 132,-1,14
 1067 884 1067 884 1103 884 c 4,15,16
 1137 884 1137 884 1164 852 c 132,-1,17
 1191 820 1191 820 1191 744 c 4,18,19
 1191 684 1191 684 1169 582 c 132,-1,20
 1147 480 1147 480 1129 432 c 4,21,22
 1081 302 1081 302 983 192 c 4,23,24
 795 -22 795 -22 545 -22 c 5,25,-1
 469 -320 l 6,26,27
 453 -396 453 -396 445 -402 c 4,28,29
 441 -410 441 -410 427 -410 c 4,30,31
 403 -410 403 -410 403 -390 c 4,32,33
 403 -368 403 -368 449 -200 c 4,34,35
 471 -116 471 -116 493 -18 c 5,36,37
 337 -8 337 -8 241 62 c 132,-1,38
 145 132 145 132 145 266 c 4,39,40
 145 352 145 352 241 604 c 4,41,42
 287 728 287 728 287 776 c 4,43,44
 287 840 287 840 237 840 c 4,45,46
 105 840 105 840 35 592 c 4,47,48
 27 568 27 568 22 562 c 132,-1,49
 17 556 17 556 3 556 c 4,50,51
 -21 556 -21 556 -21 576 c 4,52,53
 -21 588 -21 588 -6 633 c 132,-1,54
 9 678 9 678 38 736 c 132,-1,55
 67 794 67 794 122 839 c 132,-1,56
 177 884 177 884 243 884 c 4,57,58
 317 884 317 884 362 837 c 132,-1,59
 407 790 407 790 407 720 c 4,60,61
 407 688 407 688 385 622 c 4,62,63
 277 342 277 342 277 250 c 4,64,65
 277 52 277 52 505 26 c 5,66,-1
 837 1348 l 6,67,68
 843 1376 843 1376 848 1382 c 132,-1,69
 853 1388 853 1388 867 1388 c 4,70,71
 891 1388 891 1388 891 1366 c 4,72,73
 891 1360 891 1360 885 1336 c 6,0,-1
EndSplineSet
EndChar

StartChar: omega
Encoding: 969 969 100
Width: 1200
VWidth: 2048
GlyphClass: 2
Flags: W
LayerCount: 2
Fore
SplineSet
48 268 m 4,0,1
 48 440 48 440 105 580 c 4,2,3
 158 705 158 705 262.5 801 c 132,-1,4
 367 897 367 897 406 897 c 4,5,6
 418 897 418 897 427.5 888 c 132,-1,7
 437 879 437 879 437 866.5 c 132,-1,8
 437 854 437 854 402 819 c 132,-1,9
 367 784 367 784 315 712.5 c 132,-1,10
 263 641 263 641 230 551 c 4,11,12
 203 479 203 479 177.5 355 c 132,-1,13
 152 231 152 231 152 170 c 4,14,15
 152 23 152 23 267 23 c 4,16,17
 351 23 351 23 412.5 85 c 132,-1,18
 474 147 474 147 488 188 c 4,19,20
 490 192 490 192 497 261 c 132,-1,21
 504 330 504 330 514.5 400.5 c 132,-1,22
 525 471 525 471 553.5 532.5 c 132,-1,23
 582 594 582 594 621 594 c 4,24,25
 641 594 641 594 655.5 578.5 c 132,-1,26
 670 563 670 563 670 539 c 4,27,28
 670 492 670 492 636.5 387.5 c 132,-1,29
 603 283 603 283 566 213 c 4,30,31
 548 176 548 176 547 158 c 4,32,33
 547 109 547 109 574 67 c 132,-1,34
 601 25 601 25 666 25 c 4,35,36
 725 25 725 25 774.5 58.5 c 132,-1,37
 824 92 824 92 861 152.5 c 132,-1,38
 898 213 898 213 922.5 273.5 c 132,-1,39
 947 334 947 334 969 414 c 4,40,41
 1008 557 1008 557 1008 631 c 4,42,43
 1008 717 1008 717 979.5 789.5 c 132,-1,44
 951 862 951 862 951 864 c 4,45,46
 951 876 951 876 963 886.5 c 132,-1,47
 975 897 975 897 986 897 c 4,48,49
 1006 897 1006 897 1040 864 c 132,-1,50
 1074 831 1074 831 1105.5 759.5 c 132,-1,51
 1137 688 1137 688 1137 604 c 4,52,53
 1137 526 1137 526 1103.5 422.5 c 132,-1,54
 1070 319 1070 319 1011.5 218 c 132,-1,55
 953 117 953 117 859.5 47 c 132,-1,56
 766 -23 766 -23 664 -23 c 4,57,58
 537 -23 537 -23 500 109 c 5,59,60
 394 -22 394 -22 263 -23 c 4,61,62
 177 -23 177 -23 112.5 40.5 c 132,-1,63
 48 104 48 104 48 268 c 4,0,1
EndSplineSet
EndChar

StartChar: zero
Encoding: 48 48 101
Width: 1200
GlyphClass: 1
Flags: W
LayerCount: 2
Fore
SplineSet
276.5 26.5 m 128,-1,1
 189 73 189 73 152 160 c 128,-1,2
 115 247 115 247 115 378 c 0,3,4
 115 510 115 510 156 744 c 0,5,6
 199 987 199 987 260 1140.5 c 128,-1,7
 321 1294 321 1294 439 1382 c 128,-1,8
 557 1470 557 1470 754 1470 c 0,9,10
 901 1470 901 1470 988 1422 c 128,-1,11
 1075 1374 1075 1374 1112 1284.5 c 128,-1,12
 1149 1195 1149 1195 1149 1063 c 0,13,14
 1149 934 1149 934 1112 720 c 0,15,16
 1067 463 1067 463 1008 308.5 c 128,-1,17
 949 154 949 154 832 67 c 128,-1,18
 715 -20 715 -20 512 -20 c 0,19,0
 364 -20 364 -20 276.5 26.5 c 128,-1,1
284 402 m 0,21,22
 284 265 284 265 337 194.5 c 128,-1,23
 390 124 390 124 517 124 c 0,24,25
 651 124 651 124 735 200.5 c 128,-1,26
 819 277 819 277 865.5 409 c 128,-1,27
 912 541 912 541 948 744 c 0,28,29
 967 852 967 852 976.5 926.5 c 128,-1,30
 986 1001 986 1001 986 1062 c 0,31,32
 986 1193 986 1193 932.5 1259.5 c 128,-1,33
 879 1326 879 1326 749 1326 c 0,34,35
 611 1326 611 1326 528 1252.5 c 128,-1,36
 445 1179 445 1179 400.5 1052 c 128,-1,37
 356 925 356 925 320 720 c 0,38,20
 284 514 284 514 284 402 c 0,21,22
655 874 m 1,39,-1
 758 732 l 1,40,-1
 615 604 l 1,41,-1
 510 732 l 1,42,-1
 655 874 l 1,39,-1
EndSplineSet
Validated: 1
Substitution2: "'ss04' Style Set 4 lookup 44 subtable" zero.alternate
Substitution2: "'fwid' Full Widths lookup 32 subtable" uniFF10
Substitution2: "'zero' Slashed Zero lookup 31 subtable" zero.zero
Substitution2: "'onum' Oldstyle Figures lookup 25 subtable" zero.tosf
Substitution2: "'tnum' Tabular Numbers lookup 24 subtable" zero.tf
Substitution2: "'pnum' Proportional Numbers lookup 23 subtable" zero.lf
Substitution2: "'dnom' Denominators lookup 17 subtable" zero.dnom
Substitution2: "'numr' Numerators lookup 16 subtable" zero.numr
Substitution2: "'sups' Superscript lookup 15 subtable" uni2070
Substitution2: "'sinf' Scientific Inferiors lookup 14 subtable" uni2080
Substitution2: "'subs' Subscript lookup 13 subtable" uni2080
AlternateSubs2: "'aalt' Access All Alternates lookup 1 subtable" uni2080 uni2070 zero.numr zero.dnom zero.lf zero.tf zero.tosf zero.zero uniFF10 zero.alternate
EndChar

StartChar: one
Encoding: 49 49 102
Width: 1200
GlyphClass: 1
Flags: W
LayerCount: 2
Fore
SplineSet
121 148 m 1,0,-1
 475 148 l 1,1,-1
 662 1186 l 1,2,3
 567 1105 567 1105 442.5 1027.5 c 128,-1,4
 318 950 318 950 232 928 c 1,5,-1
 253 1102 l 1,6,7
 360 1144 360 1144 495.5 1251 c 128,-1,8
 631 1358 631 1358 724 1455 c 1,9,-1
 873 1450 l 1,10,-1
 643 148 l 1,11,-1
 971 148 l 1,12,-1
 945 0 l 1,13,-1
 95 0 l 1,14,-1
 121 148 l 1,0,-1
EndSplineSet
Validated: 1
Substitution2: "'fwid' Full Widths lookup 32 subtable" uniFF11
Substitution2: "'onum' Oldstyle Figures lookup 25 subtable" one.tosf
Substitution2: "'tnum' Tabular Numbers lookup 24 subtable" one.tf
Substitution2: "'pnum' Proportional Numbers lookup 23 subtable" one.lf
Substitution2: "'dnom' Denominators lookup 17 subtable" one.dnom
Substitution2: "'numr' Numerators lookup 16 subtable" one.numr
Substitution2: "'sups' Superscript lookup 15 subtable" uni00B9
Substitution2: "'sinf' Scientific Inferiors lookup 14 subtable" uni2081
Substitution2: "'subs' Subscript lookup 13 subtable" uni2081
AlternateSubs2: "'aalt' Access All Alternates lookup 1 subtable" uni2081 uni00B9 one.numr one.dnom one.lf one.tf one.tosf uniFF11
EndChar

StartChar: two
Encoding: 50 50 103
Width: 1200
GlyphClass: 1
Flags: W
LayerCount: 2
Fore
SplineSet
113 195 m 128,-1,1
 127 206 127 206 140 216 c 0,2,3
 337 370 337 370 491.5 503 c 128,-1,4
 646 636 646 636 778 793 c 128,-1,5
 910 950 910 950 933 1080 c 0,6,7
 938 1105 938 1105 938 1136 c 0,8,9
 938 1223 938 1223 886.5 1272.5 c 128,-1,10
 835 1322 835 1322 748 1322 c 0,11,12
 670 1322 670 1322 602.5 1286 c 128,-1,13
 535 1250 535 1250 489 1185.5 c 128,-1,14
 443 1121 443 1121 428 1038 c 1,15,-1
 254 1050 l 1,16,17
 281 1186 281 1186 355 1280.5 c 128,-1,18
 429 1375 429 1375 534.5 1422.5 c 128,-1,19
 640 1470 640 1470 760 1470 c 0,20,21
 862 1470 862 1470 944.5 1434.5 c 128,-1,22
 1027 1399 1027 1399 1075.5 1327.5 c 128,-1,23
 1124 1256 1124 1256 1124 1153 c 0,24,25
 1124 1116 1124 1116 1116 1070 c 0,26,27
 1093 938 1093 938 975.5 786.5 c 128,-1,28
 858 635 858 635 715.5 504 c 128,-1,29
 573 373 573 373 372 206 c 2,30,-1
 286 134 l 1,31,-1
 963 138 l 1,32,-1
 937 -10 l 1,33,-1
 55 -10 l 1,34,-1
 84 172 l 1,35,0
 99 184 99 184 113 195 c 128,-1,1
EndSplineSet
Validated: 1
Substitution2: "'fwid' Full Widths lookup 32 subtable" uniFF12
Substitution2: "'onum' Oldstyle Figures lookup 25 subtable" two.tosf
Substitution2: "'tnum' Tabular Numbers lookup 24 subtable" two.tf
Substitution2: "'pnum' Proportional Numbers lookup 23 subtable" two.lf
Substitution2: "'dnom' Denominators lookup 17 subtable" two.dnom
Substitution2: "'numr' Numerators lookup 16 subtable" two.numr
Substitution2: "'sups' Superscript lookup 15 subtable" uni00B2
Substitution2: "'sinf' Scientific Inferiors lookup 14 subtable" uni2082
Substitution2: "'subs' Subscript lookup 13 subtable" uni2082
AlternateSubs2: "'aalt' Access All Alternates lookup 1 subtable" uni2082 uni00B2 two.numr two.dnom two.lf two.tf two.tosf uniFF12
EndChar

StartChar: three
Encoding: 51 51 104
Width: 1200
GlyphClass: 1
Flags: W
LayerCount: 2
Fore
SplineSet
276 343 m 0,1,2
 276 274 276 274 307.5 224.5 c 128,-1,3
 339 175 339 175 392.5 149.5 c 128,-1,4
 446 124 446 124 509 124 c 0,5,6
 590 124 590 124 667.5 160 c 128,-1,7
 745 196 745 196 800 262.5 c 128,-1,8
 855 329 855 329 870 416 c 0,9,10
 876 449 876 449 876 479 c 0,11,12
 876 570 876 570 826 634 c 128,-1,13
 776 698 776 698 685 731 c 128,-1,14
 594 764 594 764 473 764 c 1,15,-1
 492 914 l 1,16,-1
 962 1300 l 1,17,-1
 298 1300 l 1,18,-1
 325 1450 l 1,19,-1
 1201 1450 l 1,20,-1
 1172 1280 l 1,21,-1
 703 887 l 1,22,23
 885 852 885 852 968.5 747.5 c 128,-1,24
 1052 643 1052 643 1052 497 c 0,25,26
 1052 450 1052 450 1042 392 c 0,27,28
 1019 261 1019 261 933 167 c 128,-1,29
 847 73 847 73 729 25.5 c 128,-1,30
 611 -22 611 -22 493 -22 c 0,31,32
 385 -22 385 -22 295.5 17 c 128,-1,33
 206 56 206 56 152.5 134 c 128,-1,34
 99 212 99 212 99 324 c 0,35,36
 99 362 99 362 107 410 c 1,37,-1
 281 398 l 1,38,0
 276 366 276 366 276 343 c 0,1,2
EndSplineSet
Validated: 1
Substitution2: "'fwid' Full Widths lookup 32 subtable" uniFF13
Substitution2: "'onum' Oldstyle Figures lookup 25 subtable" three.tosf
Substitution2: "'tnum' Tabular Numbers lookup 24 subtable" three.tf
Substitution2: "'pnum' Proportional Numbers lookup 23 subtable" three.lf
Substitution2: "'dnom' Denominators lookup 17 subtable" three.dnom
Substitution2: "'numr' Numerators lookup 16 subtable" three.numr
Substitution2: "'sups' Superscript lookup 15 subtable" uni00B3
Substitution2: "'sinf' Scientific Inferiors lookup 14 subtable" uni2083
Substitution2: "'subs' Subscript lookup 13 subtable" uni2083
AlternateSubs2: "'aalt' Access All Alternates lookup 1 subtable" uni2083 uni00B3 three.numr three.dnom three.lf three.tf three.tosf uniFF13
EndChar

StartChar: four
Encoding: 52 52 105
Width: 1200
GlyphClass: 1
Flags: W
LayerCount: 2
Fore
SplineSet
672 312 m 1,0,-1
 38 312 l 1,1,-1
 64 472 l 1,2,-1
 815 1450 l 1,3,-1
 1047 1450 l 1,4,-1
 872 460 l 1,5,-1
 1078 460 l 1,6,-1
 1052 312 l 1,7,-1
 846 312 l 1,8,-1
 791 0 l 1,9,-1
 617 0 l 1,10,-1
 672 312 l 1,0,-1
700 460 m 1,11,-1
 840 1244 l 1,12,-1
 250 460 l 1,13,-1
 700 460 l 1,11,-1
EndSplineSet
Validated: 1
Substitution2: "'fwid' Full Widths lookup 32 subtable" uniFF14
Substitution2: "'onum' Oldstyle Figures lookup 25 subtable" four.tosf
Substitution2: "'tnum' Tabular Numbers lookup 24 subtable" four.tf
Substitution2: "'pnum' Proportional Numbers lookup 23 subtable" four.lf
Substitution2: "'dnom' Denominators lookup 17 subtable" four.dnom
Substitution2: "'numr' Numerators lookup 16 subtable" four.numr
Substitution2: "'sups' Superscript lookup 15 subtable" uni2074
Substitution2: "'sinf' Scientific Inferiors lookup 14 subtable" uni2084
Substitution2: "'subs' Subscript lookup 13 subtable" uni2084
AlternateSubs2: "'aalt' Access All Alternates lookup 1 subtable" uni2084 uni2074 four.numr four.dnom four.lf four.tf four.tosf uniFF14
EndChar

StartChar: five
Encoding: 53 53 106
Width: 1200
GlyphClass: 1
Flags: W
LayerCount: 2
Fore
SplineSet
306.5 14.5 m 128,-1,1
 221 47 221 47 171 115 c 128,-1,2
 121 183 121 183 121 283 c 0,3,4
 121 322 121 322 128 360 c 1,5,-1
 302 348 l 1,6,7
 297 318 297 318 297 298 c 0,8,9
 297 211 297 211 353.5 168.5 c 128,-1,10
 410 126 410 126 503 126 c 0,11,12
 597 126 597 126 671.5 176.5 c 128,-1,13
 746 227 746 227 793.5 311.5 c 128,-1,14
 841 396 841 396 859 498 c 0,15,16
 867 546 867 546 867 586 c 0,17,18
 867 692 867 692 817 757 c 128,-1,19
 767 822 767 822 666 822 c 0,20,21
 572 822 572 822 489.5 762 c 128,-1,22
 407 702 407 702 367 604 c 1,23,-1
 190 610 l 1,24,-1
 442 1450 l 1,25,-1
 1165 1450 l 1,26,-1
 1138 1296 l 1,27,-1
 576 1296 l 1,28,-1
 424 835 l 1,29,30
 491 904 491 904 559 941 c 128,-1,31
 627 978 627 978 705 978 c 0,32,33
 814 978 814 978 890 929 c 128,-1,34
 966 880 966 880 1004.5 793.5 c 128,-1,35
 1043 707 1043 707 1043 595 c 0,36,37
 1043 529 1043 529 1032 470 c 0,38,39
 1006 326 1006 326 930.5 215 c 128,-1,40
 855 104 855 104 743 43 c 128,-1,41
 631 -18 631 -18 500 -18 c 0,42,0
 392 -18 392 -18 306.5 14.5 c 128,-1,1
EndSplineSet
Validated: 1
Substitution2: "'fwid' Full Widths lookup 32 subtable" uniFF15
Substitution2: "'onum' Oldstyle Figures lookup 25 subtable" five.tosf
Substitution2: "'tnum' Tabular Numbers lookup 24 subtable" five.tf
Substitution2: "'pnum' Proportional Numbers lookup 23 subtable" five.lf
Substitution2: "'dnom' Denominators lookup 17 subtable" five.dnom
Substitution2: "'numr' Numerators lookup 16 subtable" five.numr
Substitution2: "'sups' Superscript lookup 15 subtable" uni2075
Substitution2: "'sinf' Scientific Inferiors lookup 14 subtable" uni2085
Substitution2: "'subs' Subscript lookup 13 subtable" uni2085
AlternateSubs2: "'aalt' Access All Alternates lookup 1 subtable" uni2085 uni2075 five.numr five.dnom five.lf five.tf five.tosf uniFF15
EndChar

StartChar: six
Encoding: 54 54 107
Width: 1200
GlyphClass: 1
Flags: W
LayerCount: 2
Fore
SplineSet
229 95.5 m 128,-1,1
 138 215 138 215 138 429 c 0,2,3
 138 553 138 553 167 716 c 0,4,5
 226 1050 226 1050 372.5 1260 c 128,-1,6
 519 1470 519 1470 778 1470 c 0,7,8
 889 1470 889 1470 962.5 1434 c 128,-1,9
 1036 1398 1036 1398 1089 1338 c 1,10,-1
 961 1240 l 1,11,12
 907 1322 907 1322 768 1322 c 0,13,14
 637 1322 637 1322 549 1223 c 128,-1,15
 461 1124 461 1124 414 991 c 128,-1,16
 367 858 367 858 335 703 c 1,17,18
 489 952 489 952 699 952 c 0,19,20
 809 952 809 952 889.5 898 c 128,-1,21
 970 844 970 844 1012 751 c 128,-1,22
 1054 658 1054 658 1054 544 c 0,23,24
 1054 487 1054 487 1044 434 c 0,25,26
 1020 300 1020 300 947.5 196 c 128,-1,27
 875 92 875 92 766.5 34 c 128,-1,28
 658 -24 658 -24 529 -24 c 0,29,0
 320 -24 320 -24 229 95.5 c 128,-1,1
307 353 m 0,31,32
 307 248 307 248 365.5 186 c 128,-1,33
 424 124 424 124 531 124 c 0,34,35
 667 124 667 124 756 214.5 c 128,-1,36
 845 305 845 305 871 454 c 0,37,38
 880 502 880 502 880 547 c 0,39,40
 880 654 880 654 829.5 719 c 128,-1,41
 779 784 779 784 675 784 c 0,42,43
 584 784 584 784 508 736 c 128,-1,44
 432 688 432 688 381.5 606 c 128,-1,45
 331 524 331 524 314 426 c 0,46,30
 307 382 307 382 307 353 c 0,31,32
EndSplineSet
Validated: 1
Substitution2: "'fwid' Full Widths lookup 32 subtable" uniFF16
Substitution2: "'onum' Oldstyle Figures lookup 25 subtable" six.tosf
Substitution2: "'tnum' Tabular Numbers lookup 24 subtable" six.tf
Substitution2: "'pnum' Proportional Numbers lookup 23 subtable" six.lf
Substitution2: "'dnom' Denominators lookup 17 subtable" six.dnom
Substitution2: "'numr' Numerators lookup 16 subtable" six.numr
Substitution2: "'sups' Superscript lookup 15 subtable" uni2076
Substitution2: "'sinf' Scientific Inferiors lookup 14 subtable" uni2086
Substitution2: "'subs' Subscript lookup 13 subtable" uni2086
AlternateSubs2: "'aalt' Access All Alternates lookup 1 subtable" uni2086 uni2076 six.numr six.dnom six.lf six.tf six.tosf uniFF16
EndChar

StartChar: seven
Encoding: 55 55 108
Width: 1200
GlyphClass: 1
Flags: W
LayerCount: 2
Fore
SplineSet
988 1286 m 1,0,-1
 308 1286 l 1,1,-1
 337 1450 l 1,2,-1
 1213 1450 l 1,3,-1
 1186 1288 l 1,4,-1
 373 0 l 1,5,-1
 175 0 l 1,6,-1
 988 1286 l 1,0,-1
EndSplineSet
Validated: 1
Substitution2: "'fwid' Full Widths lookup 32 subtable" uniFF17
Substitution2: "'onum' Oldstyle Figures lookup 25 subtable" seven.tosf
Substitution2: "'tnum' Tabular Numbers lookup 24 subtable" seven.tf
Substitution2: "'pnum' Proportional Numbers lookup 23 subtable" seven.lf
Substitution2: "'dnom' Denominators lookup 17 subtable" seven.dnom
Substitution2: "'numr' Numerators lookup 16 subtable" seven.numr
Substitution2: "'sups' Superscript lookup 15 subtable" uni2077
Substitution2: "'sinf' Scientific Inferiors lookup 14 subtable" uni2087
Substitution2: "'subs' Subscript lookup 13 subtable" uni2087
AlternateSubs2: "'aalt' Access All Alternates lookup 1 subtable" uni2087 uni2077 seven.numr seven.dnom seven.lf seven.tf seven.tosf uniFF17
EndChar

StartChar: eight
Encoding: 56 56 109
Width: 1200
GlyphClass: 1
Flags: W
LayerCount: 2
Fore
SplineSet
303 21.5 m 128,-1,1
 208 57 208 57 150.5 132.5 c 128,-1,2
 93 208 93 208 93 322 c 0,3,4
 93 358 93 358 101 408 c 0,5,6
 124 541 124 541 208.5 635.5 c 128,-1,7
 293 730 293 730 410 771 c 1,8,9
 280 852 280 852 280 1017 c 0,10,11
 280 1063 280 1063 288 1104 c 0,12,13
 309 1224 309 1224 381.5 1307 c 128,-1,14
 454 1390 454 1390 553 1430 c 128,-1,15
 652 1470 652 1470 754 1470 c 0,16,17
 855 1470 855 1470 938 1437 c 128,-1,18
 1021 1404 1021 1404 1070 1336 c 128,-1,19
 1119 1268 1119 1268 1119 1169 c 0,20,21
 1119 1130 1119 1130 1112 1094 c 0,22,23
 1091 978 1091 978 1026.5 893 c 128,-1,24
 962 808 962 808 867 764 c 1,25,26
 953 721 953 721 1004.5 646 c 128,-1,27
 1056 571 1056 571 1056 471 c 0,28,29
 1056 438 1056 438 1050 402 c 0,30,31
 1024 257 1024 257 943 163.5 c 128,-1,32
 862 70 862 70 750 28 c 128,-1,33
 638 -14 638 -14 513 -14 c 0,34,0
 398 -14 398 -14 303 21.5 c 128,-1,1
270 343 m 0,36,37
 270 240 270 240 339 185 c 128,-1,38
 408 130 408 130 518 130 c 0,39,40
 600 130 600 130 676.5 164.5 c 128,-1,41
 753 199 753 199 807.5 266 c 128,-1,42
 862 333 862 333 878 426 c 0,43,44
 883 452 883 452 883 485 c 0,45,46
 883 588 883 588 814.5 640 c 128,-1,47
 746 692 746 692 637 692 c 0,48,49
 552 692 552 692 475 658 c 128,-1,50
 398 624 398 624 344.5 557.5 c 128,-1,51
 291 491 291 491 275 398 c 0,52,35
 270 366 270 366 270 343 c 0,36,37
438 1028 m 0,54,55
 438 951 438 951 491.5 908.5 c 128,-1,56
 545 866 545 866 648 866 c 0,57,58
 770 866 770 866 852 930 c 128,-1,59
 934 994 934 994 953 1102 c 0,60,61
 958 1127 958 1127 958 1158 c 0,62,63
 958 1242 958 1242 904.5 1288 c 128,-1,64
 851 1334 851 1334 750 1334 c 0,65,66
 627 1334 627 1334 545.5 1264.5 c 128,-1,67
 464 1195 464 1195 442 1074 c 0,68,53
 438 1053 438 1053 438 1028 c 0,54,55
EndSplineSet
Validated: 1
Substitution2: "'fwid' Full Widths lookup 32 subtable" uniFF18
Substitution2: "'onum' Oldstyle Figures lookup 25 subtable" eight.tosf
Substitution2: "'tnum' Tabular Numbers lookup 24 subtable" eight.tf
Substitution2: "'pnum' Proportional Numbers lookup 23 subtable" eight.lf
Substitution2: "'dnom' Denominators lookup 17 subtable" eight.dnom
Substitution2: "'numr' Numerators lookup 16 subtable" eight.numr
Substitution2: "'sups' Superscript lookup 15 subtable" uni2078
Substitution2: "'sinf' Scientific Inferiors lookup 14 subtable" uni2088
Substitution2: "'subs' Subscript lookup 13 subtable" uni2088
AlternateSubs2: "'aalt' Access All Alternates lookup 1 subtable" uni2088 uni2078 eight.numr eight.dnom eight.lf eight.tf eight.tosf uniFF18
EndChar

StartChar: nine
Encoding: 57 57 110
Width: 1200
GlyphClass: 1
Flags: W
LayerCount: 2
Fore
SplineSet
291.5 16.5 m 128,-1,1
 207 51 207 51 159 116.5 c 128,-1,2
 111 182 111 182 111 270 c 1,3,-1
 261 312 l 1,4,5
 276 212 276 212 331.5 169 c 128,-1,6
 387 126 387 126 491 126 c 0,7,8
 636 126 636 126 727.5 229 c 128,-1,9
 819 332 819 332 862 462 c 128,-1,10
 905 592 905 592 942 765 c 1,11,12
 873 660 873 660 776 608 c 128,-1,13
 679 556 679 556 567 556 c 0,14,15
 459 556 459 556 377.5 604 c 128,-1,16
 296 652 296 652 252 737 c 128,-1,17
 208 822 208 822 208 931 c 0,18,19
 208 979 208 979 217 1030 c 0,20,21
 240 1160 240 1160 317.5 1260 c 128,-1,22
 395 1360 395 1360 508.5 1415 c 128,-1,23
 622 1470 622 1470 750 1470 c 0,24,25
 957 1470 957 1470 1045.5 1362.5 c 128,-1,26
 1134 1255 1134 1255 1134 1056 c 0,27,28
 1134 934 1134 934 1106 778 c 0,29,30
 1067 556 1067 556 999.5 382.5 c 128,-1,31
 932 209 932 209 806 95.5 c 128,-1,32
 680 -18 680 -18 486 -18 c 0,33,0
 376 -18 376 -18 291.5 16.5 c 128,-1,1
380 925 m 0,35,36
 380 821 380 821 436 757.5 c 128,-1,37
 492 694 492 694 597 694 c 0,38,39
 692 694 692 694 768 736.5 c 128,-1,40
 844 779 844 779 892.5 854.5 c 128,-1,41
 941 930 941 930 958 1028 c 0,42,43
 964 1064 964 1064 964 1098 c 0,44,45
 964 1203 964 1203 905 1265.5 c 128,-1,46
 846 1328 846 1328 741 1328 c 0,47,48
 653 1328 653 1328 578.5 1286 c 128,-1,49
 504 1244 504 1244 454 1169.5 c 128,-1,50
 404 1095 404 1095 387 1000 c 0,51,34
 380 964 380 964 380 925 c 0,35,36
EndSplineSet
Validated: 1
Substitution2: "'fwid' Full Widths lookup 32 subtable" uniFF19
Substitution2: "'onum' Oldstyle Figures lookup 25 subtable" nine.tosf
Substitution2: "'tnum' Tabular Numbers lookup 24 subtable" nine.tf
Substitution2: "'pnum' Proportional Numbers lookup 23 subtable" nine.lf
Substitution2: "'dnom' Denominators lookup 17 subtable" nine.dnom
Substitution2: "'numr' Numerators lookup 16 subtable" nine.numr
Substitution2: "'sups' Superscript lookup 15 subtable" uni2079
Substitution2: "'sinf' Scientific Inferiors lookup 14 subtable" uni2089
Substitution2: "'subs' Subscript lookup 13 subtable" uni2089
AlternateSubs2: "'aalt' Access All Alternates lookup 1 subtable" uni2089 uni2079 nine.numr nine.dnom nine.lf nine.tf nine.tosf uniFF19
EndChar

StartChar: underscore
Encoding: 95 95 111
Width: 1200
GlyphClass: 1
Flags: W
LayerCount: 2
Fore
SplineSet
40 132 m 1,0,-1
 1012 132 l 1,1,-1
 982 -40 l 1,2,-1
 10 -40 l 1,3,-1
 40 132 l 1,0,-1
EndSplineSet
Validated: 1
Substitution2: "Single Substitution lookup 78 subtable" underscore.alternate
Substitution2: "Single Substitution lookup 70 subtable" underscore.alternate
Substitution2: "'fwid' Full Widths lookup 32 subtable" uniFF3F
AlternateSubs2: "'aalt' Access All Alternates lookup 1 subtable" uniFF3F underscore.alternate
EndChar

StartChar: asterisk
Encoding: 42 42 112
Width: 1200
VWidth: 2048
Flags: W
LayerCount: 2
Fore
SplineSet
151.200195312 240.599609375 m 4,0,1
 151.200195312 282.599609375 151.200195312 282.599609375 207.599609375 310.200195312 c 6,2,-1
 549.599609375 472.200195312 l 5,3,-1
 202.799804688 634.200195312 l 6,4,5
 151.200195312 658.200195312 151.200195312 658.200195312 151.200195312 700.200195312 c 4,6,7
 151.200195312 724.200195312 151.200195312 724.200195312 171 746.400390625 c 132,-1,8
 190.799804688 768.599609375 190.799804688 768.599609375 217.200195312 768.599609375 c 4,9,10
 236.400390625 768.599609375 236.400390625 768.599609375 271.200195312 742.200195312 c 6,11,-1
 576 521.400390625 l 5,12,13
 538.799804688 927 538.799804688 927 540 939 c 4,14,15
 540 963 540 963 558 981.599609375 c 132,-1,16
 576 1000.20019531 576 1000.20019531 606 1000.20019531 c 4,17,18
 630 1000.20019531 630 1000.20019531 649.799804688 982.799804688 c 132,-1,19
 669.599609375 965.400390625 669.599609375 965.400390625 669.599609375 939 c 6,20,-1
 633.599609375 521.400390625 l 5,21,-1
 906 723 l 6,22,23
 969.599609375 769.799804688 969.599609375 769.799804688 992.400390625 768.599609375 c 4,24,25
 1020 768.599609375 1020 768.599609375 1039.20019531 747 c 132,-1,26
 1058.40039062 725.400390625 1058.40039062 725.400390625 1058.40039062 700.200195312 c 4,27,28
 1058.40039062 658.200195312 1058.40039062 658.200195312 1002 631.799804688 c 6,29,-1
 660 469.799804688 l 5,30,-1
 1006.79980469 306.599609375 l 6,31,32
 1058.40039062 282.599609375 1058.40039062 282.599609375 1058.40039062 240.599609375 c 4,33,34
 1058.40039062 216.599609375 1058.40039062 216.599609375 1038.59960938 194.400390625 c 132,-1,35
 1018.79980469 172.200195312 1018.79980469 172.200195312 992.400390625 172.200195312 c 4,36,37
 978 172.200195312 978 172.200195312 952.799804688 186.599609375 c 4,38,39
 948 189 948 189 896.400390625 227.400390625 c 132,-1,40
 844.799804688 265.799804688 844.799804688 265.799804688 765 324.599609375 c 132,-1,41
 685.200195312 383.400390625 685.200195312 383.400390625 633.599609375 420.599609375 c 5,42,43
 670.799804688 15 670.799804688 15 669.599609375 3 c 4,44,45
 669.599609375 -21 669.599609375 -21 651.599609375 -40.2001953125 c 132,-1,46
 633.599609375 -59.400390625 633.599609375 -59.400390625 603.599609375 -59.400390625 c 4,47,48
 579.599609375 -59.400390625 579.599609375 -59.400390625 559.799804688 -42 c 132,-1,49
 540 -24.599609375 540 -24.599609375 540 3 c 6,50,-1
 576 420.599609375 l 5,51,-1
 232.799804688 172.200195312 l 5,52,53
 195.599609375 172.200195312 195.599609375 172.200195312 175.799804688 190.799804688 c 132,-1,54
 156 209.400390625 156 209.400390625 153.599609375 220.200195312 c 132,-1,55
 151.200195312 231 151.200195312 231 151.200195312 240.599609375 c 4,0,1
EndSplineSet
Validated: 33
EndChar

StartChar: plus
Encoding: 43 43 113
Width: 1200
Flags: W
LayerCount: 2
Fore
SplineSet
492 452 m 1,0,-1
 134 452 l 1,1,-1
 134 644 l 1,2,-1
 492 644 l 1,3,-1
 492 1026 l 1,4,-1
 706 1026 l 1,5,-1
 706 644 l 1,6,-1
 1064 644 l 1,7,-1
 1064 452 l 1,8,-1
 706 452 l 1,9,-1
 706 72 l 1,10,-1
 492 72 l 1,11,-1
 492 452 l 1,0,-1
EndSplineSet
Validated: 1
EndChar

StartChar: hyphen
Encoding: 45 45 114
Width: 1200
Flags: W
LayerCount: 2
Fore
SplineSet
200 652 m 1,0,-1
 1002 652 l 1,1,-1
 1002 452 l 1,2,-1
 200 452 l 1,3,-1
 200 652 l 1,0,-1
EndSplineSet
Validated: 1
EndChar

StartChar: integral
Encoding: 8747 8747 115
Width: 1200
VWidth: 1000
Flags: W
LayerCount: 2
Fore
SplineSet
966.799804688 1561.95019531 m 5,0,1
 946.400390625 1583.20019531 946.400390625 1583.20019531 914.099609375 1583.20019531 c 4,2,3
 898.799804688 1583.20019531 898.799804688 1583.20019531 883.5 1567.90039062 c 132,-1,4
 868.200195312 1552.59960938 868.200195312 1552.59960938 854.599609375 1522 c 132,-1,5
 841 1491.40039062 841 1491.40039062 830.375 1462.92480469 c 132,-1,6
 819.75 1434.45019531 819.75 1434.45019531 808.275390625 1388.97460938 c 132,-1,7
 796.799804688 1343.5 796.799804688 1343.5 791.275390625 1318.84960938 c 132,-1,8
 785.75 1294.20019531 785.75 1294.20019531 776.400390625 1252.54980469 c 4,9,10
 754.299804688 1149.70019531 754.299804688 1149.70019531 717.75 955.049804688 c 4,11,12
 645.5 558.099609375 645.5 558.099609375 542.650390625 153.5 c 4,13,14
 487.017578125 -63.4658203125 487.017578125 -63.4658203125 454.412109375 -140.673828125 c 4,15,16
 398.154296875 -273.892578125 398.154296875 -273.892578125 320.5546875 -281.234375 c 4,17,18
 315.63671875 -281.700195312 315.63671875 -281.700195312 310.599609375 -281.700195312 c 4,19,20
 270.650390625 -281.700195312 270.650390625 -281.700195312 240.900390625 -256.200195312 c 132,-1,21
 211.150390625 -230.700195312 211.150390625 -230.700195312 211.150390625 -195 c 4,22,23
 211.150390625 -172.900390625 211.150390625 -172.900390625 224.325195312 -161.849609375 c 132,-1,24
 237.5 -150.799804688 237.5 -150.799804688 254.5 -150.799804688 c 4,25,26
 270.650390625 -150.799804688 270.650390625 -150.799804688 283.825195312 -161.849609375 c 132,-1,27
 297 -172.900390625 297 -172.900390625 297 -194.150390625 c 4,28,29
 297 -230.700195312 297 -230.700195312 257.049804688 -236.650390625 c 5,30,31
 277.450195312 -257.900390625 277.450195312 -257.900390625 309.75 -257.900390625 c 4,32,33
 325.049804688 -257.900390625 325.049804688 -257.900390625 340.349609375 -242.599609375 c 132,-1,34
 355.650390625 -227.299804688 355.650390625 -227.299804688 369.25 -196.700195312 c 132,-1,35
 382.849609375 -166.099609375 382.849609375 -166.099609375 393.474609375 -137.625 c 132,-1,36
 404.099609375 -109.150390625 404.099609375 -109.150390625 415.575195312 -63.6748046875 c 132,-1,37
 427.049804688 -18.2001953125 427.049804688 -18.2001953125 432.575195312 6.4501953125 c 132,-1,38
 438.099609375 31.099609375 438.099609375 31.099609375 447.450195312 72.75 c 4,39,40
 469.549804688 175.599609375 469.549804688 175.599609375 506.099609375 370.25 c 4,41,42
 578.349609375 767.200195312 578.349609375 767.200195312 681.200195312 1171.79980469 c 4,43,44
 736.83203125 1388.765625 736.83203125 1388.765625 769.4375 1465.97363281 c 4,45,46
 825.696289062 1599.19238281 825.696289062 1599.19238281 903.295898438 1606.53515625 c 4,47,48
 908.212890625 1607 908.212890625 1607 913.25 1607 c 4,49,50
 953.200195312 1607 953.200195312 1607 982.950195312 1581.5 c 132,-1,51
 1012.70019531 1556 1012.70019531 1556 1012.70019531 1520.29980469 c 4,52,53
 1012.70019531 1498.20019531 1012.70019531 1498.20019531 999.525390625 1487.15039062 c 132,-1,54
 986.349609375 1476.09960938 986.349609375 1476.09960938 969.349609375 1476.09960938 c 4,55,56
 953.200195312 1476.09960938 953.200195312 1476.09960938 940.025390625 1487.15039062 c 132,-1,57
 926.849609375 1498.20019531 926.849609375 1498.20019531 926.849609375 1519.45019531 c 4,58,59
 926.849609375 1556 926.849609375 1556 966.799804688 1561.95019531 c 5,0,1
EndSplineSet
Validated: 1
EndChar

StartChar: uni222C
Encoding: 8748 8748 116
Width: 1200
VWidth: 1000
Flags: W
LayerCount: 2
Fore
SplineSet
1116.79980469 1561.95019531 m 1,0,1
 1096.40039062 1583.20019531 1096.40039062 1583.20019531 1064.09960938 1583.20019531 c 0,2,3
 1048.79980469 1583.20019531 1048.79980469 1583.20019531 1033.5 1567.90039062 c 128,-1,4
 1018.20019531 1552.59960938 1018.20019531 1552.59960938 1004.59960938 1522 c 128,-1,5
 991 1491.40039062 991 1491.40039062 980.375 1462.92480469 c 128,-1,6
 969.75 1434.45019531 969.75 1434.45019531 958.275390625 1388.97460938 c 128,-1,7
 946.799804688 1343.5 946.799804688 1343.5 941.275390625 1318.84960938 c 128,-1,8
 935.75 1294.20019531 935.75 1294.20019531 926.400390625 1252.54980469 c 0,9,10
 904.299804688 1149.70019531 904.299804688 1149.70019531 867.75 955.049804688 c 0,11,12
 795.5 558.099609375 795.5 558.099609375 692.650390625 153.5 c 0,13,14
 637.017578125 -63.4658203125 637.017578125 -63.4658203125 604.412109375 -140.673828125 c 0,15,16
 548.154296875 -273.892578125 548.154296875 -273.892578125 470.5546875 -281.234375 c 0,17,18
 465.63671875 -281.700195312 465.63671875 -281.700195312 460.599609375 -281.700195312 c 0,19,20
 420.650390625 -281.700195312 420.650390625 -281.700195312 390.900390625 -256.200195312 c 128,-1,21
 361.150390625 -230.700195312 361.150390625 -230.700195312 361.150390625 -195 c 0,22,23
 361.150390625 -172.900390625 361.150390625 -172.900390625 374.325195312 -161.849609375 c 128,-1,24
 387.5 -150.799804688 387.5 -150.799804688 404.5 -150.799804688 c 0,25,26
 420.650390625 -150.799804688 420.650390625 -150.799804688 433.825195312 -161.849609375 c 128,-1,27
 447 -172.900390625 447 -172.900390625 447 -194.150390625 c 0,28,29
 447 -230.700195312 447 -230.700195312 407.049804688 -236.650390625 c 1,30,31
 427.450195312 -257.900390625 427.450195312 -257.900390625 459.75 -257.900390625 c 0,32,33
 475.049804688 -257.900390625 475.049804688 -257.900390625 490.349609375 -242.599609375 c 128,-1,34
 505.650390625 -227.299804688 505.650390625 -227.299804688 519.25 -196.700195312 c 128,-1,35
 532.849609375 -166.099609375 532.849609375 -166.099609375 543.474609375 -137.625 c 128,-1,36
 554.099609375 -109.150390625 554.099609375 -109.150390625 565.575195312 -63.6748046875 c 128,-1,37
 577.049804688 -18.2001953125 577.049804688 -18.2001953125 582.575195312 6.4501953125 c 128,-1,38
 588.099609375 31.099609375 588.099609375 31.099609375 597.450195312 72.75 c 0,39,40
 619.549804688 175.599609375 619.549804688 175.599609375 656.099609375 370.25 c 0,41,42
 728.349609375 767.200195312 728.349609375 767.200195312 831.200195312 1171.79980469 c 0,43,44
 886.83203125 1388.765625 886.83203125 1388.765625 919.4375 1465.97363281 c 0,45,46
 975.696289062 1599.19238281 975.696289062 1599.19238281 1053.29589844 1606.53515625 c 0,47,48
 1058.21289062 1607 1058.21289062 1607 1063.25 1607 c 0,49,50
 1103.20019531 1607 1103.20019531 1607 1132.95019531 1581.5 c 128,-1,51
 1162.70019531 1556 1162.70019531 1556 1162.70019531 1520.29980469 c 0,52,53
 1162.70019531 1498.20019531 1162.70019531 1498.20019531 1149.52539062 1487.15039062 c 128,-1,54
 1136.34960938 1476.09960938 1136.34960938 1476.09960938 1119.34960938 1476.09960938 c 0,55,56
 1103.20019531 1476.09960938 1103.20019531 1476.09960938 1090.02539062 1487.15039062 c 128,-1,57
 1076.84960938 1498.20019531 1076.84960938 1498.20019531 1076.84960938 1519.45019531 c 0,58,59
 1076.84960938 1556 1076.84960938 1556 1116.79980469 1561.95019531 c 1,0,1
816.799804688 1561.95019531 m 1,60,61
 796.400390625 1583.20019531 796.400390625 1583.20019531 764.099609375 1583.20019531 c 0,62,63
 748.799804688 1583.20019531 748.799804688 1583.20019531 733.5 1567.90039062 c 128,-1,64
 718.200195312 1552.59960938 718.200195312 1552.59960938 704.599609375 1522 c 128,-1,65
 691 1491.40039062 691 1491.40039062 680.375 1462.92480469 c 128,-1,66
 669.75 1434.45019531 669.75 1434.45019531 658.275390625 1388.97460938 c 128,-1,67
 646.799804688 1343.5 646.799804688 1343.5 641.275390625 1318.84960938 c 128,-1,68
 635.75 1294.20019531 635.75 1294.20019531 626.400390625 1252.54980469 c 0,69,70
 604.299804688 1149.70019531 604.299804688 1149.70019531 567.75 955.049804688 c 0,71,72
 495.5 558.099609375 495.5 558.099609375 392.650390625 153.5 c 0,73,74
 337.017578125 -63.4658203125 337.017578125 -63.4658203125 304.412109375 -140.673828125 c 0,75,76
 248.154296875 -273.892578125 248.154296875 -273.892578125 170.5546875 -281.234375 c 0,77,78
 165.63671875 -281.700195312 165.63671875 -281.700195312 160.599609375 -281.700195312 c 0,79,80
 120.650390625 -281.700195312 120.650390625 -281.700195312 90.900390625 -256.200195312 c 128,-1,81
 61.150390625 -230.700195312 61.150390625 -230.700195312 61.150390625 -195 c 0,82,83
 61.150390625 -172.900390625 61.150390625 -172.900390625 74.3251953125 -161.849609375 c 128,-1,84
 87.5 -150.799804688 87.5 -150.799804688 104.5 -150.799804688 c 0,85,86
 120.650390625 -150.799804688 120.650390625 -150.799804688 133.825195312 -161.849609375 c 128,-1,87
 147 -172.900390625 147 -172.900390625 147 -194.150390625 c 0,88,89
 147 -230.700195312 147 -230.700195312 107.049804688 -236.650390625 c 1,90,91
 127.450195312 -257.900390625 127.450195312 -257.900390625 159.75 -257.900390625 c 0,92,93
 175.049804688 -257.900390625 175.049804688 -257.900390625 190.349609375 -242.599609375 c 128,-1,94
 205.650390625 -227.299804688 205.650390625 -227.299804688 219.25 -196.700195312 c 128,-1,95
 232.849609375 -166.099609375 232.849609375 -166.099609375 243.474609375 -137.625 c 128,-1,96
 254.099609375 -109.150390625 254.099609375 -109.150390625 265.575195312 -63.6748046875 c 128,-1,97
 277.049804688 -18.2001953125 277.049804688 -18.2001953125 282.575195312 6.4501953125 c 128,-1,98
 288.099609375 31.099609375 288.099609375 31.099609375 297.450195312 72.75 c 0,99,100
 319.549804688 175.599609375 319.549804688 175.599609375 356.099609375 370.25 c 0,101,102
 428.349609375 767.200195312 428.349609375 767.200195312 531.200195312 1171.79980469 c 0,103,104
 586.83203125 1388.765625 586.83203125 1388.765625 619.4375 1465.97363281 c 0,105,106
 675.696289062 1599.19238281 675.696289062 1599.19238281 753.295898438 1606.53515625 c 0,107,108
 758.212890625 1607 758.212890625 1607 763.25 1607 c 0,109,110
 803.200195312 1607 803.200195312 1607 832.950195312 1581.5 c 128,-1,111
 862.700195312 1556 862.700195312 1556 862.700195312 1520.29980469 c 0,112,113
 862.700195312 1498.20019531 862.700195312 1498.20019531 849.525390625 1487.15039062 c 128,-1,114
 836.349609375 1476.09960938 836.349609375 1476.09960938 819.349609375 1476.09960938 c 0,115,116
 803.200195312 1476.09960938 803.200195312 1476.09960938 790.025390625 1487.15039062 c 128,-1,117
 776.849609375 1498.20019531 776.849609375 1498.20019531 776.849609375 1519.45019531 c 0,118,119
 776.849609375 1556 776.849609375 1556 816.799804688 1561.95019531 c 1,60,61
EndSplineSet
Validated: 1
EndChar

StartChar: uni222D
Encoding: 8749 8749 117
Width: 1200
VWidth: 1000
Flags: W
LayerCount: 2
Fore
SplineSet
752.799804688 1561.95019531 m 5,0,1
 732.400390625 1583.20019531 732.400390625 1583.20019531 700.099609375 1583.20019531 c 4,2,3
 684.799804688 1583.20019531 684.799804688 1583.20019531 669.5 1567.90039062 c 132,-1,4
 654.200195312 1552.59960938 654.200195312 1552.59960938 640.599609375 1522 c 132,-1,5
 627 1491.40039062 627 1491.40039062 616.375 1462.92480469 c 132,-1,6
 605.75 1434.45019531 605.75 1434.45019531 594.275390625 1388.97460938 c 132,-1,7
 582.799804688 1343.5 582.799804688 1343.5 577.275390625 1318.84960938 c 132,-1,8
 571.75 1294.20019531 571.75 1294.20019531 562.400390625 1252.54980469 c 4,9,10
 540.299804688 1149.70019531 540.299804688 1149.70019531 503.75 955.049804688 c 4,11,12
 431.5 558.099609375 431.5 558.099609375 328.650390625 153.5 c 4,13,14
 273.017578125 -63.4658203125 273.017578125 -63.4658203125 240.412109375 -140.673828125 c 4,15,16
 184.154296875 -273.892578125 184.154296875 -273.892578125 106.5546875 -281.234375 c 4,17,18
 101.63671875 -281.700195312 101.63671875 -281.700195312 96.599609375 -281.700195312 c 4,19,20
 56.650390625 -281.700195312 56.650390625 -281.700195312 26.900390625 -256.200195312 c 132,-1,21
 -2.849609375 -230.700195312 -2.849609375 -230.700195312 -2.849609375 -195 c 4,22,23
 -2.849609375 -172.900390625 -2.849609375 -172.900390625 10.3251953125 -161.849609375 c 132,-1,24
 23.5 -150.799804688 23.5 -150.799804688 40.5 -150.799804688 c 4,25,26
 56.650390625 -150.799804688 56.650390625 -150.799804688 69.8251953125 -161.849609375 c 132,-1,27
 83 -172.900390625 83 -172.900390625 83 -194.150390625 c 4,28,29
 83 -230.700195312 83 -230.700195312 43.0498046875 -236.650390625 c 5,30,31
 63.4501953125 -257.900390625 63.4501953125 -257.900390625 95.75 -257.900390625 c 4,32,33
 111.049804688 -257.900390625 111.049804688 -257.900390625 126.349609375 -242.599609375 c 132,-1,34
 141.650390625 -227.299804688 141.650390625 -227.299804688 155.25 -196.700195312 c 132,-1,35
 168.849609375 -166.099609375 168.849609375 -166.099609375 179.474609375 -137.625 c 132,-1,36
 190.099609375 -109.150390625 190.099609375 -109.150390625 201.575195312 -63.6748046875 c 132,-1,37
 213.049804688 -18.2001953125 213.049804688 -18.2001953125 218.575195312 6.4501953125 c 132,-1,38
 224.099609375 31.099609375 224.099609375 31.099609375 233.450195312 72.75 c 4,39,40
 255.549804688 175.599609375 255.549804688 175.599609375 292.099609375 370.25 c 4,41,42
 364.349609375 767.200195312 364.349609375 767.200195312 467.200195312 1171.79980469 c 4,43,44
 522.83203125 1388.765625 522.83203125 1388.765625 555.4375 1465.97363281 c 4,45,46
 611.696289062 1599.19238281 611.696289062 1599.19238281 689.295898438 1606.53515625 c 4,47,48
 694.212890625 1607 694.212890625 1607 699.25 1607 c 4,49,50
 739.200195312 1607 739.200195312 1607 768.950195312 1581.5 c 132,-1,51
 798.700195312 1556 798.700195312 1556 798.700195312 1520.29980469 c 4,52,53
 798.700195312 1498.20019531 798.700195312 1498.20019531 785.525390625 1487.15039062 c 132,-1,54
 772.349609375 1476.09960938 772.349609375 1476.09960938 755.349609375 1476.09960938 c 4,55,56
 739.200195312 1476.09960938 739.200195312 1476.09960938 726.025390625 1487.15039062 c 132,-1,57
 712.849609375 1498.20019531 712.849609375 1498.20019531 712.849609375 1519.45019531 c 4,58,59
 712.849609375 1556 712.849609375 1556 752.799804688 1561.95019531 c 5,0,1
1152.79980469 1561.95019531 m 5,60,61
 1132.40039062 1583.20019531 1132.40039062 1583.20019531 1100.09960938 1583.20019531 c 4,62,63
 1084.79980469 1583.20019531 1084.79980469 1583.20019531 1069.5 1567.90039062 c 132,-1,64
 1054.20019531 1552.59960938 1054.20019531 1552.59960938 1040.59960938 1522 c 132,-1,65
 1027 1491.40039062 1027 1491.40039062 1016.375 1462.92480469 c 132,-1,66
 1005.75 1434.45019531 1005.75 1434.45019531 994.275390625 1388.97460938 c 132,-1,67
 982.799804688 1343.5 982.799804688 1343.5 977.275390625 1318.84960938 c 132,-1,68
 971.75 1294.20019531 971.75 1294.20019531 962.400390625 1252.54980469 c 4,69,70
 940.299804688 1149.70019531 940.299804688 1149.70019531 903.75 955.049804688 c 4,71,72
 831.5 558.099609375 831.5 558.099609375 728.650390625 153.5 c 4,73,74
 673.017578125 -63.4658203125 673.017578125 -63.4658203125 640.412109375 -140.673828125 c 4,75,76
 584.154296875 -273.892578125 584.154296875 -273.892578125 506.5546875 -281.234375 c 4,77,78
 501.63671875 -281.700195312 501.63671875 -281.700195312 496.599609375 -281.700195312 c 4,79,80
 456.650390625 -281.700195312 456.650390625 -281.700195312 426.900390625 -256.200195312 c 132,-1,81
 397.150390625 -230.700195312 397.150390625 -230.700195312 397.150390625 -195 c 4,82,83
 397.150390625 -172.900390625 397.150390625 -172.900390625 410.325195312 -161.849609375 c 132,-1,84
 423.5 -150.799804688 423.5 -150.799804688 440.5 -150.799804688 c 4,85,86
 456.650390625 -150.799804688 456.650390625 -150.799804688 469.825195312 -161.849609375 c 132,-1,87
 483 -172.900390625 483 -172.900390625 483 -194.150390625 c 4,88,89
 483 -230.700195312 483 -230.700195312 443.049804688 -236.650390625 c 5,90,91
 463.450195312 -257.900390625 463.450195312 -257.900390625 495.75 -257.900390625 c 4,92,93
 511.049804688 -257.900390625 511.049804688 -257.900390625 526.349609375 -242.599609375 c 132,-1,94
 541.650390625 -227.299804688 541.650390625 -227.299804688 555.25 -196.700195312 c 132,-1,95
 568.849609375 -166.099609375 568.849609375 -166.099609375 579.474609375 -137.625 c 132,-1,96
 590.099609375 -109.150390625 590.099609375 -109.150390625 601.575195312 -63.6748046875 c 132,-1,97
 613.049804688 -18.2001953125 613.049804688 -18.2001953125 618.575195312 6.4501953125 c 132,-1,98
 624.099609375 31.099609375 624.099609375 31.099609375 633.450195312 72.75 c 4,99,100
 655.549804688 175.599609375 655.549804688 175.599609375 692.099609375 370.25 c 4,101,102
 764.349609375 767.200195312 764.349609375 767.200195312 867.200195312 1171.79980469 c 4,103,104
 922.83203125 1388.765625 922.83203125 1388.765625 955.4375 1465.97363281 c 4,105,106
 1011.69628906 1599.19238281 1011.69628906 1599.19238281 1089.29589844 1606.53515625 c 4,107,108
 1094.21289062 1607 1094.21289062 1607 1099.25 1607 c 4,109,110
 1139.20019531 1607 1139.20019531 1607 1168.95019531 1581.5 c 132,-1,111
 1198.70019531 1556 1198.70019531 1556 1198.70019531 1520.29980469 c 4,112,113
 1198.70019531 1498.20019531 1198.70019531 1498.20019531 1185.52539062 1487.15039062 c 132,-1,114
 1172.34960938 1476.09960938 1172.34960938 1476.09960938 1155.34960938 1476.09960938 c 4,115,116
 1139.20019531 1476.09960938 1139.20019531 1476.09960938 1126.02539062 1487.15039062 c 132,-1,117
 1112.84960938 1498.20019531 1112.84960938 1498.20019531 1112.84960938 1519.45019531 c 4,118,119
 1112.84960938 1556 1112.84960938 1556 1152.79980469 1561.95019531 c 5,60,61
952.799804688 1561.95019531 m 5,120,121
 932.400390625 1583.20019531 932.400390625 1583.20019531 900.099609375 1583.20019531 c 4,122,123
 884.799804688 1583.20019531 884.799804688 1583.20019531 869.5 1567.90039062 c 132,-1,124
 854.200195312 1552.59960938 854.200195312 1552.59960938 840.599609375 1522 c 132,-1,125
 827 1491.40039062 827 1491.40039062 816.375 1462.92480469 c 132,-1,126
 805.75 1434.45019531 805.75 1434.45019531 794.275390625 1388.97460938 c 132,-1,127
 782.799804688 1343.5 782.799804688 1343.5 777.275390625 1318.84960938 c 132,-1,128
 771.75 1294.20019531 771.75 1294.20019531 762.400390625 1252.54980469 c 4,129,130
 740.299804688 1149.70019531 740.299804688 1149.70019531 703.75 955.049804688 c 4,131,132
 631.5 558.099609375 631.5 558.099609375 528.650390625 153.5 c 4,133,134
 473.017578125 -63.4658203125 473.017578125 -63.4658203125 440.412109375 -140.673828125 c 4,135,136
 384.154296875 -273.892578125 384.154296875 -273.892578125 306.5546875 -281.234375 c 4,137,138
 301.63671875 -281.700195312 301.63671875 -281.700195312 296.599609375 -281.700195312 c 4,139,140
 256.650390625 -281.700195312 256.650390625 -281.700195312 226.900390625 -256.200195312 c 132,-1,141
 197.150390625 -230.700195312 197.150390625 -230.700195312 197.150390625 -195 c 4,142,143
 197.150390625 -172.900390625 197.150390625 -172.900390625 210.325195312 -161.849609375 c 132,-1,144
 223.5 -150.799804688 223.5 -150.799804688 240.5 -150.799804688 c 4,145,146
 256.650390625 -150.799804688 256.650390625 -150.799804688 269.825195312 -161.849609375 c 132,-1,147
 283 -172.900390625 283 -172.900390625 283 -194.150390625 c 4,148,149
 283 -230.700195312 283 -230.700195312 243.049804688 -236.650390625 c 5,150,151
 263.450195312 -257.900390625 263.450195312 -257.900390625 295.75 -257.900390625 c 4,152,153
 311.049804688 -257.900390625 311.049804688 -257.900390625 326.349609375 -242.599609375 c 132,-1,154
 341.650390625 -227.299804688 341.650390625 -227.299804688 355.25 -196.700195312 c 132,-1,155
 368.849609375 -166.099609375 368.849609375 -166.099609375 379.474609375 -137.625 c 132,-1,156
 390.099609375 -109.150390625 390.099609375 -109.150390625 401.575195312 -63.6748046875 c 132,-1,157
 413.049804688 -18.2001953125 413.049804688 -18.2001953125 418.575195312 6.4501953125 c 132,-1,158
 424.099609375 31.099609375 424.099609375 31.099609375 433.450195312 72.75 c 4,159,160
 455.549804688 175.599609375 455.549804688 175.599609375 492.099609375 370.25 c 4,161,162
 564.349609375 767.200195312 564.349609375 767.200195312 667.200195312 1171.79980469 c 4,163,164
 722.83203125 1388.765625 722.83203125 1388.765625 755.4375 1465.97363281 c 4,165,166
 811.696289062 1599.19238281 811.696289062 1599.19238281 889.295898438 1606.53515625 c 4,167,168
 894.212890625 1607 894.212890625 1607 899.25 1607 c 4,169,170
 939.200195312 1607 939.200195312 1607 968.950195312 1581.5 c 132,-1,171
 998.700195312 1556 998.700195312 1556 998.700195312 1520.29980469 c 4,172,173
 998.700195312 1498.20019531 998.700195312 1498.20019531 985.525390625 1487.15039062 c 132,-1,174
 972.349609375 1476.09960938 972.349609375 1476.09960938 955.349609375 1476.09960938 c 4,175,176
 939.200195312 1476.09960938 939.200195312 1476.09960938 926.025390625 1487.15039062 c 132,-1,177
 912.849609375 1498.20019531 912.849609375 1498.20019531 912.849609375 1519.45019531 c 4,178,179
 912.849609375 1556 912.849609375 1556 952.799804688 1561.95019531 c 5,120,121
EndSplineSet
Validated: 5
EndChar

StartChar: uni222E
Encoding: 8750 8750 118
Width: 1200
Flags: W
AnchorPoint: "Anchor-3" 600 1577 basechar 0
AnchorPoint: "Anchor-2" 600 -167 basechar 0
LayerCount: 2
Fore
SplineSet
875 889 m 132,-1,1
 823 968 823 968 736 1002 c 5,2,-1
 640 400 l 5,3,4
 722 405 722 405 787.5 447 c 132,-1,5
 853 489 853 489 890 557.5 c 132,-1,6
 927 626 927 626 927 709 c 4,7,0
 927 810 927 810 875 889 c 132,-1,1
232 936 m 132,-1,9
 290 1038 290 1038 391 1096 c 132,-1,10
 492 1154 492 1154 617 1154 c 6,11,-1
 624 1154 l 5,12,-1
 639 1247 l 6,13,14
 665 1406 665 1406 729.5 1491.5 c 132,-1,15
 794 1577 794 1577 891 1577 c 4,16,17
 945 1577 945 1577 977 1550 c 132,-1,18
 1009 1523 1009 1523 1009 1470 c 4,19,20
 1009 1430 1009 1430 991 1407.5 c 132,-1,21
 973 1385 973 1385 936 1385 c 4,22,23
 908 1385 908 1385 895 1396.5 c 132,-1,24
 882 1408 882 1408 882 1427 c 4,25,26
 882 1440 882 1440 886 1447 c 132,-1,27
 890 1454 890 1454 898 1461 c 4,28,29
 912 1473 912 1473 912 1489 c 4,30,31
 912 1507 912 1507 901.5 1513.5 c 132,-1,32
 891 1520 891 1520 879 1520 c 4,33,34
 850 1520 850 1520 832 1489 c 132,-1,35
 814 1458 814 1458 803 1407.5 c 132,-1,36
 792 1357 792 1357 777 1261 c 6,37,-1
 757 1133 l 5,38,39
 847 1106 847 1106 916 1045 c 132,-1,40
 985 984 985 984 1023.5 897.5 c 132,-1,41
 1062 811 1062 811 1062 711 c 4,42,43
 1062 587 1062 587 1004 485.5 c 132,-1,44
 946 384 946 384 845 325.5 c 132,-1,45
 744 267 744 267 619 267 c 5,46,-1
 599 138 l 6,47,48
 575 -11 575 -11 518 -89 c 132,-1,49
 461 -167 461 -167 371 -167 c 4,50,51
 310 -167 310 -167 271 -133 c 132,-1,52
 232 -99 232 -99 232 -39 c 4,53,54
 232 2 232 2 251 29.5 c 132,-1,55
 270 57 270 57 306 57 c 4,56,57
 335 57 335 57 355 39.5 c 132,-1,58
 375 22 375 22 375 -2 c 4,59,60
 375 -12 375 -12 371.5 -18 c 132,-1,61
 368 -24 368 -24 361 -32 c 4,62,63
 353 -41 353 -41 349.5 -47.5 c 132,-1,64
 346 -54 346 -54 346 -67 c 4,65,66
 346 -86 346 -86 354 -95 c 132,-1,67
 362 -104 362 -104 372 -104 c 4,68,69
 422 -104 422 -104 459 127 c 6,70,-1
 484 286 l 5,71,72
 392 312 392 312 322 373 c 132,-1,73
 252 434 252 434 213 521 c 132,-1,74
 174 608 174 608 174 709 c 4,75,8
 174 834 174 834 232 936 c 132,-1,9
363.5 530.5 m 132,-1,77
 417 452 417 452 506 419 c 5,78,-1
 603 1024 l 5,79,80
 520 1020 520 1020 453 978 c 132,-1,81
 386 936 386 936 348 866 c 132,-1,82
 310 796 310 796 310 711 c 4,83,76
 310 609 310 609 363.5 530.5 c 132,-1,77
EndSplineSet
Validated: 1
EndChar

StartChar: uni222F
Encoding: 8751 8751 119
Width: 1200
Flags: W
AnchorPoint: "Anchor-3" 600 1580 basechar 0
AnchorPoint: "Anchor-2" 600 -164 basechar 0
LayerCount: 2
Fore
SplineSet
429 422 m 1,1,-1
 384 141 l 2,2,3
 360 -8 360 -8 303 -86 c 128,-1,4
 246 -164 246 -164 156 -164 c 0,5,6
 95 -164 95 -164 56 -130 c 128,-1,7
 17 -96 17 -96 17 -36 c 0,8,9
 17 5 17 5 36 32.5 c 128,-1,10
 55 60 55 60 91 60 c 0,11,12
 120 60 120 60 140 42.5 c 128,-1,13
 160 25 160 25 160 1 c 0,14,15
 160 -9 160 -9 156.5 -15 c 128,-1,16
 153 -21 153 -21 146 -29 c 0,17,18
 138 -38 138 -38 134.5 -44.5 c 128,-1,19
 131 -51 131 -51 131 -64 c 0,20,21
 131 -83 131 -83 139 -92 c 128,-1,22
 147 -101 147 -101 157 -101 c 0,23,24
 207 -101 207 -101 244 130 c 2,25,-1
 298 468 l 1,26,27
 211 511 211 511 161.5 574 c 128,-1,28
 112 637 112 637 112 709 c 0,29,30
 112 797 112 797 185.5 870 c 128,-1,31
 259 943 259 943 381 982 c 1,32,-1
 424 1250 l 2,33,34
 450 1409 450 1409 514.5 1494.5 c 128,-1,35
 579 1580 579 1580 676 1580 c 0,36,37
 730 1580 730 1580 762 1553 c 128,-1,38
 794 1526 794 1526 794 1473 c 0,39,40
 794 1433 794 1433 776 1410.5 c 128,-1,41
 758 1388 758 1388 721 1388 c 0,42,43
 693 1388 693 1388 680 1399.5 c 128,-1,44
 667 1411 667 1411 667 1430 c 0,45,46
 667 1443 667 1443 671 1450 c 128,-1,47
 675 1457 675 1457 683 1464 c 0,48,49
 697 1476 697 1476 697 1492 c 0,50,51
 697 1510 697 1510 686.5 1516.5 c 128,-1,52
 676 1523 676 1523 664 1523 c 0,53,54
 635 1523 635 1523 617 1492 c 128,-1,55
 599 1461 599 1461 588 1410.5 c 128,-1,56
 577 1360 577 1360 562 1264 c 2,57,-1
 522 1010 l 1,58,59
 555 1014 555 1014 600 1014 c 0,60,61
 693 1014 693 1014 783 992 c 1,62,-1
 824 1250 l 2,63,64
 850 1409 850 1409 914.5 1494.5 c 128,-1,65
 979 1580 979 1580 1076 1580 c 0,66,67
 1130 1580 1130 1580 1162 1553 c 128,-1,68
 1194 1526 1194 1526 1194 1473 c 0,69,70
 1194 1433 1194 1433 1176 1410.5 c 128,-1,71
 1158 1388 1158 1388 1121 1388 c 0,72,73
 1093 1388 1093 1388 1080 1399.5 c 128,-1,74
 1067 1411 1067 1411 1067 1430 c 0,75,76
 1067 1443 1067 1443 1071 1450 c 128,-1,77
 1075 1457 1075 1457 1083 1464 c 0,78,79
 1097 1476 1097 1476 1097 1492 c 0,80,81
 1097 1510 1097 1510 1086.5 1516.5 c 128,-1,82
 1076 1523 1076 1523 1064 1523 c 0,83,84
 1035 1523 1035 1523 1017 1492 c 128,-1,85
 999 1461 999 1461 988 1410.5 c 128,-1,86
 977 1360 977 1360 962 1264 c 2,87,-1
 911 944 l 1,88,89
 994 901 994 901 1041 839.5 c 128,-1,90
 1088 778 1088 778 1088 709 c 0,91,92
 1088 623 1088 623 1018 551 c 128,-1,93
 948 479 948 479 831 439 c 1,94,-1
 784 141 l 2,95,96
 760 -8 760 -8 703 -86 c 128,-1,97
 646 -164 646 -164 556 -164 c 0,98,99
 495 -164 495 -164 456 -130 c 128,-1,100
 417 -96 417 -96 417 -36 c 0,101,102
 417 5 417 5 436 32.5 c 128,-1,103
 455 60 455 60 491 60 c 0,104,105
 520 60 520 60 540 42.5 c 128,-1,106
 560 25 560 25 560 1 c 0,107,108
 560 -9 560 -9 556.5 -15 c 128,-1,109
 553 -21 553 -21 546 -29 c 0,110,111
 538 -38 538 -38 534.5 -44.5 c 128,-1,112
 531 -51 531 -51 531 -64 c 0,113,114
 531 -83 531 -83 539 -92 c 128,-1,115
 547 -101 547 -101 557 -101 c 0,116,117
 607 -101 607 -101 644 130 c 2,118,-1
 689 408 l 1,119,120
 641 403 641 403 600 403 c 0,121,0
 513 403 513 403 429 422 c 1,1,-1
317 582 m 1,123,-1
 363 870 l 1,124,125
 313 839 313 839 285 797 c 128,-1,126
 257 755 257 755 257 709 c 0,127,122
 257 639 257 639 317 582 c 1,123,-1
600 485 m 0,129,130
 648 485 648 485 703 495 c 1,131,-1
 768 903 l 1,132,133
 693 932 693 932 600 932 c 0,134,135
 554 932 554 932 508 924 c 1,136,-1
 442 510 l 1,137,128
 517 485 517 485 600 485 c 0,129,130
918.5 625.5 m 128,-1,139
 943 665 943 665 943 709 c 0,140,141
 943 773 943 773 893 826 c 1,142,-1
 850 555 l 1,143,138
 894 586 894 586 918.5 625.5 c 128,-1,139
EndSplineSet
Validated: 1
EndChar

StartChar: uni2230
Encoding: 8752 8752 120
Width: 1200
Flags: W
AnchorPoint: "Anchor-3" 600 1580 basechar 0
AnchorPoint: "Anchor-2" 600 -164 basechar 0
LayerCount: 2
Fore
SplineSet
475 1494 m 128,-1,1
 526 1580 526 1580 594 1580 c 0,2,3
 693 1580 693 1580 693 1490 c 0,4,5
 692 1440 692 1440 677.5 1418 c 128,-1,6
 663 1396 663 1396 631 1396 c 0,7,8
 589 1396 589 1396 589 1435 c 0,9,10
 589 1448 589 1448 592.5 1454 c 128,-1,11
 596 1460 596 1460 603 1467 c 256,12,13
 610 1474 610 1474 613 1479 c 128,-1,14
 616 1484 616 1484 616 1494 c 0,15,16
 616 1509 616 1509 609.5 1516 c 128,-1,17
 603 1523 603 1523 588 1523 c 0,18,19
 566 1523 566 1523 544.5 1454 c 128,-1,20
 523 1385 523 1385 504 1265 c 2,21,-1
 468 1037 l 1,22,23
 546 1050 546 1050 620 1050 c 2,24,-1
 626 1050 l 1,25,-1
 658 1250 l 2,26,27
 683 1408 683 1408 734 1494 c 128,-1,28
 785 1580 785 1580 854 1580 c 0,29,30
 952 1580 952 1580 952 1493 c 0,31,32
 952 1442 952 1442 937.5 1419 c 128,-1,33
 923 1396 923 1396 891 1396 c 0,34,35
 848 1396 848 1396 848 1435 c 0,36,37
 849 1447 849 1447 852.5 1453.5 c 128,-1,38
 856 1460 856 1460 862 1466 c 0,39,40
 869 1473 869 1473 872 1478 c 128,-1,41
 875 1483 875 1483 875 1494 c 0,42,43
 875 1509 875 1509 869 1516 c 128,-1,44
 863 1523 863 1523 848 1523 c 0,45,46
 826 1523 826 1523 804.5 1454 c 128,-1,47
 783 1385 783 1385 764 1265 c 2,48,-1
 729 1043 l 1,49,50
 813 1032 813 1032 879 1009 c 1,51,-1
 917 1250 l 2,52,53
 943 1408 943 1408 994 1494 c 128,-1,54
 1045 1580 1045 1580 1113 1580 c 0,55,56
 1212 1580 1212 1580 1212 1490 c 0,57,58
 1211 1440 1211 1440 1196.5 1418 c 128,-1,59
 1182 1396 1182 1396 1150 1396 c 0,60,61
 1108 1396 1108 1396 1108 1432 c 0,62,63
 1108 1445 1108 1445 1111.5 1452 c 128,-1,64
 1115 1459 1115 1459 1122 1466 c 256,65,66
 1129 1473 1129 1473 1132 1478 c 128,-1,67
 1135 1483 1135 1483 1135 1494 c 0,68,69
 1135 1509 1135 1509 1128.5 1516 c 128,-1,70
 1122 1523 1122 1523 1107 1523 c 0,71,72
 1085 1523 1085 1523 1063.5 1454 c 128,-1,73
 1042 1385 1042 1385 1023 1265 c 2,74,-1
 976 967 l 1,75,76
 1064 919 1064 919 1114 852 c 128,-1,77
 1164 785 1164 785 1164 709 c 0,78,79
 1164 615 1164 615 1089 535.5 c 128,-1,80
 1014 456 1014 456 889 411 c 1,81,-1
 846 141 l 2,82,83
 822 -7 822 -7 772.5 -85.5 c 128,-1,84
 723 -164 723 -164 655 -164 c 0,85,86
 601 -164 601 -164 572 -130 c 128,-1,87
 543 -96 543 -96 543 -47 c 0,88,89
 543 -31 543 -31 544 -24 c 1,90,91
 517 -93 517 -93 479.5 -128.5 c 128,-1,92
 442 -164 442 -164 396 -164 c 0,93,94
 341 -164 341 -164 312 -130 c 128,-1,95
 283 -96 283 -96 283 -47 c 0,96,97
 283 -32 283 -32 284 -25 c 1,98,99
 256 -93 256 -93 218.5 -128.5 c 128,-1,100
 181 -164 181 -164 136 -164 c 0,101,102
 82 -164 82 -164 53 -130 c 128,-1,103
 24 -96 24 -96 24 -47 c 0,104,105
 24 -4 24 -4 35 17 c 128,-1,106
 46 38 46 38 75 38 c 0,107,108
 99 38 99 38 113 27.5 c 128,-1,109
 127 17 127 17 127 0 c 0,110,111
 127 -16 127 -16 123.5 -23.5 c 128,-1,112
 120 -31 120 -31 113 -38 c 0,113,114
 107 -43 107 -43 104 -48 c 128,-1,115
 101 -53 101 -53 101 -63 c 0,116,117
 101 -81 101 -81 114 -90.5 c 128,-1,118
 127 -100 127 -100 148 -100 c 0,119,120
 166 -100 166 -100 183 -49 c 128,-1,121
 200 2 200 2 221 131 c 2,122,-1
 271 447 l 1,123,124
 180 494 180 494 128 563 c 128,-1,125
 76 632 76 632 76 709 c 0,126,127
 76 804 76 804 153.5 884.5 c 128,-1,128
 231 965 231 965 360 1009 c 1,129,-1
 398 1250 l 2,130,0
 424 1408 424 1408 475 1494 c 128,-1,1
231.5 630.5 m 128,-1,132
 252 593 252 593 289 562 c 1,133,-1
 341 891 l 1,134,135
 280 857 280 857 245.5 809.5 c 128,-1,136
 211 762 211 762 211 709 c 0,137,131
 211 668 211 668 231.5 630.5 c 128,-1,132
335 38 m 0,139,140
 359 38 359 38 373 27 c 128,-1,141
 387 16 387 16 387 -2 c 0,142,143
 386 -17 386 -17 382.5 -24 c 128,-1,144
 379 -31 379 -31 372 -37 c 0,145,146
 366 -43 366 -43 363.5 -48 c 128,-1,147
 361 -53 361 -53 361 -63 c 0,148,149
 361 -81 361 -81 374 -90.5 c 128,-1,150
 387 -100 387 -100 407 -100 c 0,151,152
 425 -100 425 -100 442.5 -50 c 128,-1,153
 460 0 460 0 481 131 c 2,154,-1
 519 373 l 1,155,156
 437 382 437 382 369 406 c 1,157,-1
 327 141 l 2,158,159
 315 71 315 71 302 27 c 1,160,138
 313 38 313 38 335 38 c 0,139,140
534 465 m 1,162,-1
 612 958 l 1,163,164
 524 956 524 956 452 936 c 1,165,-1
 384 504 l 1,166,161
 449 476 449 476 534 465 c 1,162,-1
594 38 m 0,168,169
 618 38 618 38 632 27.5 c 128,-1,170
 646 17 646 17 646 0 c 0,171,172
 646 -16 646 -16 642.5 -23.5 c 128,-1,173
 639 -31 639 -31 632 -38 c 0,174,175
 626 -43 626 -43 623 -48 c 128,-1,176
 620 -53 620 -53 620 -63 c 0,177,178
 620 -81 620 -81 633 -90.5 c 128,-1,179
 646 -100 646 -100 667 -100 c 0,180,181
 685 -100 685 -100 702 -49 c 128,-1,182
 719 2 719 2 740 131 c 2,183,-1
 780 382 l 1,184,185
 705 367 705 367 622 367 c 1,186,-1
 586 141 l 2,187,188
 575 74 575 74 561 26 c 1,189,167
 573 38 573 38 594 38 c 0,168,169
796 483 m 1,191,-1
 863 909 l 1,192,193
 793 941 793 941 714 951 c 1,194,-1
 636 459 l 1,195,190
 723 462 723 462 796 483 c 1,191,-1
997 611 m 128,-1,197
 1029 657 1029 657 1029 709 c 0,198,199
 1029 748 1029 748 1010.5 784 c 128,-1,200
 992 820 992 820 958 850 c 1,201,-1
 907 531 l 1,202,196
 965 565 965 565 997 611 c 128,-1,197
EndSplineSet
Validated: 1
EndChar

StartChar: logicaland
Encoding: 8743 8743 121
Width: 1200
VWidth: 1000
Flags: W
LayerCount: 2
Fore
SplineSet
1042 -123.200195312 m 6,0,-1
 600 1185.79980469 l 5,1,-1
 158 -125.400390625 l 6,2,3
 146 -165 146 -165 113 -165 c 4,4,5
 96 -165 96 -165 82.5 -150.700195312 c 132,-1,6
 69 -136.400390625 69 -136.400390625 69 -115.5 c 4,7,8
 69 -105.599609375 69 -105.599609375 75 -88 c 6,9,-1
 556 1334.29980469 l 6,10,11
 568 1375 568 1375 600 1375 c 4,12,13
 630 1375 630 1375 645 1334.29980469 c 6,14,-1
 1125 -89.099609375 l 6,15,16
 1131 -106.700195312 1131 -106.700195312 1131 -115.5 c 4,17,18
 1131 -136.400390625 1131 -136.400390625 1117.5 -150.700195312 c 132,-1,19
 1104 -165 1104 -165 1087 -165 c 4,20,21
 1076 -165 1076 -165 1068 -161.150390625 c 132,-1,22
 1060 -157.299804688 1060 -157.299804688 1055 -149.599609375 c 132,-1,23
 1050 -141.900390625 1050 -141.900390625 1048 -137.5 c 132,-1,24
 1046 -133.099609375 1046 -133.099609375 1042 -123.200195312 c 6,0,-1
EndSplineSet
Validated: 1
EndChar

StartChar: logicalor
Encoding: 8744 8744 122
Width: 1200
VWidth: 1000
Flags: W
LayerCount: 2
Fore
SplineSet
600 24.2001953125 m 5,0,-1
 1042 1335.40039062 l 6,1,2
 1054 1375 1054 1375 1087 1375 c 4,3,4
 1104 1375 1104 1375 1117.5 1360.70019531 c 132,-1,5
 1131 1346.40039062 1131 1346.40039062 1131 1325.5 c 4,6,7
 1131 1315.59960938 1131 1315.59960938 1125 1298 c 6,8,-1
 644 -124.299804688 l 6,9,10
 631 -165 631 -165 600 -165 c 4,11,12
 568 -165 568 -165 555 -124.299804688 c 6,13,-1
 75 1299.09960938 l 6,14,15
 69 1316.70019531 69 1316.70019531 69 1325.5 c 4,16,17
 69 1346.40039062 69 1346.40039062 82.5 1360.70019531 c 132,-1,18
 96 1375 96 1375 113 1375 c 4,19,20
 124 1375 124 1375 132 1371.15039062 c 132,-1,21
 140 1367.29980469 140 1367.29980469 145 1359.59960938 c 132,-1,22
 150 1351.90039062 150 1351.90039062 152 1347.5 c 132,-1,23
 154 1343.09960938 154 1343.09960938 158 1333.20019531 c 6,24,-1
 600 24.2001953125 l 5,0,-1
EndSplineSet
Validated: 1
EndChar

StartChar: intersection
Encoding: 8745 8745 123
Width: 1200
VWidth: 1000
Flags: W
LayerCount: 2
Fore
SplineSet
1042 -101.200195312 m 6,0,-1
 1042 842.599609375 l 6,1,2
 1042 968 1042 968 979.5 1068.65039062 c 132,-1,3
 917 1169.29980469 917 1169.29980469 816 1223.20019531 c 132,-1,4
 715 1277.09960938 715 1277.09960938 600 1277.09960938 c 132,-1,5
 485 1277.09960938 485 1277.09960938 384.5 1223.20019531 c 132,-1,6
 284 1169.29980469 284 1169.29980469 221 1068.65039062 c 132,-1,7
 158 968 158 968 158 842.599609375 c 6,8,-1
 158 -101.200195312 l 6,9,10
 158 -165 158 -165 113 -165 c 4,11,12
 69 -165 69 -165 69 -101.200195312 c 6,13,-1
 69 848.099609375 l 6,14,15
 69 992.200195312 69 992.200195312 140.5 1113.75 c 132,-1,16
 212 1235.29980469 212 1235.29980469 334.5 1305.15039062 c 132,-1,17
 457 1375 457 1375 600 1375 c 132,-1,18
 743 1375 743 1375 865.5 1305.15039062 c 132,-1,19
 988 1235.29980469 988 1235.29980469 1059.5 1113.75 c 132,-1,20
 1131 992.200195312 1131 992.200195312 1131 848.099609375 c 6,21,-1
 1131 -101.200195312 l 6,22,23
 1131 -165 1131 -165 1086 -165 c 4,24,25
 1042 -165 1042 -165 1042 -101.200195312 c 6,0,-1
EndSplineSet
Validated: 1
EndChar

StartChar: union
Encoding: 8746 8746 124
Width: 1200
VWidth: 1000
Flags: W
LayerCount: 2
Fore
SplineSet
1042 367.400390625 m 6,0,-1
 1042 1311.20019531 l 6,1,2
 1042 1375 1042 1375 1087 1375 c 4,3,4
 1131 1375 1131 1375 1131 1311.20019531 c 6,5,-1
 1131 361.900390625 l 6,6,7
 1131 217.799804688 1131 217.799804688 1059.5 96.25 c 132,-1,8
 988 -25.2998046875 988 -25.2998046875 865.5 -95.150390625 c 132,-1,9
 743 -165 743 -165 600 -165 c 132,-1,10
 457 -165 457 -165 334.5 -95.150390625 c 132,-1,11
 212 -25.2998046875 212 -25.2998046875 140.5 96.25 c 132,-1,12
 69 217.799804688 69 217.799804688 69 361.900390625 c 6,13,-1
 69 1311.20019531 l 6,14,15
 69 1375 69 1375 114 1375 c 4,16,17
 158 1375 158 1375 158 1311.20019531 c 6,18,-1
 158 367.400390625 l 6,19,20
 158 242 158 242 220.5 141.349609375 c 132,-1,21
 283 40.7001953125 283 40.7001953125 384 -13.2001953125 c 132,-1,22
 485 -67.099609375 485 -67.099609375 600 -67.099609375 c 132,-1,23
 715 -67.099609375 715 -67.099609375 815.5 -13.2001953125 c 132,-1,24
 916 40.7001953125 916 40.7001953125 979 141.349609375 c 132,-1,25
 1042 242 1042 242 1042 367.400390625 c 6,0,-1
EndSplineSet
Validated: 1
EndChar

StartChar: product
Encoding: 8719 8719 125
Width: 1200
VWidth: 1000
Flags: W
LayerCount: 2
Fore
SplineSet
1005.33984375 1229.59960938 m 6,0,-1
 1005.33984375 26.400390625 l 6,1,2
 1005.33984375 0.7998046875 1005.33984375 0.7998046875 1007.6796875 -14.400390625 c 132,-1,3
 1010.01953125 -29.599609375 1010.01953125 -29.599609375 1019.96484375 -52 c 132,-1,4
 1029.91015625 -74.400390625 1029.91015625 -74.400390625 1055.65039062 -86.400390625 c 132,-1,5
 1081.38964844 -98.400390625 1081.38964844 -98.400390625 1123.50976562 -98.400390625 c 5,6,-1
 1123.50976562 -172 l 5,7,-1
 769 -172 l 5,8,-1
 769 -98.400390625 l 5,9,10
 811.120117188 -98.400390625 811.120117188 -98.400390625 836.860351562 -86.400390625 c 132,-1,11
 862.599609375 -74.400390625 862.599609375 -74.400390625 872.544921875 -52 c 132,-1,12
 882.490234375 -29.599609375 882.490234375 -29.599609375 884.830078125 -14.400390625 c 132,-1,13
 887.169921875 0.7998046875 887.169921875 0.7998046875 887.169921875 26.400390625 c 6,14,-1
 887.169921875 1354.40039062 l 5,15,-1
 325.5703125 1354.40039062 l 5,16,-1
 325.5703125 26.400390625 l 6,17,18
 325.5703125 0.7998046875 325.5703125 0.7998046875 327.91015625 -14.400390625 c 132,-1,19
 330.25 -29.599609375 330.25 -29.599609375 340.1953125 -52 c 132,-1,20
 350.139648438 -74.400390625 350.139648438 -74.400390625 375.879882812 -86.400390625 c 132,-1,21
 401.620117188 -98.400390625 401.620117188 -98.400390625 443.740234375 -98.400390625 c 5,22,-1
 443.740234375 -172 l 5,23,-1
 89.23046875 -172 l 5,24,-1
 89.23046875 -98.400390625 l 5,25,26
 131.349609375 -98.400390625 131.349609375 -98.400390625 157.08984375 -86.400390625 c 132,-1,27
 182.830078125 -74.400390625 182.830078125 -74.400390625 192.775390625 -52 c 132,-1,28
 202.719726562 -29.599609375 202.719726562 -29.599609375 205.059570312 -14.400390625 c 132,-1,29
 207.400390625 0.7998046875 207.400390625 0.7998046875 207.400390625 26.400390625 c 6,30,-1
 207.400390625 1229.59960938 l 6,31,32
 207.400390625 1255.20019531 207.400390625 1255.20019531 205.059570312 1270.40039062 c 132,-1,33
 202.719726562 1285.59960938 202.719726562 1285.59960938 192.775390625 1308 c 132,-1,34
 182.830078125 1330.40039062 182.830078125 1330.40039062 157.08984375 1342.40039062 c 132,-1,35
 131.349609375 1354.40039062 131.349609375 1354.40039062 89.23046875 1354.40039062 c 5,36,-1
 89.23046875 1428 l 5,37,-1
 1123.50976562 1428 l 5,38,-1
 1123.50976562 1354.40039062 l 5,39,40
 1081.38964844 1354.40039062 1081.38964844 1354.40039062 1055.65039062 1342.40039062 c 132,-1,41
 1029.91015625 1330.40039062 1029.91015625 1330.40039062 1019.96484375 1308 c 132,-1,42
 1010.01953125 1285.59960938 1010.01953125 1285.59960938 1007.6796875 1270.40039062 c 132,-1,43
 1005.33984375 1255.20019531 1005.33984375 1255.20019531 1005.33984375 1229.59960938 c 6,0,-1
EndSplineSet
Validated: 1
EndChar

StartChar: uni2210
Encoding: 8720 8720 126
Width: 1200
VWidth: 1000
Flags: W
LayerCount: 2
Fore
SplineSet
1000 1231.20019531 m 6,0,-1
 1000 28 l 6,1,2
 1000 2.400390625 1000 2.400390625 1002.33984375 -12.7998046875 c 132,-1,3
 1004.6796875 -28 1004.6796875 -28 1014.625 -50.400390625 c 132,-1,4
 1024.5703125 -72.7998046875 1024.5703125 -72.7998046875 1050.30957031 -84.7998046875 c 132,-1,5
 1076.04980469 -96.7998046875 1076.04980469 -96.7998046875 1118.16992188 -96.7998046875 c 5,6,-1
 1118.16992188 -170.400390625 l 5,7,-1
 83.8896484375 -170.400390625 l 5,8,-1
 83.8896484375 -96.7998046875 l 5,9,10
 126.009765625 -96.7998046875 126.009765625 -96.7998046875 151.75 -84.7998046875 c 132,-1,11
 177.490234375 -72.7998046875 177.490234375 -72.7998046875 187.434570312 -50.400390625 c 132,-1,12
 197.379882812 -28 197.379882812 -28 199.719726562 -12.7998046875 c 132,-1,13
 202.059570312 2.400390625 202.059570312 2.400390625 202.059570312 28 c 6,14,-1
 202.059570312 1231.20019531 l 6,15,16
 202.059570312 1256.79980469 202.059570312 1256.79980469 199.719726562 1272 c 132,-1,17
 197.379882812 1287.20019531 197.379882812 1287.20019531 187.434570312 1309.59960938 c 132,-1,18
 177.490234375 1332 177.490234375 1332 151.75 1344 c 132,-1,19
 126.009765625 1356 126.009765625 1356 83.8896484375 1356 c 5,20,-1
 83.8896484375 1429.59960938 l 5,21,-1
 438.400390625 1429.59960938 l 5,22,-1
 438.400390625 1356 l 5,23,24
 396.280273438 1356 396.280273438 1356 370.540039062 1344 c 132,-1,25
 344.799804688 1332 344.799804688 1332 334.85546875 1309.59960938 c 132,-1,26
 324.91015625 1287.20019531 324.91015625 1287.20019531 322.5703125 1272 c 132,-1,27
 320.23046875 1256.79980469 320.23046875 1256.79980469 320.23046875 1231.20019531 c 6,28,-1
 320.23046875 -96.7998046875 l 5,29,-1
 881.830078125 -96.7998046875 l 5,30,-1
 881.830078125 1231.20019531 l 6,31,32
 881.830078125 1256.79980469 881.830078125 1256.79980469 879.490234375 1272 c 132,-1,33
 877.150390625 1287.20019531 877.150390625 1287.20019531 867.205078125 1309.59960938 c 132,-1,34
 857.259765625 1332 857.259765625 1332 831.51953125 1344 c 132,-1,35
 805.780273438 1356 805.780273438 1356 763.66015625 1356 c 5,36,-1
 763.66015625 1429.59960938 l 5,37,-1
 1118.16992188 1429.59960938 l 5,38,-1
 1118.16992188 1356 l 5,39,40
 1076.04980469 1356 1076.04980469 1356 1050.30957031 1344 c 132,-1,41
 1024.5703125 1332 1024.5703125 1332 1014.625 1309.59960938 c 132,-1,42
 1004.6796875 1287.20019531 1004.6796875 1287.20019531 1002.33984375 1272 c 132,-1,43
 1000 1256.79980469 1000 1256.79980469 1000 1231.20019531 c 6,0,-1
EndSplineSet
Validated: 1
EndChar

StartChar: summation
Encoding: 8721 8721 127
Width: 1200
VWidth: 2048
Flags: W
LayerCount: 2
Fore
SplineSet
1025 1441 m 5,0,-1
 1091 1210 l 5,1,-1
 1064.59960938 1210 l 5,2,3
 992 1375 992 1375 926 1375 c 6,4,-1
 225.740234375 1375 l 5,5,-1
 606.559570312 715 l 5,6,-1
 225.080078125 55 l 5,7,-1
 926 55 l 6,8,9
 992 55 992 55 1064.59960938 220 c 5,10,-1
 1091 220 l 5,11,-1
 1025 -11 l 5,12,-1
 134 -11 l 5,13,-1
 134 -10.33984375 l 5,14,-1
 35 -10.33984375 l 5,15,-1
 454.099609375 715 l 5,16,-1
 35 1441 l 5,17,-1
 1025 1441 l 5,0,-1
EndSplineSet
EndChar
